<?xml version="1.0" encoding="utf-8"?>
<!-- Generator: Adobe Illustrator 27.5.0, SVG Export Plug-In . SVG Version: 6.00 Build 0)  -->
<svg version="1.1" xmlns="http://www.w3.org/2000/svg" xmlns:xlink="http://www.w3.org/1999/xlink" x="0px" y="0px"
	 viewBox="0 0 3710 3710" style="enable-background:new 0 0 3710 3710;" xml:space="preserve">
<g id="Background">
	<g>
		<g>
			<rect style="fill:#FFFFFF;" width="3710" height="3710"/>
		</g>
	</g>
</g>
<g id="Illustration">
	<g>
		<linearGradient id="SVGID_1_" gradientUnits="userSpaceOnUse" x1="3527.9167" y1="3699.2498" x2="1552.7056" y2="1596.6061">
			<stop  offset="0" style="stop-color:#DAE3FE"/>
			<stop  offset="1" style="stop-color:#E9EFFD"/>
		</linearGradient>
		<path style="fill:url(#SVGID_1_);" d="M2928.725,2861.074c-72.488,75.544-137.347,119.951-187.006,153.476
			c-484.311,326.954-1037.932,232.718-1209.098,200.508c-276.155-51.967-509.268-88.626-709.554-271.577
			c-455.11-415.719-432.974-1282.939-85.215-1820.145c41.234-63.697,388.467-584.094,943.286-657.422
			c13.57-1.793,23.695-2.815,32.563-3.764c85.829-9.188,617.696-57.679,1051.38,309.678
			c62.08,52.585,161.984,147.436,254.628,292.098C3358.457,1592.878,3359.531,2412.107,2928.725,2861.074z"/>
		<g>
			<g>
				<g>
					<path style="fill:#91B3FA;" d="M449.597,1077.398c-0.007,0-0.017,0-0.026,0c-1.867-0.013-3.371-1.54-3.358-3.409
						c0.033-4.529,0.112-9.067,0.248-13.603c0.059-1.87,1.649-3.325,3.486-3.282c1.867,0.056,3.338,1.616,3.282,3.483
						c-0.135,4.486-0.215,8.971-0.248,13.451C452.968,1075.899,451.455,1077.398,449.597,1077.398z"/>
					<path style="fill:#91B3FA;" d="M452.72,1020.584c-0.116,0-0.231-0.005-0.35-0.018c-1.857-0.192-3.212-1.854-3.021-3.713
						c0.915-8.863,2.042-17.826,3.354-26.638c0.278-1.846,1.999-3.107,3.847-2.849c1.847,0.276,3.123,1.998,2.849,3.847
						c-1.299,8.711-2.413,17.572-3.315,26.334C455.903,1019.289,454.436,1020.584,452.72,1020.584z M464,951.457
						c-0.245,0-0.496-0.026-0.744-0.083c-1.824-0.408-2.971-2.219-2.561-4.042c1.96-8.736,4.134-17.504,6.461-26.06
						c0.489-1.803,2.356-2.869,4.154-2.376c1.804,0.491,2.869,2.35,2.376,4.154c-2.3,8.457-4.452,17.126-6.388,25.763
						C466.944,950.388,465.55,951.457,464,951.457z M483.287,884.128c-0.37,0-0.75-0.063-1.12-0.192
						c-1.762-0.618-2.69-2.55-2.072-4.313c1.636-4.676,3.338-9.346,5.103-14.007c1.411-3.729,2.852-7.439,4.333-11.126
						c0.694-1.737,2.66-2.578,4.399-1.882c1.735,0.696,2.578,2.667,1.88,4.4c-1.461,3.647-2.888,7.314-4.28,11.002
						c-1.745,4.61-3.427,9.227-5.05,13.85C485.993,883.256,484.685,884.128,483.287,884.128z M510.221,819.479
						c-0.496,0-1.001-0.109-1.477-0.34c-1.679-0.818-2.379-2.842-1.563-4.523c3.877-7.976,8.004-16.007,12.271-23.871
						c0.886-1.641,2.945-2.254,4.587-1.362c1.643,0.891,2.254,2.945,1.362,4.587c-4.217,7.776-8.298,15.718-12.132,23.603
						C512.683,818.779,511.477,819.479,510.221,819.479z M544.485,758.403c-0.625,0-1.259-0.172-1.824-0.535
						c-1.573-1.008-2.029-3.102-1.021-4.675c4.808-7.502,9.852-14.992,14.991-22.266c1.077-1.527,3.186-1.889,4.716-0.813
						c1.527,1.079,1.89,3.191,0.81,4.716c-5.076,7.193-10.063,14.599-14.819,22.015
						C546.693,757.852,545.599,758.403,544.485,758.403z M585.7,701.77c-0.757,0-1.517-0.253-2.148-0.77
						c-1.441-1.188-1.649-3.32-0.463-4.764c5.668-6.889,11.567-13.743,17.539-20.374c1.253-1.391,3.394-1.499,4.779-0.25
						c1.391,1.251,1.5,3.391,0.251,4.78c-5.906,6.555-11.739,13.332-17.34,20.143C587.646,701.348,586.678,701.77,585.7,701.77z
						 M1477.811,666.549c-0.889,0-1.775-0.347-2.439-1.038c-6.081-6.317-12.416-12.611-18.837-18.705
						c-1.355-1.286-1.411-3.429-0.126-4.784c1.289-1.355,3.43-1.411,4.785-0.124c6.494,6.163,12.905,12.529,19.056,18.92
						c1.296,1.347,1.256,3.488-0.093,4.785C1479.5,666.234,1478.657,666.549,1477.811,666.549z M633.332,650.361
						c-0.889,0-1.778-0.349-2.442-1.041c-1.292-1.35-1.249-3.491,0.099-4.785c6.428-6.165,13.09-12.276,19.806-18.16
						c1.398-1.229,3.543-1.096,4.775,0.314c1.233,1.406,1.091,3.544-0.314,4.775c-6.639,5.818-13.226,11.859-19.581,17.955
						C635.018,650.049,634.175,650.361,633.332,650.361z M1426.325,619.04c-0.753,0-1.51-0.251-2.142-0.765
						c-6.824-5.589-13.864-11.093-20.916-16.357c-1.497-1.117-1.804-3.239-0.687-4.736c1.12-1.499,3.242-1.808,4.739-0.687
						c7.132,5.324,14.25,10.891,21.154,16.542c1.444,1.185,1.659,3.316,0.473,4.762
						C1428.278,618.617,1427.307,619.04,1426.325,619.04z M686.662,604.917c-1.025,0-2.039-0.463-2.703-1.345
						c-1.127-1.49-0.83-3.612,0.661-4.739c7.119-5.379,14.452-10.665,21.789-15.709c1.54-1.054,3.648-0.667,4.706,0.872
						c1.058,1.54,0.668,3.647-0.872,4.706c-7.254,4.987-14.502,10.214-21.544,15.531
						C688.087,604.694,687.373,604.917,686.662,604.917z M1369.598,577.93c-0.621,0-1.253-0.172-1.818-0.532
						c-7.419-4.734-15.054-9.371-22.701-13.781c-1.619-0.934-2.175-3.004-1.239-4.622c0.935-1.624,2.997-2.178,4.623-1.241
						c7.73,4.46,15.457,9.149,22.959,13.94c1.576,1.005,2.036,3.098,1.031,4.673C1371.809,577.378,1370.715,577.93,1369.598,577.93z
						 M744.936,566.029c-1.163,0-2.294-0.598-2.925-1.674c-0.942-1.613-0.403-3.685,1.21-4.63c7.7-4.511,15.596-8.903,23.464-13.056
						c1.652-0.876,3.701-0.24,4.574,1.413c0.872,1.652,0.238,3.7-1.414,4.572c-7.783,4.106-15.589,8.45-23.2,12.91
						C746.106,565.88,745.518,566.029,744.936,566.029z M1308.422,543.773c-0.492,0-0.995-0.107-1.471-0.337
						c-7.932-3.837-16.062-7.55-24.162-11.036c-1.715-0.739-2.508-2.73-1.771-4.447c0.74-1.722,2.736-2.512,4.448-1.77
						c8.189,3.526,16.412,7.281,24.433,11.159c1.682,0.815,2.386,2.837,1.573,4.521
						C1310.887,543.07,1309.681,543.773,1308.422,543.773z M807.328,534.197c-1.305,0-2.545-0.757-3.103-2.026
						c-0.75-1.712,0.03-3.708,1.738-4.458c8.156-3.581,16.508-7.026,24.816-10.238c1.738-0.676,3.701,0.192,4.376,1.935
						c0.674,1.743-0.192,3.703-1.937,4.377c-8.213,3.177-16.468,6.583-24.532,10.123
						C808.243,534.104,807.781,534.197,807.328,534.197z M1243.681,516.959c-0.37,0-0.744-0.061-1.114-0.19
						c-8.318-2.897-16.815-5.646-25.252-8.171c-1.788-0.535-2.806-2.422-2.27-4.212c0.535-1.79,2.419-2.819,4.214-2.272
						c8.53,2.553,17.122,5.334,25.536,8.264c1.765,0.615,2.697,2.543,2.082,4.31
						C1246.391,516.083,1245.082,516.959,1243.681,516.959z M872.988,509.839c-1.451,0-2.789-0.939-3.235-2.396
						c-0.549-1.786,0.459-3.678,2.244-4.225c8.497-2.601,17.185-5.05,25.827-7.279c1.814-0.456,3.655,0.623,4.124,2.431
						c0.466,1.809-0.625,3.655-2.432,4.123c-8.546,2.204-17.135,4.627-25.536,7.196
						C873.649,509.789,873.315,509.839,872.988,509.839z M1176.318,497.811c-0.245,0-0.489-0.025-0.737-0.081
						c-8.593-1.909-17.354-3.649-26.035-5.174c-1.841-0.322-3.07-2.077-2.75-3.918c0.324-1.841,2.075-3.077,3.92-2.748
						c8.784,1.542,17.641,3.302,26.333,5.233c1.824,0.405,2.974,2.213,2.571,4.037
						C1179.27,496.738,1177.868,497.811,1176.318,497.811z M941.031,493.293c-1.606,0-3.027-1.145-3.325-2.778
						c-0.337-1.839,0.882-3.601,2.723-3.936c8.768-1.595,17.678-3.011,26.488-4.209c1.854-0.261,3.559,1.046,3.81,2.897
						c0.251,1.852-1.048,3.558-2.898,3.809c-8.711,1.185-17.522,2.586-26.191,4.162
						C941.435,493.275,941.233,493.293,941.031,493.293z M1107.168,486.675c-0.112,0-0.228-0.005-0.344-0.017
						c-8.758-0.886-17.661-1.583-26.462-2.074c-1.867-0.104-3.295-1.702-3.189-3.568c0.099-1.867,1.689-3.278,3.566-3.191
						c8.903,0.496,17.906,1.203,26.766,2.097c1.861,0.188,3.216,1.849,3.027,3.708
						C1110.354,485.375,1108.883,486.675,1107.168,486.675z M1010.529,484.828c-1.771,0-3.262-1.38-3.374-3.173
						c-0.116-1.866,1.302-3.472,3.166-3.589c8.87-0.554,17.886-0.915,26.806-1.073c1.887,0.043,3.411,1.456,3.444,3.325
						s-1.457,3.411-3.325,3.444c-8.817,0.155-17.734,0.511-26.501,1.059C1010.671,484.826,1010.598,484.828,1010.529,484.828z"/>
					<path style="fill:#91B3FA;" d="M1515.417,709.536c-0.998,0-1.986-0.438-2.654-1.281c-2.786-3.511-5.612-6.991-8.48-10.442
						c-1.196-1.436-1.001-3.571,0.436-4.766c1.441-1.198,3.573-0.996,4.766,0.44c2.902,3.49,5.76,7.01,8.579,10.56
						c1.163,1.464,0.919,3.592-0.545,4.754C1516.894,709.296,1516.153,709.536,1515.417,709.536z"/>
				</g>
				<g>
					<path style="fill:#91B3FA;" d="M1641.433,1149.661c-0.129,0-0.258-0.007-0.39-0.021c-1.857-0.213-3.189-1.892-2.974-3.749
						c0.512-4.462,0.975-8.922,1.385-13.381c0.172-1.859,1.801-3.237,3.682-3.059c1.861,0.17,3.232,1.819,3.06,3.68
						c-0.416,4.509-0.886,9.019-1.405,13.533C1644.592,1148.389,1643.131,1149.661,1641.433,1149.661z"/>
					<path style="fill:#91B3FA;" d="M1048.346,1679.426c-1.867,0-3.381-1.512-3.384-3.379c-0.003-1.869,1.51-3.386,3.377-3.389
						c9.121-0.015,18.355-0.245,27.447-0.684c1.748-0.084,3.45,1.348,3.543,3.217c0.089,1.867-1.352,3.454-3.219,3.544
						c-9.194,0.443-18.533,0.676-27.757,0.691C1048.349,1679.426,1048.349,1679.426,1048.346,1679.426z M1003.512,1677.805
						c-0.083,0-0.169-0.003-0.255-0.01c-9.207-0.682-18.507-1.59-27.638-2.697c-1.857-0.225-3.179-1.91-2.954-3.766
						c0.225-1.856,1.89-3.169,3.767-2.953c9.029,1.094,18.223,1.991,27.328,2.667c1.864,0.137,3.262,1.761,3.123,3.625
						C1006.751,1676.45,1005.267,1677.805,1003.512,1677.805z M1120.639,1674.89c-1.685,0-3.143-1.254-3.354-2.968
						c-0.231-1.854,1.087-3.544,2.941-3.774c9.026-1.122,18.157-2.47,27.136-4.01c1.871-0.316,3.596,0.924,3.906,2.764
						c0.317,1.842-0.922,3.591-2.763,3.908c-9.082,1.557-18.315,2.92-27.447,4.053
						C1120.916,1674.882,1120.777,1674.89,1120.639,1674.89z M931.732,1668.051c-0.218,0-0.44-0.02-0.661-0.064
						c-9.049-1.798-18.167-3.829-27.106-6.038c-1.814-0.448-2.921-2.282-2.472-4.096c0.449-1.816,2.277-2.928,4.098-2.474
						c8.837,2.184,17.853,4.192,26.799,5.969c1.831,0.365,3.024,2.146,2.657,3.979
						C934.729,1666.937,933.315,1668.051,931.732,1668.051z M1191.828,1661.625c-1.517,0-2.895-1.026-3.282-2.565
						c-0.449-1.813,0.651-3.65,2.465-4.103c8.827-2.204,17.734-4.647,26.465-7.262c1.791-0.539,3.678,0.481,4.214,2.272
						c0.535,1.79-0.479,3.675-2.27,4.212c-8.834,2.646-17.839,5.116-26.769,7.345
						C1192.376,1661.593,1192.099,1661.625,1191.828,1661.625z M861.656,1649.668c-0.35,0-0.704-0.055-1.054-0.17
						c-8.566-2.809-17.208-5.859-25.688-9.063l-0.397-0.149c-1.748-0.661-2.677-2.632-2.016-4.381
						c0.661-1.747,2.558-2.646,4.313-1.988l0.469,0.177c8.407,3.178,16.957,6.193,25.427,8.973c1.778,0.582,2.743,2.495,2.161,4.27
						C864.402,1648.762,863.081,1649.668,861.656,1649.668z M1260.919,1639.862c-1.362,0-2.644-0.828-3.159-2.176
						c-0.671-1.745,0.205-3.701,1.95-4.371c8.52-3.26,17.066-6.758,25.407-10.399c1.732-0.745,3.715,0.04,4.458,1.748
						c0.747,1.714-0.036,3.708-1.751,4.455c-8.434,3.682-17.079,7.219-25.695,10.518
						C1261.732,1639.79,1261.322,1639.862,1260.919,1639.862z M794.267,1623.023c-0.479,0-0.965-0.101-1.428-0.317
						c-8.365-3.9-16.742-8.044-24.902-12.317c-1.656-0.866-2.297-2.912-1.428-4.567c0.869-1.656,2.905-2.295,4.567-1.428
						c8.07,4.224,16.352,8.322,24.624,12.178c1.692,0.79,2.426,2.802,1.636,4.496
						C796.763,1622.301,795.543,1623.023,794.267,1623.023z M1326.896,1609.941c-1.216,0-2.389-0.654-2.994-1.803
						c-0.876-1.652-0.241-3.7,1.411-4.574c8.054-4.257,16.121-8.759,23.98-13.385c1.613-0.952,3.688-0.406,4.63,1.2
						c0.948,1.611,0.413,3.685-1.2,4.633c-7.941,4.676-16.101,9.23-24.251,13.536
						C1327.97,1609.815,1327.428,1609.941,1326.896,1609.941z M730.557,1588.477c-0.611,0-1.229-0.165-1.788-0.512
						c-7.846-4.893-15.658-10.023-23.226-15.247c-1.537-1.061-1.923-3.169-0.863-4.706c1.061-1.542,3.169-1.928,4.709-0.862
						c7.479,5.164,15.206,10.235,22.962,15.072c1.586,0.99,2.069,3.077,1.081,4.663
						C732.791,1587.912,731.687,1588.477,730.557,1588.477z M1388.796,1572.29c-1.071,0-2.125-0.507-2.783-1.456
						c-1.067-1.535-0.684-3.644,0.849-4.709c7.462-5.175,14.931-10.62,22.202-16.182c1.487-1.134,3.612-0.849,4.742,0.633
						c1.137,1.484,0.853,3.609-0.631,4.744c-7.353,5.625-14.908,11.131-22.453,16.367
						C1390.134,1572.095,1389.46,1572.29,1388.796,1572.29z M671.526,1546.45c-0.747,0-1.497-0.246-2.125-0.752
						c-7.201-5.823-14.33-11.866-21.187-17.963c-1.398-1.243-1.523-3.381-0.281-4.779c1.239-1.398,3.378-1.522,4.775-0.281
						c6.781,6.028,13.831,12.003,20.949,17.758c1.454,1.177,1.679,3.307,0.502,4.761
						C673.493,1546.02,672.514,1546.45,671.526,1546.45z M1445.701,1527.439c-0.929,0-1.857-0.382-2.525-1.132
						c-1.246-1.395-1.124-3.534,0.271-4.777c6.824-6.088,13.583-12.398,20.083-18.76c1.338-1.307,3.48-1.281,4.785,0.053
						c1.305,1.335,1.282,3.478-0.053,4.785c-6.573,6.433-13.408,12.816-20.308,18.971
						C1447.307,1527.156,1446.504,1527.439,1445.701,1527.439z M618.064,1497.54c-0.886,0-1.768-0.345-2.432-1.031
						c-6.401-6.618-12.74-13.482-18.844-20.406c-1.236-1.401-1.101-3.539,0.301-4.776c1.398-1.231,3.543-1.105,4.775,0.301
						c6.035,6.844,12.304,13.632,18.633,20.174c1.299,1.343,1.263,3.487-0.079,4.785
						C619.759,1497.224,618.91,1497.54,618.064,1497.54z M1496.751,1476.007c-0.793,0-1.59-0.278-2.234-0.841
						c-1.405-1.234-1.543-3.373-0.307-4.776c6.031-6.867,11.97-13.958,17.654-21.073c1.167-1.459,3.292-1.699,4.756-0.532
						c1.461,1.167,1.699,3.297,0.532,4.756c-5.75,7.198-11.759,14.369-17.859,21.314
						C1498.625,1475.618,1497.689,1476.007,1496.751,1476.007z M1541.158,1418.727c-0.658,0-1.322-0.19-1.904-0.588
						c-1.543-1.054-1.943-3.159-0.889-4.703c5.113-7.49,10.136-15.24,14.934-23.035c0.975-1.59,3.054-2.087,4.656-1.107
						c1.59,0.98,2.089,3.065,1.107,4.656c-4.855,7.882-9.938,15.723-15.106,23.299
						C1543.303,1418.209,1542.239,1418.727,1541.158,1418.727z M1578.245,1356.503c-0.522,0-1.054-0.121-1.55-0.377
						c-1.659-0.858-2.31-2.9-1.454-4.561c4.177-8.092,8.226-16.394,12.033-24.674c0.777-1.7,2.779-2.445,4.488-1.662
						c1.695,0.78,2.442,2.789,1.659,4.488c-3.847,8.375-7.942,16.771-12.165,24.955
						C1580.654,1355.836,1579.471,1356.503,1578.245,1356.503z M1607.555,1290.266c-0.393,0-0.793-0.069-1.183-0.215
						c-1.752-0.653-2.641-2.603-1.986-4.354c3.183-8.541,6.213-17.268,9.002-25.94c0.575-1.781,2.465-2.751,4.26-2.186
						c1.778,0.573,2.756,2.48,2.185,4.258c-2.822,8.769-5.886,17.595-9.108,26.234
						C1610.219,1289.424,1608.927,1290.266,1607.555,1290.266z M1628.755,1220.984c-0.264,0-0.529-0.03-0.797-0.094
						c-1.818-0.438-2.935-2.267-2.495-4.083c2.138-8.86,4.095-17.889,5.82-26.834c0.354-1.832,2.112-3.034,3.963-2.682
						c1.834,0.354,3.037,2.128,2.683,3.963c-1.745,9.047-3.724,18.178-5.889,27.139
						C1631.667,1219.943,1630.282,1220.984,1628.755,1220.984z"/>
					<path style="fill:#91B3FA;" d="M570.835,1442.354c-1.024,0-2.039-0.464-2.703-1.345c-2.736-3.62-5.433-7.271-8.077-10.947
						c-1.091-1.517-0.747-3.632,0.77-4.723c1.517-1.092,3.632-0.745,4.723,0.77c2.617,3.634,5.281,7.241,7.984,10.822
						c1.127,1.491,0.83,3.612-0.661,4.739C572.259,1442.131,571.545,1442.354,570.835,1442.354z"/>
				</g>
				<g>
					<path style="fill:#91B3FA;" d="M644.262,1297.878c1.169,2.826,4.005,4.604,7.06,4.42l87.156-5.239
						c23.765,33.135,52.983,62.721,87.052,87.219l-5.34,87.093c-0.19,3.056,1.584,5.892,4.41,7.066l96.736,40.138
						c2.828,1.173,6.088,0.423,8.117-1.866l57.889-65.291c41.406,6.818,82.985,6.612,123.227,0.033l57.846,65.405
						c2.028,2.291,5.286,3.045,8.114,1.877l96.786-40.02c2.829-1.171,4.604-4.006,4.42-7.06l-5.24-87.156
						c33.136-23.763,62.72-52.983,87.218-87.052l87.095,5.341c3.055,0.187,5.892-1.584,7.065-4.411l40.14-96.737
						c1.173-2.827,0.423-6.087-1.868-8.116l-65.292-57.888c6.82-41.406,6.613-82.986,0.034-123.227l65.406-57.846
						c2.29-2.027,3.045-5.286,1.876-8.114l-40.021-96.784c-1.168-2.829-4.005-4.603-7.059-4.42l-87.157,5.239
						c-23.763-33.136-52.982-62.721-87.051-87.218l5.341-87.096c0.187-3.054-1.584-5.892-4.41-7.065l-96.737-40.138
						c-2.826-1.174-6.086-0.423-8.116,1.866l-57.888,65.292c-41.406-6.82-82.986-6.612-123.229-0.034l-57.845-65.403
						c-2.026-2.293-5.287-3.047-8.115-1.877l-96.784,40.021c-2.828,1.169-4.602,4.003-4.42,7.059l5.239,87.156
						c-33.136,23.763-62.72,52.983-87.218,87.052l-87.096-5.341c-3.052-0.188-5.891,1.583-7.063,4.412L604.398,945.9
						c-1.173,2.827-0.424,6.088,1.866,8.119l65.291,57.888c-6.817,41.404-6.61,82.985-0.033,123.226l-65.403,57.846
						c-2.293,2.028-3.046,5.286-1.878,8.115L644.262,1297.878z"/>
					<g>
						<path style="fill:#BDD0FB;" d="M1049.268,1171.85c-4.729,0-9.518-0.344-14.336-1.053h0.003
							c-25.92-3.811-48.802-17.488-64.431-38.51c-15.632-21.02-22.142-46.871-18.332-72.789
							c7.875-53.502,57.815-90.627,111.303-82.758c53.499,7.869,90.625,57.798,82.76,111.3
							C1139.07,1136.726,1097.082,1171.85,1049.268,1171.85z M1049.145,985.841c-42.867,0-80.505,31.487-86.927,75.135
							c-3.417,23.235,2.419,46.41,16.432,65.254c14.013,18.846,34.526,31.107,57.758,34.524h0.003
							c47.95,7.053,92.72-26.229,99.776-74.19c7.052-47.963-26.227-92.725-74.193-99.779
							C1057.682,986.15,1053.382,985.841,1049.145,985.841z"/>
					</g>
					<g>
						<path style="fill:#BDD0FB;" d="M1050.847,1330.546c-32.876,0-66.255-6.322-98.464-19.687l0,0
							c-16.99-7.049-33.204-15.886-48.188-26.265l5.78-8.346c14.393,9.971,29.971,18.461,46.301,25.236l0,0
							c65.72,27.266,136.621,24.026,196.869-3.183c52.457-23.694,96.835-65.569,122.662-121.285c1.428-3.08,2.796-6.193,4.108-9.356
							c12.843-30.946,18.917-63.038,18.91-94.625c-0.017-97.152-57.557-189.52-152.736-229.014
							c-126.119-52.329-271.3,7.705-323.635,133.824c-12.552,30.252-18.95,62.522-18.96,94.911c0,12.011,0.876,24.039,2.641,35.986
							l-10.04,1.484c-1.841-12.438-2.753-24.96-2.753-37.465c0.007-33.723,6.669-67.316,19.733-98.806
							c54.48-131.293,205.616-193.787,336.907-139.31c63.601,26.391,113.118,75.968,139.431,139.601
							c13.13,31.754,19.7,65.112,19.703,98.469c0.007,33.488-6.603,66.974-19.822,98.836
							C1248.178,1270.636,1151.992,1330.546,1050.847,1330.546z"/>
					</g>
				</g>
			</g>
			<path style="fill:#91B3FA;" d="M1576.32,945.27l48.447-6.796c14.744,17.451,32.377,32.678,52.493,44.849l0.885,48.881
				c0.03,1.716,1.146,3.22,2.777,3.75l55.813,18.123c1.631,0.53,3.418-0.035,4.45-1.403l29.433-39.038
				c23.428,1.969,46.642,0.007,68.827-5.454l35.212,33.962c1.235,1.189,3.089,1.466,4.616,0.687l52.279-26.65
				c1.528-0.78,2.394-2.442,2.155-4.139l-6.796-48.446c17.452-14.744,32.678-32.378,44.847-52.494l48.883-0.884
				c1.714-0.031,3.22-1.147,3.75-2.776l18.122-55.813c0.53-1.631-0.033-3.419-1.403-4.452l-39.037-29.432
				c1.97-23.429,0.007-46.643-5.455-68.827l33.963-35.213c1.189-1.234,1.465-3.088,0.687-4.615l-26.651-52.28
				c-0.778-1.528-2.441-2.393-4.138-2.156l-48.446,6.797c-14.744-17.452-32.378-32.679-52.495-44.848l-0.884-48.883
				c-0.032-1.714-1.147-3.22-2.777-3.75l-55.813-18.122c-1.631-0.53-3.419,0.033-4.45,1.403l-29.433,39.036
				c-23.429-1.969-46.643-0.007-68.828,5.454l-35.211-33.96c-1.233-1.191-3.089-1.467-4.616-0.689l-52.279,26.65
				c-1.528,0.779-2.393,2.441-2.156,4.139l6.797,48.447c-17.452,14.743-32.678,32.378-44.848,52.494l-48.882,0.884
				c-1.713,0.031-3.221,1.146-3.75,2.778l-18.123,55.811c-0.529,1.632,0.034,3.419,1.404,4.452l39.036,29.432
				c-1.968,23.428-0.006,46.642,5.454,68.827l-33.96,35.212c-1.191,1.234-1.467,3.087-0.688,4.616l26.651,52.279
				C1572.959,944.642,1574.621,945.509,1576.32,945.27z"/>
			<g>
				<path style="fill:#BDD0FB;" d="M1788.481,857.146c-1.292,0-2.591-0.043-3.893-0.131c-15.242-1.018-29.172-7.908-39.228-19.404
					c-10.057-11.496-15.034-26.221-14.016-41.461c1.018-15.239,7.912-29.17,19.406-39.227c11.494-10.053,26.23-15.037,41.459-14.014
					c15.242,1.018,29.172,7.908,39.228,19.404c10.057,11.496,15.034,26.22,14.016,41.461c-1.018,15.239-7.908,29.168-19.406,39.225
					C1815.534,852.197,1802.322,857.146,1788.481,857.146z M1788.329,752.932c-11.382,0-22.248,4.07-30.893,11.635
					c-9.455,8.27-15.123,19.728-15.959,32.262c-0.839,12.534,3.255,24.644,11.524,34.099c8.272,9.453,19.73,15.121,32.262,15.959
					l0,0c12.515,0.826,24.647-3.257,34.103-11.527c9.452-8.27,15.12-19.728,15.956-32.262c0.839-12.534-3.255-24.644-11.524-34.099
					c-8.272-9.453-19.73-15.121-32.262-15.959C1790.464,752.968,1789.393,752.932,1788.329,752.932z"/>
			</g>
			<g>
				<path style="fill:#91B3FA;" d="M1486.724,892.607c-1.461,0-2.806-0.952-3.245-2.422c-1.262-4.248-2.472-8.687-3.599-13.195
					c-0.456-1.813,0.648-3.65,2.462-4.105c1.804-0.458,3.648,0.649,4.101,2.462c1.104,4.412,2.29,8.756,3.526,12.91
					c0.532,1.791-0.489,3.675-2.28,4.207C1487.365,892.56,1487.041,892.607,1486.724,892.607z"/>
				<path style="fill:#91B3FA;" d="M1475.587,836.663c-1.712,0-3.179-1.291-3.361-3.029c-0.945-8.945-1.514-18.046-1.689-27.053
					c-0.036-1.869,1.451-3.414,3.318-3.45c0.023,0,0.046,0,0.066,0c1.841,0,3.348,1.472,3.384,3.318
					c0.172,8.816,0.727,17.722,1.649,26.475c0.198,1.859-1.15,3.525-3.007,3.721
					C1475.825,836.656,1475.706,836.663,1475.587,836.663z M1476.04,766.401c-0.132,0-0.264-0.007-0.397-0.023
					c-1.857-0.218-3.186-1.899-2.968-3.756c1.051-8.953,2.495-17.952,4.293-26.751c0.374-1.832,2.161-3.014,3.992-2.639
					c1.831,0.375,3.011,2.163,2.637,3.994c-1.758,8.612-3.173,17.421-4.2,26.186C1479.196,765.133,1477.732,766.401,1476.04,766.401
					z M1491.939,697.982c-0.377,0-0.757-0.063-1.13-0.197c-1.762-0.623-2.684-2.558-2.059-4.319
					c3.004-8.479,6.418-16.932,10.143-25.128c0.77-1.7,2.766-2.46,4.481-1.681c1.702,0.773,2.452,2.779,1.679,4.48
					c-3.645,8.021-6.983,16.294-9.924,24.59C1494.636,697.115,1493.33,697.982,1491.939,697.982z M1522.72,634.814
					c-0.621,0-1.249-0.17-1.811-0.527c-1.576-1.003-2.046-3.095-1.041-4.671c4.825-7.596,10.037-15.077,15.496-22.237
					c1.127-1.486,3.249-1.776,4.742-0.641c1.484,1.133,1.771,3.257,0.638,4.742c-5.341,7.008-10.443,14.331-15.166,21.764
					C1524.934,634.259,1523.84,634.814,1522.72,634.814z M1566.783,580.079c-0.869,0-1.742-0.334-2.403-1.001
					c-1.315-1.325-1.309-3.468,0.02-4.785c6.382-6.332,13.12-12.476,20.03-18.258c1.441-1.198,3.573-1.005,4.766,0.425
					c1.2,1.433,1.011,3.568-0.423,4.767c-6.762,5.659-13.358,11.671-19.607,17.871
					C1568.509,579.752,1567.646,580.079,1566.783,580.079z M1621.842,536.441c-1.127,0-2.231-0.563-2.872-1.59
					c-0.991-1.585-0.509-3.673,1.074-4.663c7.647-4.782,15.576-9.283,23.563-13.378c1.659-0.861,3.701-0.197,4.554,1.467
					c0.853,1.662,0.195,3.701-1.467,4.554c-7.816,4.009-15.576,8.414-23.061,13.094
					C1623.074,536.276,1622.453,536.441,1621.842,536.441z M1917.353,516.263c-0.463,0-0.932-0.096-1.385-0.299
					c-8.037-3.611-16.326-6.915-24.637-9.822c-1.765-0.616-2.693-2.546-2.079-4.311c0.618-1.763,2.545-2.687,4.313-2.077
					c8.493,2.969,16.964,6.347,25.18,10.037c1.705,0.765,2.465,2.769,1.699,4.473
					C1919.881,515.52,1918.645,516.263,1917.353,516.263z M1685.156,506.083c-1.401,0-2.71-0.876-3.196-2.274
					c-0.615-1.765,0.317-3.693,2.082-4.308c8.497-2.956,17.222-5.58,25.943-7.798c1.781-0.461,3.652,0.631,4.111,2.446
					c0.463,1.811-0.631,3.654-2.446,4.115c-8.53,2.17-17.069,4.738-25.381,7.629
					C1685.899,506.022,1685.526,506.083,1685.156,506.083z M1850.433,494.858c-0.218,0-0.443-0.022-0.667-0.066
					c-8.619-1.722-17.44-3.097-26.217-4.085c-1.857-0.208-3.193-1.884-2.984-3.741c0.208-1.857,1.844-3.219,3.744-2.984
					c8.966,1.01,17.978,2.414,26.786,4.174c1.831,0.365,3.021,2.148,2.654,3.981
					C1853.427,493.746,1852.013,494.858,1850.433,494.858z M1753.661,490.601c-1.705,0-3.169-1.282-3.361-3.014
					c-0.205-1.857,1.137-3.53,2.994-3.734c8.936-0.982,18.031-1.591,27.033-1.811c1.947-0.048,3.421,1.433,3.467,3.3
					c0.043,1.869-1.434,3.42-3.302,3.465c-8.811,0.215-17.71,0.813-26.458,1.775
					C1753.909,490.595,1753.784,490.601,1753.661,490.601z"/>
				<path style="fill:#91B3FA;" d="M1967.226,544.415c-0.664,0-1.335-0.195-1.923-0.602c-3.648-2.526-7.406-5.008-11.164-7.376
					c-1.58-0.996-2.056-3.087-1.057-4.668s3.083-2.049,4.667-1.059c3.84,2.421,7.677,4.957,11.408,7.538
					c1.537,1.064,1.92,3.173,0.856,4.709C1969.354,543.906,1968.3,544.415,1967.226,544.415z"/>
			</g>
			<g>
				<path style="fill:#91B3FA;" d="M2099.052,753.115c-1.633,0-3.07-1.183-3.338-2.847c-0.711-4.422-1.52-8.852-2.406-13.167
					c-0.377-1.831,0.803-3.619,2.634-3.995c1.824-0.382,3.622,0.805,3.995,2.634c0.906,4.409,1.735,8.936,2.459,13.454
					c0.297,1.846-0.958,3.582-2.806,3.878C2099.409,753.102,2099.23,753.115,2099.052,753.115z"/>
				<path style="fill:#91B3FA;" d="M1788.755,1117.883c-3.308,0-6.629-0.051-9.961-0.154c-1.871-0.058-3.338-1.618-3.282-3.487
					c0.056-1.869,1.758-3.32,3.486-3.278c8.728,0.266,17.44,0.175,26.105-0.276c1.831-0.139,3.457,1.335,3.556,3.202
					c0.096,1.867-1.338,3.458-3.206,3.556C1799.916,1117.736,1794.297,1117.883,1788.755,1117.883z M1736.248,1113.536
					c-0.185,0-0.373-0.015-0.562-0.046c-8.751-1.462-17.535-3.31-26.101-5.491c-1.811-0.463-2.905-2.303-2.442-4.115
					c0.459-1.814,2.3-2.913,4.115-2.446c8.384,2.137,16.977,3.944,25.546,5.375c1.844,0.307,3.087,2.052,2.779,3.895
					C1739.305,1112.364,1737.874,1113.536,1736.248,1113.536z M1847.806,1112.297c-1.593,0-3.011-1.127-3.321-2.748
					c-0.35-1.836,0.853-3.609,2.687-3.959c8.516-1.631,17.063-3.644,25.398-5.985c1.801-0.497,3.668,0.545,4.174,2.343
					c0.506,1.799-0.545,3.668-2.343,4.174c-8.52,2.391-17.251,4.448-25.956,6.114
					C1848.232,1112.277,1848.017,1112.297,1847.806,1112.297z M1669.715,1094.702c-0.426,0-0.859-0.081-1.276-0.251
					c-8.206-3.343-16.365-7.076-24.251-11.094c-1.666-0.849-2.327-2.887-1.477-4.552c0.849-1.666,2.875-2.332,4.551-1.479
					c7.717,3.933,15.698,7.586,23.729,10.856c1.732,0.706,2.564,2.68,1.857,4.412
					C1672.316,1093.905,1671.051,1094.702,1669.715,1094.702z M1913.813,1091.884c-1.309,0-2.551-0.762-3.107-2.034
					c-0.747-1.715,0.04-3.708,1.752-4.455c7.938-3.455,15.83-7.294,23.461-11.41c1.639-0.881,3.695-0.274,4.584,1.373
					c0.889,1.644,0.274,3.698-1.372,4.585c-7.796,4.204-15.86,8.126-23.97,11.658
					C1914.722,1091.793,1914.263,1091.884,1913.813,1091.884z M1973.759,1057.501c-1.044,0-2.075-0.481-2.736-1.39
					c-1.104-1.509-0.773-3.625,0.737-4.728c7.003-5.111,13.874-10.579,20.424-16.251c1.404-1.223,3.543-1.074,4.772,0.342
					c1.223,1.413,1.071,3.549-0.344,4.774c-6.689,5.795-13.708,11.382-20.86,16.602
					C1975.151,1057.29,1974.45,1057.501,1973.759,1057.501z M2024.816,1010.893c-0.796,0-1.593-0.278-2.234-0.843
					c-1.405-1.234-1.54-3.373-0.307-4.777c5.727-6.509,11.243-13.34,16.402-20.302c1.114-1.5,3.229-1.816,4.736-0.706
					c1.5,1.114,1.814,3.232,0.704,4.734c-5.271,7.114-10.909,14.094-16.759,20.744
					C2026.686,1010.505,2025.754,1010.893,2024.816,1010.893z M2064.497,954.273c-0.549,0-1.107-0.134-1.623-0.416
					c-1.639-0.897-2.241-2.954-1.342-4.594c4.164-7.601,8.054-15.475,11.567-23.403c0.753-1.707,2.75-2.482,4.465-1.725
					c1.708,0.757,2.479,2.756,1.722,4.465c-3.586,8.102-7.561,16.149-11.818,23.915
					C2066.853,953.639,2065.693,954.273,2064.497,954.273z M2090.813,890.31c-0.311,0-0.625-0.043-0.935-0.132
					c-1.798-0.516-2.835-2.391-2.32-4.187c2.383-8.303,4.442-16.836,6.124-25.36c0.364-1.833,2.141-3.031,3.976-2.664
					c1.834,0.362,3.027,2.142,2.667,3.976c-1.722,8.708-3.827,17.428-6.263,25.915
					C2093.635,889.342,2092.284,890.31,2090.813,890.31z M2102.453,822.176c-0.069,0-0.139-0.002-0.205-0.007
					c-1.867-0.112-3.288-1.715-3.176-3.581c0.38-6.311,0.572-12.694,0.572-18.973c0-2.381-0.027-4.756-0.083-7.124
					c-0.043-1.869,1.438-3.419,3.305-3.462c0.026-0.002,0.053-0.002,0.079-0.002c1.834,0,3.341,1.464,3.384,3.305
					c0.056,2.421,0.083,4.848,0.083,7.282c0,6.415-0.198,12.933-0.585,19.38C2105.718,820.791,2104.227,822.176,2102.453,822.176z"
					/>
				<path style="fill:#91B3FA;" d="M1608.784,1061.584c-0.667,0-1.342-0.197-1.93-0.608c-3.692-2.569-7.406-5.281-11.048-8.055
					c-1.487-1.134-1.771-3.257-0.638-4.744c1.13-1.482,3.249-1.771,4.742-0.64c3.563,2.718,7.201,5.37,10.81,7.887
					c1.533,1.068,1.91,3.177,0.843,4.711C1610.906,1061.078,1609.855,1061.584,1608.784,1061.584z"/>
			</g>
			<g>
				<path style="fill:#BDD0FB;" d="M1789.611,946.049c-15.235,0-30.54-2.401-45.448-7.242c-0.37-0.121-0.74-0.241-1.107-0.365
					c-8.477-2.827-16.686-6.416-24.462-10.693c-0.036-0.018-0.069-0.038-0.106-0.058c-0.102-0.058-0.208-0.114-0.311-0.172
					c-0.264-0.145-0.526-0.293-0.787-0.44c-0.585-0.327-1.163-0.659-1.742-0.996l5.096-8.778
					c8.351,4.848,17.284,8.834,26.554,11.844c2.736,0.889,5.489,1.69,8.249,2.403c0.013,0.002,0.026,0.005,0.036,0.008
					c0.016,0.005,0.03,0.008,0.046,0.012c20.011,5.147,40.59,5.674,60.468,1.689c11.369-2.279,22.506-6.031,33.184-11.243
					c0.135-0.066,0.268-0.132,0.403-0.198c0.231-0.112,0.459-0.226,0.687-0.34c0.364-0.18,0.727-0.364,1.087-0.549
					c32.486-16.56,56.582-44.782,67.841-79.465c4.511-13.885,6.745-28.142,6.742-42.333c-0.003-21.25-5.03-42.348-14.958-61.828
					c-16.56-32.488-44.784-56.582-79.464-67.843c-71.612-23.251-148.76,16.088-172.006,87.682
					c-4.455,13.725-6.696,27.985-6.696,42.246c0,10.2,1.147,20.399,3.447,30.399l-9.895,2.277
					c-2.472-10.749-3.705-21.708-3.705-32.668c0-15.323,2.406-30.646,7.191-45.39c24.981-76.917,107.876-119.177,184.796-94.202
					c37.262,12.101,67.584,37.986,85.377,72.89c10.668,20.928,16.065,43.596,16.071,66.427c0.003,15.245-2.399,30.561-7.244,45.481
					c-12.099,37.26-37.982,67.58-72.888,85.374C1835.135,940.649,1812.454,946.049,1789.611,946.049z"/>
			</g>
		</g>
		<g>
			
				<linearGradient id="SVGID_00000158026798132257822560000002909411683294712248_" gradientUnits="userSpaceOnUse" x1="-944.0347" y1="2725.6743" x2="-359.6489" y2="972.512" gradientTransform="matrix(-1 0 0 1 1155.7772 0)">
				<stop  offset="0" style="stop-color:#09005D"/>
				<stop  offset="1" style="stop-color:#1A0F91"/>
			</linearGradient>
			<path style="fill:url(#SVGID_00000158026798132257822560000002909411683294712248_);" d="M590.88,2789.274
				c0,25.142,20.591,45.713,45.757,45.713h2474.342c25.166,0,45.757-20.571,45.757-45.713l20.589-1421.936
				c0-25.142-29.621-74.225-83.908-70.537l-2418.2-62.571c-31.576-0.817-62.107,11.336-84.467,33.624
				c-22.36,22.288-34.596,52.761-33.849,84.308L590.88,2789.274z"/>
			
				<linearGradient id="SVGID_00000000202109358926937540000015701324326480813975_" gradientUnits="userSpaceOnUse" x1="2093.4971" y1="1295.0284" x2="1342.4856" y2="3618.915">
				<stop  offset="0" style="stop-color:#FE7062"/>
				<stop  offset="1" style="stop-color:#FF928E"/>
			</linearGradient>
			<path style="fill:url(#SVGID_00000000202109358926937540000015701324326480813975_);" d="M636.054,2745.418
				c0,23.808,19.48,43.289,43.289,43.289h2371.966c23.809,0,43.289-19.481,43.289-43.289l19.429-1290.847
				c-2.288-77.68-70.392-105.599-111.675-103.951l-2317.625-62.178c-22.184-0.595-43.632,7.952-59.344,23.624
				c-15.712,15.672-24.353,37.119-23.797,59.304L636.054,2745.418z"/>
			<g>
				<path style="fill:#FFFFFF;" d="M3068.967,2132.176c-0.032,0-0.063,0-0.095,0c-3.505-0.051-6.304-2.932-6.25-6.44l1.536-104.685
					c0.051-3.47,2.881-6.25,6.339-6.25c0.032,0,0.063,0,0.095,0c3.505,0.051,6.304,2.932,6.25,6.44l-1.536,104.685
					C3075.254,2129.396,3072.424,2132.176,3068.967,2132.176z"/>
				<path style="fill:#FFFFFF;" d="M3072.734,1875.642c-0.032,0-0.063,0-0.095,0c-3.505-0.051-6.304-2.938-6.25-6.44l5.886-400.948
					c-0.111-23.816-7.339-42.832-21.489-56.389c-26.412-25.304-68.344-24.012-70.111-23.93l-740.764-19.864
					c-3.502-0.089-6.266-3.008-6.171-6.51c0.092-3.502,2.783-6.484,6.513-6.168l740.324,19.864
					c4.607-0.272,49.252-1.045,78.986,27.444c16.727,16.027,25.272,38.108,25.399,65.615l-5.889,401.074
					C3079.022,1872.862,3076.192,1875.642,3072.734,1875.642z"/>
			</g>
			
				<linearGradient id="SVGID_00000111883707793390687140000009862045583834146469_" gradientUnits="userSpaceOnUse" x1="1859.668" y1="1686.8076" x2="1859.668" y2="2113.1873">
				<stop  offset="0" style="stop-color:#09005D"/>
				<stop  offset="1" style="stop-color:#1A0F91"/>
			</linearGradient>
			<path style="fill:url(#SVGID_00000111883707793390687140000009862045583834146469_);" d="M465.215,2953.025h2788.906
				c3.11,0,5.654-2.544,5.654-5.654v-113.629c0-3.109-2.544-5.654-5.654-5.654H465.215c-3.11,0-5.654,2.544-5.654,5.654v113.629
				C459.561,2950.481,462.105,2953.025,465.215,2953.025z"/>
			<path style="opacity:0.41;fill:#FFFFFF;" d="M1807.359,2748.993H755.404c-8.836,0-15.999-7.163-15.999-15.999v-536.546
				c0-8.836,7.163-15.999,15.999-15.999h1051.955c8.836,0,15.999,7.163,15.999,15.999v536.546
				C1823.358,2741.83,1816.195,2748.993,1807.359,2748.993z"/>
			<path style="opacity:0.41;fill:#FFFFFF;" d="M2960.389,1860.307H1927.916c-8.836,0-15.999-7.163-15.999-15.999v-359.87
				c0-8.836,7.163-15.999,15.999-15.999h1032.473c8.836,0,15.999,7.163,15.999,15.999v359.87
				C2976.388,1853.144,2969.225,1860.307,2960.389,1860.307z"/>
			<path style="opacity:0.41;fill:#FFFFFF;" d="M2974.559,2301.723H1942.085c-8.836,0-15.999-7.163-15.999-16v-359.87
				c0-8.836,7.163-15.999,15.999-15.999h1032.473c8.836,0,15.999,7.163,15.999,15.999v359.87
				C2990.558,2294.56,2983.395,2301.723,2974.559,2301.723z"/>
			<path style="opacity:0.41;fill:#FFFFFF;" d="M2990.499,2740.135H1958.026c-8.836,0-15.999-7.163-15.999-16v-359.87
				c0-8.836,7.163-16,15.999-16h1032.473c8.836,0,15.999,7.163,15.999,16v359.87
				C3006.498,2732.971,2999.335,2740.135,2990.499,2740.135z"/>
			<path style="opacity:0.41;fill:#FFFFFF;" d="M1775.536,2093.659H804.938c-31.302,0-56.678-25.375-56.678-56.678l-23.544-557.23
				c-1.633-38.64,29.885-70.538,68.542-69.368l982.278,29.716c31.302,0,56.678,25.375,56.678,56.678v540.205
				C1832.214,2068.284,1806.838,2093.659,1775.536,2093.659z"/>
		</g>
		<g>
			
				<linearGradient id="SVGID_00000072984549675380947670000016257452019848352653_" gradientUnits="userSpaceOnUse" x1="693.296" y1="2703.6045" x2="1194.8723" y2="2030.7593">
				<stop  offset="0" style="stop-color:#09005D"/>
				<stop  offset="1" style="stop-color:#1A0F91"/>
			</linearGradient>
			<path style="fill:url(#SVGID_00000072984549675380947670000016257452019848352653_);" d="M740.688,1872.742
				c0,0,229.542,605.377,302.063,731.312c84.182,146.186,330.038,53.033,317.804-69.309
				c-12.234-122.342-299.479-628.023-299.479-628.023L740.688,1872.742z"/>
			
				<linearGradient id="SVGID_00000101075693423762733490000017907315477298293143_" gradientUnits="userSpaceOnUse" x1="1538.0051" y1="1076.4514" x2="2450.9858" y2="2702.4924">
				<stop  offset="0" style="stop-color:#4F52FF"/>
				<stop  offset="1" style="stop-color:#4042E2"/>
			</linearGradient>
			<polygon style="fill:url(#SVGID_00000101075693423762733490000017907315477298293143_);" points="1050.842,1431.755 
				2477.53,937.1 2462.548,2275.716 1011.853,1952.03 			"/>
			<ellipse style="fill:#91B3FA;" cx="2478.875" cy="1610.292" rx="140.167" ry="687.925"/>
			
				<linearGradient id="SVGID_00000005254642985719055740000015631436797904640426_" gradientUnits="userSpaceOnUse" x1="2323.9241" y1="1621.4615" x2="2692.873" y2="1587.9207">
				<stop  offset="0" style="stop-color:#4F52FF"/>
				<stop  offset="1" style="stop-color:#4042E2"/>
			</linearGradient>
			<path style="fill:url(#SVGID_00000005254642985719055740000015631436797904640426_);" d="M2489.514,2251.172
				c-12.668-12.885-40.267-62.588-63.927-191.117c-22.868-124.21-35.46-285.318-35.46-453.645
				c0-168.328,12.592-329.436,35.46-453.646c23.66-128.531,51.259-178.234,63.927-191.12c12.668,12.886,40.267,62.589,63.927,191.12
				c22.868,124.21,35.46,285.318,35.46,453.646c0,168.328-12.593,329.436-35.46,453.645
				C2529.781,2188.584,2502.182,2238.287,2489.514,2251.172z"/>
			<g>
				<defs>
					<path id="SVGID_00000120549724580231256250000006649223121207543741_" d="M2489.514,2251.172
						c-12.668-12.885-40.267-62.588-63.927-191.117c-22.868-124.21-35.46-285.318-35.46-453.645
						c0-168.328,12.592-329.436,35.46-453.646c23.66-128.531,51.259-178.234,63.927-191.12
						c12.668,12.886,40.267,62.589,63.927,191.12c22.868,124.21,203.312,285.318,203.312,453.646
						c0,168.328-180.444,329.436-203.312,453.645C2529.781,2188.584,2502.182,2238.287,2489.514,2251.172z"/>
				</defs>
				<clipPath id="SVGID_00000173853930225831335890000013850332525219929001_">
					<use xlink:href="#SVGID_00000120549724580231256250000006649223121207543741_"  style="overflow:visible;"/>
				</clipPath>
				
					<linearGradient id="SVGID_00000082368305044216088690000006399933861594953900_" gradientUnits="userSpaceOnUse" x1="2789.4126" y1="1583.6184" x2="1794.3638" y2="1640.712">
					<stop  offset="0" style="stop-color:#09005D"/>
					<stop  offset="1" style="stop-color:#1A0F91"/>
				</linearGradient>
				
					<path style="clip-path:url(#SVGID_00000173853930225831335890000013850332525219929001_);fill:url(#SVGID_00000082368305044216088690000006399933861594953900_);" d="
					M2669.169,1601.286c0,116.886-62.966,211.641-187.591,211.641c-124.625,0-225.653-94.755-225.653-211.641
					c0-116.885,101.029-211.641,225.653-211.641C2606.203,1389.645,2669.169,1484.4,2669.169,1601.286z"/>
			</g>
			
				<linearGradient id="SVGID_00000131369937881388659410000004350915394762658494_" gradientUnits="userSpaceOnUse" x1="904.5185" y1="1937.1494" x2="867.817" y2="1013.5135">
				<stop  offset="0" style="stop-color:#09005D"/>
				<stop  offset="1" style="stop-color:#1A0F91"/>
			</linearGradient>
			<path style="fill:url(#SVGID_00000131369937881388659410000004350915394762658494_);" d="M820.739,1402.981
				c67.114-7.794,163.353-10.599,267.41,13.232c-34.283,179.084-29.109,365.743,10.54,559.022l-293.493,0
				c-46.793,0-86.693-33.989-93.991-80.209c-14.627-92.646-32.509-248.363-13.442-373.427
				C707.332,1458.834,757.673,1410.305,820.739,1402.981z"/>
			<path style="fill:#BDD0FB;" d="M996.879,1540.137H768.212c-7.761,0-14.61-4.069-18.319-10.887
				c-3.708-6.818-3.405-14.78,0.812-21.296c1.765-2.726,5.405-3.491,8.131-1.742c2.726,1.765,3.506,5.405,1.742,8.135
				c-1.837,2.84-1.969,6.308-0.354,9.283c1.617,2.97,4.605,4.747,7.989,4.747h228.667c5.015,0,9.094-4.077,9.094-9.092v-16.273
				c0-5.015-4.079-9.092-9.094-9.092H766.516c-3.248,0-5.88-2.634-5.88-5.88c0-3.246,2.631-5.88,5.88-5.88h230.362
				c11.5,0,20.853,9.356,20.853,20.852v16.273C1017.732,1530.781,1008.378,1540.137,996.879,1540.137z"/>
			<path style="fill:#BDD0FB;" d="M976.488,1641.409H747.822c-7.761,0-14.61-4.069-18.319-10.887
				c-3.708-6.818-3.405-14.78,0.811-21.296c1.765-2.722,5.407-3.491,8.131-1.742c2.726,1.765,3.507,5.405,1.742,8.135
				c-1.838,2.84-1.97,6.309-0.354,9.283c1.617,2.971,4.605,4.747,7.989,4.747h228.667c5.015,0,9.094-4.077,9.094-9.091v-16.269
				c0-5.015-4.079-9.096-9.094-9.096H746.126c-3.248,0-5.88-2.634-5.88-5.88s2.632-5.88,5.88-5.88h230.362
				c11.5,0,20.853,9.356,20.853,20.855v16.269C997.342,1632.053,987.988,1641.409,976.488,1641.409z"/>
			<path style="fill:#BDD0FB;" d="M1258.149,1395.524c-2.492,0-4.804-1.597-5.6-4.096c-0.985-3.097,0.726-6.4,3.818-7.388
				l1080.558-343.854c3.093-0.984,6.401,0.728,7.386,3.82c0.985,3.097-0.726,6.401-3.819,7.388l-1080.558,343.854
				C1259.341,1395.436,1258.74,1395.524,1258.149,1395.524z"/>
			<path style="fill:#BDD0FB;" d="M1112.027,1455.257c-2.318,0-4.513-1.378-5.446-3.656c-1.229-3.005,0.213-6.439,3.219-7.667
				l55.612-22.731c3.003-1.237,6.439,0.214,7.668,3.219c1.229,3.005-0.212,6.439-3.219,7.668l-55.612,22.731
				C1113.522,1455.119,1112.768,1455.257,1112.027,1455.257z"/>
			<path style="fill:#BDD0FB;" d="M996.879,1760.014H768.212c-7.761,0-14.608-4.069-18.318-10.887
				c-3.709-6.818-3.407-14.78,0.81-21.296c1.765-2.729,5.405-3.499,8.131-1.746c2.726,1.765,3.506,5.405,1.742,8.131
				c-1.839,2.844-1.971,6.316-0.352,9.291c1.617,2.97,4.603,4.747,7.987,4.747h228.667c5.015,0,9.094-4.081,9.094-9.095v-16.269
				c0-5.015-4.079-9.092-9.094-9.092H766.516c-3.248,0-5.88-2.634-5.88-5.88c0-3.246,2.631-5.88,5.88-5.88h230.362
				c11.5,0,20.853,9.356,20.853,20.852v16.269C1017.732,1750.658,1008.378,1760.014,996.879,1760.014z"/>
			<path style="fill:#BDD0FB;" d="M1018.289,1891.662H789.623c-7.761,0-14.608-4.069-18.318-10.887
				c-3.709-6.818-3.407-14.78,0.81-21.296c1.767-2.729,5.407-3.499,8.131-1.746c2.726,1.765,3.506,5.405,1.742,8.131
				c-1.839,2.844-1.971,6.316-0.352,9.291c1.617,2.97,4.603,4.747,7.987,4.747h228.667c5.015,0,9.093-4.077,9.093-9.092v-16.273
				c0-5.014-4.079-9.091-9.093-9.091H787.927c-3.248,0-5.88-2.634-5.88-5.88s2.632-5.88,5.88-5.88h230.362
				c11.5,0,20.853,9.356,20.853,20.851v16.273C1039.142,1882.306,1029.789,1891.662,1018.289,1891.662z"/>
			<path style="fill:#BDD0FB;" d="M1222.517,2607.428c-10.537,0-21.187-1.137-31.811-3.453
				c-46.49-10.129-84.339-40.784-103.839-84.107L904.176,2114c-1.334-2.959-0.013-6.439,2.948-7.775
				c2.961-1.336,6.442-0.008,7.775,2.951l182.691,405.868c17.955,39.885,52.808,68.113,95.62,77.438
				c42.076,9.176,84.652-1.715,116.82-29.867c1.724-1.508,3.457-3.059,5.197-4.647c2.396-2.19,6.115-2.025,8.307,0.375
				c2.19,2.396,2.023,6.117-0.375,8.307c-1.805,1.65-3.599,3.254-5.386,4.816C1290.9,2594.979,1257.353,2607.428,1222.517,2607.428z
				"/>
			<path style="fill:#BDD0FB;" d="M882.528,2057.456c-2.243,0-4.385-1.29-5.365-3.464l-20.381-45.279
				c-1.334-2.959-0.013-6.439,2.948-7.775c2.959-1.332,6.443-0.007,7.775,2.948l20.381,45.275c1.334,2.963,0.013,6.442-2.948,7.779
				C884.155,2057.291,883.334,2057.456,882.528,2057.456z"/>
			<path style="fill:#BDD0FB;" d="M2635.763,1595.192c-3.059,0-5.639-2.366-5.859-5.463c-4.063-57.272-23.914-99.97-59-126.908
				c-60.676-46.584-147.253-30.575-148.122-30.402c-3.206,0.609-6.27-1.47-6.885-4.659c-0.616-3.189,1.472-6.274,4.661-6.887
				c3.751-0.724,92.681-17.146,157.508,32.619c37.869,29.074,59.257,74.632,63.567,135.403c0.229,3.239-2.209,6.052-5.449,6.282
				C2636.042,1595.188,2635.903,1595.192,2635.763,1595.192z"/>
		</g>
		<g>
			<g>
				
					<ellipse transform="matrix(0.7071 -0.7071 0.7071 0.7071 -295.2155 2642.8455)" style="fill:#91B3FA;" cx="3042.589" cy="1677.779" rx="217.778" ry="217.778"/>
				<g>
					<path style="fill:#FFFFFF;" d="M2988.449,1605.743c0-5.613-4.55-10.163-10.163-10.163h-35.579
						c-5.613,0-10.163,4.55-10.163,10.163v162.298c0,5.613,4.55,10.163,10.163,10.163h35.579c5.613,0,10.163-4.55,10.163-10.163
						V1605.743z"/>
					<path style="fill:#FFFFFF;" d="M3114.629,1595.579h-36.73v-43.692c0-14.094-7.438-23.395-21.532-23.395h-0.903
						c-14.096,0-25.522,10.363-25.522,24.457l-12.163,43.497c-5.613,0-14.421,4.018-14.421,9.632v166.712
						c0,5.614,13.065,12.867,18.678,12.867h7.905h84.688c21.084,0,37.81-19.797,37.81-40.88v-110.686
						C3152.439,1613.008,3135.713,1595.579,3114.629,1595.579z"/>
				</g>
			</g>
			<g>
				
					<ellipse transform="matrix(0.7071 -0.7071 0.7071 0.7071 -776.3712 2836.0898)" style="fill:#91B3FA;" cx="3035.278" cy="2355.208" rx="189.414" ry="189.414"/>
				<path style="fill:#FFFFFF;" d="M3116.504,2302.464c-20.552-20.201-52.606-14.124-74.674,4.402
					c-3.163,2.656-7.747,2.686-10.954,0.085c-22.363-18.136-54.381-23.657-74.581-3.109c-21.929,22.312-21.621,58.175,0.691,80.105
					l74.653,73.379c3.392,3.333,8.844,3.285,12.177-0.105l73.378-74.653C3139.124,2360.258,3138.815,2324.395,3116.504,2302.464z"/>
			</g>
			<g>
				
					<ellipse transform="matrix(0.7071 -0.7071 0.7071 0.7071 147.6289 2317.2036)" style="fill:#7D97F4;" cx="2870.927" cy="980.398" rx="199.635" ry="199.635"/>
				<g>
					<path style="fill:#FFFFFF;" d="M2927.155,915.216c0,30.89-25.042,64.238-55.931,64.238c-30.89,0-55.931-33.348-55.931-64.238
						s25.041-52.805,55.931-52.805C2902.114,862.411,2927.155,884.326,2927.155,915.216z"/>
					<path style="fill:#FFFFFF;" d="M2801.812,1098.384h136.538c14.373,0,27.098-9.289,31.478-22.979l7.348-22.964
						c5.379-16.814-3.366-35.018-19.946-41.08c-55.566-20.317-113.023-17.71-171.882,1.875
						c-16.489,5.486-25.639,23.123-21.089,39.895l5.657,20.855C2773.822,1088.387,2786.892,1098.384,2801.812,1098.384z"/>
				</g>
			</g>
			<g>
				
					<ellipse transform="matrix(0.7071 -0.7071 0.7071 0.7071 -675.2338 2483.7029)" style="fill:#7D97F4;" cx="2660.478" cy="2056.931" rx="175.666" ry="175.666"/>
				<g>
					<path style="fill:#FFFFFF;" d="M2660.478,2167.093c-60.744,0-110.163-49.419-110.163-110.162
						c0-60.743,49.419-110.162,110.163-110.162c60.744,0,110.162,49.419,110.162,110.162
						C2770.64,2117.674,2721.221,2167.093,2660.478,2167.093z M2660.478,1965.229c-50.565,0-91.702,41.137-91.702,91.702
						c0,50.564,41.137,91.702,91.702,91.702c50.564,0,91.701-41.137,91.701-91.702
						C2752.179,2006.366,2711.042,1965.229,2660.478,1965.229z"/>
					<path style="fill-rule:evenodd;clip-rule:evenodd;fill:#FFFFFF;" d="M2625.968,2099.355v-79.198
						c0-8.463,9.212-13.708,16.49-9.389l66.735,39.599c7.129,4.23,7.129,14.549,0,18.779l-66.735,39.599
						C2635.179,2113.063,2625.968,2107.817,2625.968,2099.355z"/>
				</g>
			</g>
		</g>
		<g>
			
				<linearGradient id="SVGID_00000000916874668144399610000015242163121954461359_" gradientUnits="userSpaceOnUse" x1="14801.4453" y1="3036.7451" x2="14235.6357" y2="3652.1877" gradientTransform="matrix(1 0.0095 -0.0095 1 -13231.4072 -63.4747)">
				<stop  offset="0" style="stop-color:#09005D"/>
				<stop  offset="1" style="stop-color:#1A0F91"/>
			</linearGradient>
			<path style="fill:url(#SVGID_00000000916874668144399610000015242163121954461359_);" d="M1361.9,3158.024
				c0,0-6.176,33.118-9.362,65.93c-1.246,12.823,8.542,24.06,21.409,24.72c43.713,2.238,137.223,6.673,170.804,5.494
				c5.048-0.177,8.396-5.311,6.574-10.022c-1.527-3.947-4.515-7.156-8.345-8.96l-153.837-72.489L1361.9,3158.024z"/>
			
				<linearGradient id="SVGID_00000005972599911073488270000005594125310536347794_" gradientUnits="userSpaceOnUse" x1="14617.792" y1="3082.4492" x2="14668.0498" y2="3082.4492" gradientTransform="matrix(1 0.0095 -0.0095 1 -13231.4072 -63.4747)">
				<stop  offset="0" style="stop-color:#FEBBBA"/>
				<stop  offset="1" style="stop-color:#FF928E"/>
			</linearGradient>
			<path style="fill:url(#SVGID_00000005972599911073488270000005594125310536347794_);" d="M1357.285,3138.487l4.329,39.725
				c0,0,26.947,12.859,45.567-1.153l-10.787-44.327L1357.285,3138.487z"/>
			
				<linearGradient id="SVGID_00000155136294744028726660000002198463044106802070_" gradientUnits="userSpaceOnUse" x1="14846.0273" y1="2340.6987" x2="14364.5449" y2="2993.2861" gradientTransform="matrix(1 0.0095 -0.0095 1 -13231.4072 -63.4747)">
				<stop  offset="0" style="stop-color:#4F52FF"/>
				<stop  offset="1" style="stop-color:#4042E2"/>
			</linearGradient>
			<path style="fill:url(#SVGID_00000155136294744028726660000002198463044106802070_);" d="M1367.94,2392.518
				c-2.132,10.343-15.849,516.998,36.151,744.603c0.849,3.714-1.066,7.515-4.606,8.923c-8.34,3.315-24.675,8.075-44.2,8.544
				c-6.046,0.146-11.429-3.835-13.079-9.653c-14.98-52.836-86.656-317.524-93.928-569.789c-8.127-281.883,0.092-9.594,0.092-9.594
				l8.004-174.118L1367.94,2392.518z"/>
			
				<linearGradient id="SVGID_00000109008685088197033590000012643125088288004227_" gradientUnits="userSpaceOnUse" x1="14674.5146" y1="2920.0313" x2="14108.6826" y2="3535.4993" gradientTransform="matrix(1 0.0095 -0.0095 1 -13231.4072 -63.4747)">
				<stop  offset="0" style="stop-color:#09005D"/>
				<stop  offset="1" style="stop-color:#1A0F91"/>
			</linearGradient>
			<path style="fill:url(#SVGID_00000109008685088197033590000012643125088288004227_);" d="M1183.99,3173.635
				c0,0-9.488,16.658-18.943,61.074c-1.708,8.021,3.835,15.766,11.988,16.647c14.427,1.558,36.639,3.596,54.448,3.643
				c8.208,0.021,14.683-7.065,13.772-15.223c-1.817-16.262-7.708-42.972-26.493-63.924L1183.99,3173.635z"/>
			
				<linearGradient id="SVGID_00000086683215430843299120000007007105686324237486_" gradientUnits="userSpaceOnUse" x1="14436.6563" y1="3079.8645" x2="14480.0488" y2="3079.8645" gradientTransform="matrix(1 0.0095 -0.0095 1 -13231.4072 -63.4747)">
				<stop  offset="0" style="stop-color:#FEBBBA"/>
				<stop  offset="1" style="stop-color:#FF928E"/>
			</linearGradient>
			<path style="fill:url(#SVGID_00000086683215430843299120000007007105686324237486_);" d="M1176.285,3122.52l10.428,60.112
				c0,0,10.8,8.194,32.373,2.534l-4.635-64.614L1176.285,3122.52z"/>
			
				<linearGradient id="SVGID_00000047742370365752400430000016962712149755579537_" gradientUnits="userSpaceOnUse" x1="14760.2148" y1="2277.3865" x2="14278.7373" y2="2929.9668" gradientTransform="matrix(1 0.0095 -0.0095 1 -13231.4072 -63.4747)">
				<stop  offset="0" style="stop-color:#4F52FF"/>
				<stop  offset="1" style="stop-color:#4042E2"/>
			</linearGradient>
			<path style="fill:url(#SVGID_00000047742370365752400430000016962712149755579537_);" d="M1153.399,2406.023
				c-46.851,266.938,3.305,660.895,20.753,738.074c1.068,4.726,4.839,8.374,9.61,9.212c8.103,1.422,21.454,2.648,34.664-1.053
				c4.551-1.274,7.779-5.337,8.009-10.059c3.033-62.233,2.29-444.474,45.009-595.127c2.165-7.635,6.903-14.267,13.415-18.803
				l80.662-56.192l7.021-92.009L1153.399,2406.023z"/>
			<g>
				<path style="fill:#7D97F4;" d="M1440.52,1902.12c-132.741-3.46-279.582,32.195-279.582,32.195
					c-41.777,230.532-11.664,497.184-11.664,497.184c102.524,27.934,218.881-14.393,218.881-14.393
					c18.004-96.352,100.3-367.218,100.3-367.218c64.943-7.431,118.558-25.637,162.8-49.959
					c-33.195-39.229-48.547-88.889-55.14-118.221C1529.035,1895.849,1481.462,1903.188,1440.52,1902.12z"/>
				
					<linearGradient id="SVGID_00000152246101572505021300000007524650556039643315_" gradientUnits="userSpaceOnUse" x1="14824.6631" y1="1771.2419" x2="15081.4385" y2="1771.2419" gradientTransform="matrix(1 0.0095 -0.0095 1 -13231.4072 -63.4747)">
					<stop  offset="0" style="stop-color:#FEBBBA"/>
					<stop  offset="1" style="stop-color:#FF928E"/>
				</linearGradient>
				<path style="fill:url(#SVGID_00000152246101572505021300000007524650556039643315_);" d="M1834.541,1710.311
					c-12.891-15.877-29.469-8.583-29.469-8.583c-20.324,82.34-123.403,148.277-228.958,179.981
					c6.593,29.331,21.945,78.992,55.14,118.221C1806.852,1903.391,1834.541,1710.311,1834.541,1710.311z"/>
			</g>
			<g>
				
					<linearGradient id="SVGID_00000169548755277398912780000012602210062883035064_" gradientUnits="userSpaceOnUse" x1="-4577.5054" y1="1727.2742" x2="-4405.2065" y2="2119.2927" gradientTransform="matrix(-1 -0.0095 -0.0095 1 -2784.6816 36.7017)">
					<stop  offset="0" style="stop-color:#FEBBBA"/>
					<stop  offset="1" style="stop-color:#FF928E"/>
				</linearGradient>
				<path style="fill:url(#SVGID_00000169548755277398912780000012602210062883035064_);" d="M1831.337,1714.285
					c1.323,4.351-14.543,10.807-23.678-7.025c-0.243-8.507-5.068-44.987,0.08-51.866c27.415-36.637,80.325-82.388,80.325-82.388
					c8.784,8.835,1.397,17.361,1.397,17.361l-25.707,26.273c5.233,9.671,11.65,17.854,14.582,29.521
					c2.221,8.834,0.721,18.239-3.807,26.217c-4.545,8.007-10.74,18.412-16.581,26.546
					C1846.892,1714.317,1831.337,1714.285,1831.337,1714.285z"/>
				
					<linearGradient id="SVGID_00000164485829901587568860000009990731132215452852_" gradientUnits="userSpaceOnUse" x1="15080.207" y1="1597.6503" x2="15152.1016" y2="1487.1127" gradientTransform="matrix(1 0.0095 -0.0095 1 -13231.4072 -63.4747)">
					<stop  offset="0" style="stop-color:#FEBBBA"/>
					<stop  offset="1" style="stop-color:#FF928E"/>
				</linearGradient>
				<path style="fill:url(#SVGID_00000164485829901587568860000009990731132215452852_);" d="M1852.457,1633.738l-23.383,19.442
					l-7.469,19.507l20.462,23.14c0,0,7.324-38.778,12.572-47.136C1859.887,1640.333,1857.246,1636.242,1852.457,1633.738z"/>
			</g>
			<path style="fill:#7D97F4;" d="M1210.633,2063.354l-49.695-129.038c0,0-124.812,83.074-146.224,189.709
				c23.415,1.949,65.994,8.45,107.527,29.922C1131.892,2103.59,1210.633,2063.354,1210.633,2063.354z"/>
			
				<linearGradient id="SVGID_00000176736799484927404660000006888806360562117532_" gradientUnits="userSpaceOnUse" x1="14262.7871" y1="2134.9226" x2="14587.7285" y2="2134.9226" gradientTransform="matrix(1 0.0095 -0.0095 1 -13231.4072 -63.4747)">
				<stop  offset="0" style="stop-color:#FEBBBA"/>
				<stop  offset="1" style="stop-color:#FF928E"/>
			</linearGradient>
			<path style="fill:url(#SVGID_00000176736799484927404660000006888806360562117532_);" d="M1317.848,2185.352
				c0,0-139.98,77.357-186.317,9.72c-9.62-14.044-11.82-27.931-9.291-41.127c-41.533-21.471-84.112-27.972-107.527-29.922
				c-6.456,32.147-3.532,66.431,15.062,101.23c80.854,151.316,306.17-5.399,306.17-5.399L1317.848,2185.352z"/>
			
				<linearGradient id="SVGID_00000110433765111525364390000012224276316706651301_" gradientUnits="userSpaceOnUse" x1="14512.3076" y1="1787.5469" x2="14640.7842" y2="1787.5469" gradientTransform="matrix(1 0.0095 -0.0095 1 -13231.4072 -63.4747)">
				<stop  offset="0" style="stop-color:#FEBBBA"/>
				<stop  offset="1" style="stop-color:#FF928E"/>
			</linearGradient>
			<path style="fill:url(#SVGID_00000110433765111525364390000012224276316706651301_);" d="M1307.071,1793.055l-43.409,121.761
				c-0.719,2.017,0.091,4.266,1.956,5.32c11.454,6.476,52.764,25.274,103.062-5.946c5.24-3.252,8.837-8.604,9.686-14.712
				l14.688-105.602L1307.071,1793.055z"/>
			<g>
				
					<linearGradient id="SVGID_00000002386389942095047160000010460581050225249438_" gradientUnits="userSpaceOnUse" x1="5450.5493" y1="8229.0313" x2="5402.5396" y2="8070.6831" gradientTransform="matrix(0.7523 -0.6588 0.6588 0.7523 -8098.0044 -818.1582)">
					<stop  offset="0" style="stop-color:#FEBBBA"/>
					<stop  offset="1" style="stop-color:#FF928E"/>
				</linearGradient>
				<path style="fill:url(#SVGID_00000002386389942095047160000010460581050225249438_);" d="M1400.064,1680.805
					c0,0,45.555,87.761,39.272,122.977c-6.282,35.215-63.748,32.134-113.676,3.009l-34.18-94.619L1400.064,1680.805z"/>
				
					<linearGradient id="SVGID_00000147189151549803069160000004378587170862922393_" gradientUnits="userSpaceOnUse" x1="5407.2383" y1="7953.1333" x2="5447.3979" y2="8182.1904" gradientTransform="matrix(0.7523 -0.6588 0.6588 0.7523 -8098.0044 -818.1582)">
					<stop  offset="0" style="stop-color:#09005D"/>
					<stop  offset="1" style="stop-color:#1A0F91"/>
				</linearGradient>
				<path style="fill:url(#SVGID_00000147189151549803069160000004378587170862922393_);" d="M1328.321,1760.509
					c2.049-0.884,2.825-3.374,1.622-5.253c-3.663-5.713-10.518-17.362-12.645-27.524c0,0-8.288-5.42,21.343-12.214
					c29.631-6.794,73.823-17.357,83.329-42.432c9.269-24.449-13.881-86.374-52.222-37.574c-1.458,1.857-4.281,1.871-5.703-0.015
					c-6.13-8.139-22.293-25.068-45.052-15.116c-21.297,9.313-23.835,24.83-23.618,32.666c0.064,2.304-2.014,4.076-4.274,3.623
					c-10.702-2.147-36.415-4.149-48.677,22.131c-10.099,21.646-3.787,34.015,2.011,40.089c1.879,1.968,1.016,5.172-1.593,5.943
					c-7.068,2.09-16.223,7.979-15.47,24.497c1.042,22.836,26.579,21.068,33.854,20.097c1.192-0.158,2.388,0.261,3.185,1.161
					c6.164,6.953,33.951,36.492,64.295,40.31c2.628,0.331,4.691-2.247,3.854-4.76l-12.782-38.34
					c-0.594-1.78,0.274-3.719,1.997-4.463L1328.321,1760.509z"/>
				
					<linearGradient id="SVGID_00000096047010887780540550000003749799541697696410_" gradientUnits="userSpaceOnUse" x1="5401.4727" y1="8228.292" x2="5358.2773" y2="8085.8237" gradientTransform="matrix(0.7523 -0.6588 0.6588 0.7523 -8098.0044 -818.1582)">
					<stop  offset="0" style="stop-color:#FEBBBA"/>
					<stop  offset="1" style="stop-color:#FF928E"/>
				</linearGradient>
				<path style="fill:url(#SVGID_00000096047010887780540550000003749799541697696410_);" d="M1333.553,1765.983
					c0,0-32.812-22.975-35.407-3.915c-2.594,19.059,29.478,27.925,45.473,20.962L1333.553,1765.983z"/>
			</g>
			<g>
				<g>
					
						<linearGradient id="SVGID_00000130622517150778286020000000825415794204523430_" gradientUnits="userSpaceOnUse" x1="14386.2891" y1="2000.476" x2="14565.5908" y2="2747.5698" gradientTransform="matrix(1 0 0 1 -12963.1191 0)">
						<stop  offset="0" style="stop-color:#09005D"/>
						<stop  offset="1" style="stop-color:#1A0F91"/>
					</linearGradient>
					<path style="fill:url(#SVGID_00000130622517150778286020000000825415794204523430_);" d="M1289.24,2307.606l76.253-266.291
						c0.866-3.023,3.445-5.227,6.568-5.592c13.815-1.612,53.848-6.138,100.07-10.047c55.675-4.71,120.331-8.525,158.967-5.279
						c5.493,0.461,8.812,6.271,6.369,11.212c-21.97,44.45-112.345,225.261-157.601,284.493c-1.499,1.962-3.818,3.11-6.288,3.086
						l-176.919-1.646C1291.51,2317.494,1287.823,2312.555,1289.24,2307.606z"/>
					
						<linearGradient id="SVGID_00000063598842477318024530000015370465195575913119_" gradientUnits="userSpaceOnUse" x1="14263.4258" y1="2198.1218" x2="14365.0146" y2="2198.1218" gradientTransform="matrix(1 0 0 1 -12963.1191 0)">
						<stop  offset="0" style="stop-color:#FEBBBA"/>
						<stop  offset="1" style="stop-color:#FF928E"/>
					</linearGradient>
					<path style="fill:url(#SVGID_00000063598842477318024530000015370465195575913119_);" d="M1307.663,2243.27
						c0,0-10.622-43.678-6.338-59.174c4.285-15.496,12.587-35.42,40.257-30.992c27.672,4.427,60.313,16.084,60.313,16.084
						s-1.649,20.184-22.68,13.672l13.042,10.091c0,0-1.864,16.161-19.628,7.527l12.13,13.382c0,0-7.629,13.273-20.699,4.76
						C1350.991,2210.108,1344.726,2248.529,1307.663,2243.27z"/>
				</g>
				<path style="fill:#91B3FA;" d="M1467.046,2105.169c0,12.362,10.021,22.383,22.384,22.383c12.362,0,22.383-10.021,22.383-22.383
					c0-12.363-10.021-22.384-22.383-22.384C1477.068,2082.785,1467.046,2092.806,1467.046,2105.169z"/>
				
					<linearGradient id="SVGID_00000137821052974627516010000001249310381535004592_" gradientUnits="userSpaceOnUse" x1="1368.4111" y1="2078.1169" x2="1586.3984" y2="2078.1169">
					<stop  offset="0" style="stop-color:#DAE3FE"/>
					<stop  offset="1" style="stop-color:#E9EFFD"/>
				</linearGradient>
				<path style="fill:url(#SVGID_00000137821052974627516010000001249310381535004592_);" d="M1374.121,2119.925l15.525-52.666
					c1.905-6.468,7.105-11.323,13.568-12.674c48.66-10.152,181.845-12.305,183.184-12.325l-0.088-5.95
					c-5.493,0.084-135.098,2.185-184.311,12.454c-8.613,1.796-15.533,8.24-18.063,16.812l-15.525,52.666L1374.121,2119.925z"/>
			</g>
		</g>
	</g>
</g>
</svg>
