<?xml version="1.0" encoding="utf-8"?>
<!-- Generator: Adobe Illustrator 27.5.0, SVG Export Plug-In . SVG Version: 6.00 Build 0)  -->
<svg version="1.1" xmlns="http://www.w3.org/2000/svg" xmlns:xlink="http://www.w3.org/1999/xlink" x="0px" y="0px"
	 viewBox="0 0 3710 3710" style="enable-background:new 0 0 3710 3710;" xml:space="preserve">
<g id="Background">
	<g>
		<g>
			<rect style="fill:#FFFFFF;" width="3710" height="3710"/>
		</g>
	</g>
</g>
<g id="Illustration">
	<g>
		<path style="fill:#F4F7FA;" d="M1143.962,630.112c-96.495,140.663,16.647,368.711-126.534,474.502
			c-139.376,102.979-310.596-65.817-441.948,22.826C380.625,1258.938,416.209,1860.646,701.097,2234.5
			c85.676,112.431,157.263,156.176,188.968,283.329c68.081,273.031-171.19,435.447-125.657,570.484
			c102.524,304.053,1679.264,559.19,2311.922-354.591c295.477-426.773,339.688-1043.037,75.687-1511.093
			C2674.975,376.858,1360.479,314.49,1143.962,630.112z"/>
		<g>
			
				<linearGradient id="SVGID_1_" gradientUnits="userSpaceOnUse" x1="995.6014" y1="868.0436" x2="3801.3928" y2="3346.7773" gradientTransform="matrix(0.9994 0.0332 -0.0332 0.9994 152.7976 4.0244)">
				<stop  offset="0" style="stop-color:#FF9085"/>
				<stop  offset="1" style="stop-color:#FB6FBB"/>
			</linearGradient>
			<path style="opacity:0.5;fill:url(#SVGID_1_);" d="M2968.842,1327.693l-2078.651-31.437
				c-169.09-2.558-312.968,146.146-319.151,332.171v0.001c-6.183,186.026,127.802,335.008,297.05,332.792l2080.601-27.25
				c138.787-1.818,254.446-137.415,259.946-302.887v0C3214.137,1465.612,3107.499,1329.791,2968.842,1327.693z"/>
			
				<linearGradient id="SVGID_00000145039152686885579160000012107316339341068678_" gradientUnits="userSpaceOnUse" x1="1255.8534" y1="1811.1848" x2="2731.4197" y2="3114.7512" gradientTransform="matrix(0.9994 0.0332 -0.0332 0.9994 152.7976 4.0244)">
				<stop  offset="0.0036" style="stop-color:#E38DDD"/>
				<stop  offset="1" style="stop-color:#9571F6"/>
			</linearGradient>
			<path style="opacity:0.5;fill:url(#SVGID_00000145039152686885579160000012107316339341068678_);" d="M2333.939,2053.119
				l-1128.005,27.192c-89.293,2.152-164.999,83.411-168.259,181.475v0.001c-3.259,98.064,67.212,174.319,156.565,170.357
				l1128.765-50.053c77.349-3.43,141.941-79.197,144.935-169.26l0,0C2470.933,2122.768,2411.236,2051.256,2333.939,2053.119z"/>
			<g>
				
					<linearGradient id="SVGID_00000088092451988255082880000000684427887342722470_" gradientUnits="userSpaceOnUse" x1="1705.7703" y1="568.1215" x2="3016.4351" y2="1112.0889" gradientTransform="matrix(0.9994 0.0332 -0.0332 0.9994 152.7976 4.0244)">
					<stop  offset="0" style="stop-color:#FF9085"/>
					<stop  offset="1" style="stop-color:#FB6FBB"/>
				</linearGradient>
				<path style="fill:url(#SVGID_00000088092451988255082880000000684427887342722470_);" d="M2583.878,585.019l-1049.138-51.563
					c-81.277-3.994-150.077,67.511-153.143,159.737l0,0c-3.065,92.226,60.797,169.283,142.114,172.094l1049.647,36.272
					c73.483,2.539,135.029-65.842,137.916-152.718v-0.001C2714.162,661.964,2657.325,588.628,2583.878,585.019z"/>
				
					<linearGradient id="SVGID_00000080897343658807608660000007070785602103200641_" gradientUnits="userSpaceOnUse" x1="1861.9469" y1="282.3577" x2="3106.5132" y2="798.8922" gradientTransform="matrix(0.9994 0.0332 -0.0332 0.9994 152.7976 4.0244)">
					<stop  offset="0" style="stop-color:#FF9085"/>
					<stop  offset="1" style="stop-color:#FB6FBB"/>
				</linearGradient>
				<path style="fill:url(#SVGID_00000080897343658807608660000007070785602103200641_);" d="M3030.791,761.428
					c-2.83,85.159-62.298,152.213-133.249,149.756c-71.426-2.474-127.355-74.362-124.491-160.552
					c2.865-86.19,63.411-153.2,134.802-149.692C2978.77,604.426,3033.621,676.27,3030.791,761.428z"/>
			</g>
			<g style="opacity:0.5;">
				
					<linearGradient id="SVGID_00000098222289597231028730000004299490161778681749_" gradientUnits="userSpaceOnUse" x1="2341.4092" y1="958.3038" x2="3295.3059" y2="1354.2012" gradientTransform="matrix(0.9994 0.0332 -0.0332 0.9994 152.7976 4.0244)">
					<stop  offset="0.0036" style="stop-color:#E38DDD"/>
					<stop  offset="1" style="stop-color:#9571F6"/>
				</linearGradient>
				<path style="fill:url(#SVGID_00000098222289597231028730000004299490161778681749_);" d="M3004.506,997.556l-768.328-23.849
					c-58.835-1.826-108.619,52.384-110.902,121.091v0.001c-2.284,68.707,43.816,125.341,102.673,126.489l768.622,15.003
					c54.435,1.062,100.121-51.27,102.301-116.881v-0.001C3101.052,1053.798,3058.919,999.246,3004.506,997.556z"/>
				
					<linearGradient id="SVGID_00000120518273761026857140000010729953972877926535_" gradientUnits="userSpaceOnUse" x1="2429.6191" y1="723.2655" x2="3354.4033" y2="1107.0802" gradientTransform="matrix(0.9993 0.038 -0.038 0.9993 174.7592 0.9276)">
					<stop  offset="0.0036" style="stop-color:#E38DDD"/>
					<stop  offset="1" style="stop-color:#9571F6"/>
				</linearGradient>
				<path style="fill:url(#SVGID_00000120518273761026857140000010729953972877926535_);" d="M3336.817,1125.293
					c-2.455,64.517-47.134,115.777-100.04,114.486c-53.18-1.297-94.486-55.148-92.007-120.272
					c2.479-65.124,47.782-116.365,100.94-114.459C3298.594,1006.945,3339.273,1060.776,3336.817,1125.293z"/>
			</g>
		</g>
		<g>
			<g>
				<path style="fill:#97A6B7;" d="M2678.94,2644.878V1426.954c0-24.974-20.718-27.842-45.94-28.856L540.72,1295.594
					c-31.84-1.28-57.97,20.721-57.97,48.897v1345.992L2678.94,2644.878z"/>
				<path style="fill:#97A6B7;" d="M482.75,2690.483v268.807c0,28.176,26.13,50.124,57.97,48.777l2082.941-106.406
					c25.222-1.066,55.279-4.423,55.279-29.397v-235.198L482.75,2690.483z"/>
				<path style="fill:#97A6B7;" d="M1938.618,3189.188c-37.706-12.507-65.889-44.507-73.836-83.84l-54.88-271.619l-469.461,16.671
					l-57.777,282.965c-8.092,39.629,24.299,79.387,61.604,93.983l196.412,76.849c36.532,14.293,75.8,19.987,114.829,16.647
					l415.09-35.51c12.134-1.038,21.868-10.576,23.279-22.813c1.413-12.236,9.914-25.977-1.657-29.815L1938.618,3189.188z"/>
				
					<linearGradient id="SVGID_00000155846324280633591710000015205070878199800727_" gradientUnits="userSpaceOnUse" x1="1691.0078" y1="2930.3459" x2="1698.1438" y2="3197.95">
					<stop  offset="0" style="stop-color:#444B8C"/>
					<stop  offset="0.9964" style="stop-color:#26264F"/>
				</linearGradient>
				<path style="fill:url(#SVGID_00000155846324280633591710000015205070878199800727_);" d="M1943.263,3172.668
					c-37.668-12.35-65.822-43.948-73.761-82.786l-54.825-268.204l-458.017,16.478l-57.719,279.409
					c-8.083,39.131,13.304,78.371,50.572,92.784l196.214,75.883c36.495,14.114,75.723,19.735,114.713,16.438l414.672-35.064
					c12.122-1.025,21.845-10.444,23.256-22.527c1.411-12.083-5.882-23.488-17.441-27.278L1943.263,3172.668z"/>
				
					<linearGradient id="SVGID_00000083782232368723238230000010702578360891710866_" gradientUnits="userSpaceOnUse" x1="1259.9229" y1="1881.2216" x2="2677.1792" y2="2570.7927">
					<stop  offset="0" style="stop-color:#444B8C"/>
					<stop  offset="0.6447" style="stop-color:#313365"/>
					<stop  offset="0.9964" style="stop-color:#26264F"/>
				</linearGradient>
				<path style="fill:url(#SVGID_00000083782232368723238230000010702578360891710866_);" d="M2694.218,1426.949v1217.947
					l-1295.469,26.867l-903.116,18.731V1344.475c0-28.148,26.678-50.169,58.53-48.888l176.761,7.098l1916.703,77.037
					C2672.868,1380.727,2694.218,1401.985,2694.218,1426.949z"/>
				<g>
					
						<linearGradient id="SVGID_00000098913427024814381130000001938168313656275105_" gradientUnits="userSpaceOnUse" x1="561.4768" y1="2080.623" x2="2644.1804" y2="2080.623">
						<stop  offset="0" style="stop-color:#FFFFFF"/>
						<stop  offset="0.9964" style="stop-color:#EBEFF2"/>
					</linearGradient>
					<path style="fill:url(#SVGID_00000098913427024814381130000001938168313656275105_);" d="M561.477,1531.813v1051.411
						c0,26.243,24.259,47.026,53.826,46.185l1985.834-56.476c23.701-0.675,43.044-20.375,43.044-43.782v-937.738L561.477,1531.813z"
						/>
					<path style="fill:#BFC8D6;" d="M2644.18,1591.413v-107.617c0-22.927-18.947-42.392-42.161-43.258L614.204,1366.38
						c-28.964-1.081-52.727,19.065-52.727,44.771v120.662L2644.18,1591.413z"/>
					<g>
						<path style="fill:#FFFFFF;" d="M706.784,1449.953c0,9.034-8.234,16.098-18.405,15.777
							c-10.186-0.322-18.455-7.928-18.455-16.987c0-9.059,8.269-16.123,18.455-15.775
							C698.549,1433.314,706.784,1440.918,706.784,1449.953z"/>
						<path style="fill:#FFFFFF;" d="M786.118,1452.558c0,8.982-8.138,16.006-18.19,15.688c-10.067-0.318-18.24-7.878-18.24-16.885
							c0-9.006,8.172-16.029,18.24-15.686C777.98,1436.018,786.118,1443.577,786.118,1452.558z"/>
						<path style="fill:#FFFFFF;" d="M864.529,1455.133c0,8.93-8.043,15.914-17.979,15.6c-9.95-0.315-18.027-7.828-18.027-16.783
							c0-8.954,8.077-15.937,18.027-15.599C856.486,1438.691,864.529,1446.204,864.529,1455.133z"/>
					</g>
				</g>
				
					<linearGradient id="SVGID_00000006666867481230904040000008840906125292645053_" gradientUnits="userSpaceOnUse" x1="957.201" y1="2502.2566" x2="2374.6982" y2="3191.9448">
					<stop  offset="0" style="stop-color:#444B8C"/>
					<stop  offset="0.9964" style="stop-color:#26264F"/>
				</linearGradient>
				<path style="fill:url(#SVGID_00000006666867481230904040000008840906125292645053_);" d="M2694.218,2637.071v235.197
					c0,24.963-21.207,46.257-46.448,47.33l-76.179,3.221L554.323,3008.06c-31.853,1.351-58.69-20.601-58.69-48.784v-268.782
					l900.416-21.882L2694.218,2637.071z"/>
				<path style="opacity:0.1;fill:#FFFFFF;" d="M2571.271,2922.818L554.163,3008.06c-31.853,1.351-58.53-20.601-58.53-48.784
					V1344.475c0-28.148,26.678-50.169,58.53-48.888l176.761,7.098c27.111,18.177,51.385,40.614,70.774,67.273
					c0.865,1.177,1.769,2.354,2.565,3.532c15.06,21.397,25.795,43.729,33.308,66.719c3.324,10.04,6.008,20.185,8.188,30.468
					c4.883,22.747,7.28,45.98,8.284,69.524c2.147,49.754-1.762,100.823-1.554,151.131c0.416,101.966,6.79,203.862,74.443,285.954
					c50.101,60.799,131.709,83.893,199.432,119.243c79.045,41.271,148.398,96.01,188.559,177.306
					c49.305,99.784,3.013,208.156,34.521,311.229c2.423,7.963,5.297,15.719,8.587,23.232c9.521,21.917,22.47,41.999,37.947,60.314
					c0.865,1.073,1.765,2.112,2.7,3.151c60.28,69.282,156.776,112.561,240.424,133.508
					c171.663,42.933,349.697-31.473,520.114-37.324c122.774-4.19,292.568,23.509,382.866,115.85
					C2552.989,2894.946,2562.788,2908.207,2571.271,2922.818z"/>
			</g>
		</g>
		<g>
			
				<linearGradient id="SVGID_00000070100568451470296660000001842743996893628052_" gradientUnits="userSpaceOnUse" x1="3787.3162" y1="3112.5435" x2="2787.9922" y2="2829.7556">
				<stop  offset="0" style="stop-color:#311944"/>
				<stop  offset="1" style="stop-color:#A03976"/>
			</linearGradient>
			<path style="fill:url(#SVGID_00000070100568451470296660000001842743996893628052_);" d="M3014.888,3040.536
				c32.004,16.249,72.211,1.329,89.805-33.324c17.594-34.653,5.913-75.918-26.091-92.167c-1.658-0.842-3.35-1.549-5.047-2.226
				c5.946-19.175,10.429-38.5,13.435-57.832c1.835-0.006,3.676-0.036,5.546-0.203c36.513-3.255,65.492-36.806,64.728-74.943
				c-0.765-38.135-30.984-66.413-67.497-63.158c-1.909,0.171-3.783,0.472-5.647,0.803c-3.814-18.898-9.04-37.36-15.633-55.227
				c1.68-0.983,3.351-1.998,4.984-3.142c31.238-21.885,41.226-65.081,22.308-96.48c-18.919-31.398-59.581-39.109-90.819-17.224
				c-1.601,1.122-3.107,2.333-4.595,3.563c-12.339-13.64-25.87-26.28-40.512-37.816c1.029-1.688,2.037-3.398,2.949-5.193
				c17.594-34.653,40.586-72.507,8.332-88.252c-74.614-36.425-106.633-5.244-124.227,29.409c-0.911,1.795-1.697,3.618-2.452,5.445
				c-17.953-5.013-36.143-8.479-54.436-10.392c0.115-1.927,0.203-3.857,0.165-5.812c-0.766-38.134,10.55-58.771-26.101-59.484
				c-79.923-1.554-106.89,33.137-106.125,71.27c0.04,1.993,0.207,3.942,0.404,5.878c-18.316,5.22-36.303,11.895-53.812,19.969
				c-0.832-1.701-1.695-3.392-2.684-5.034c-18.918-31.398-59.58-39.109-90.819-17.222c-31.239,21.887-41.226,65.082-22.307,96.48
				c0.968,1.609,2.031,3.113,3.109,4.597c-13.834,13.835-26.79,28.859-38.761,44.974c-1.548-0.971-3.119-1.92-4.777-2.762
				c-32.003-16.249-72.211-1.329-89.805,33.324c-17.594,34.654-5.913,75.918,26.091,92.167c1.658,0.842,3.351,1.55,5.048,2.227
				c-5.946,19.175-10.43,38.5-13.436,57.832c-1.835,0.005-3.676,0.036-5.545,0.201c-36.514,3.257-65.493,36.808-64.729,74.945
				c0.765,38.136,30.985,66.411,67.498,63.156c1.907-0.17,3.783-0.47,5.646-0.802c3.813,18.899,9.039,37.36,15.632,55.228
				c-1.679,0.983-3.351,1.998-4.983,3.142c-31.239,21.885-41.226,65.082-22.308,96.48c18.919,31.399,81.552,45.986,112.791,24.1
				c1.601-1.122-18.866-9.209-17.378-10.438c12.339,13.64,25.872,26.28,40.513,37.816c-1.028,1.688-2.037,3.398-2.949,5.193
				c-17.594,34.653-5.913,75.918,26.091,92.167s72.211,1.329,89.805-33.324c0.912-1.795,1.697-3.618,2.452-5.445
				c17.954,5.013,36.144,8.479,54.437,10.392c-0.114,1.926-0.203,3.856-0.165,5.812c0.765,38.134,30.985,66.411,67.498,63.156
				c36.513-3.255,65.493-36.808,64.728-74.943c-0.04-1.993-0.206-3.941-0.404-5.877c18.316-5.22,36.304-11.896,53.812-19.969
				c0.832,1.7,1.696,3.391,2.685,5.031c18.918,31.399,59.579,39.111,90.819,17.224c31.239-21.887,41.226-65.081,22.308-96.482
				c-0.969-1.607-2.031-3.111-3.109-4.595c13.833-13.835,26.79-28.859,38.761-44.974
				C3011.661,3038.745,3013.23,3039.694,3014.888,3040.536z M2615.932,3045.598c-116.198-58.996-158.61-208.818-94.728-334.637
				c63.881-125.82,209.863-179.99,326.062-120.993c116.198,58.997,158.61,208.818,94.729,334.637
				C2878.113,3050.425,2732.13,3104.594,2615.932,3045.598z"/>
			
				<linearGradient id="SVGID_00000160182483455685041010000013533305864589928367_" gradientUnits="userSpaceOnUse" x1="3784.6958" y1="3121.7983" x2="2785.3701" y2="2839.01">
				<stop  offset="0" style="stop-color:#311944"/>
				<stop  offset="1" style="stop-color:#A03976"/>
			</linearGradient>
			<path style="fill:url(#SVGID_00000160182483455685041010000013533305864589928367_);" d="M3092.537,2854.784
				c36.513-3.256,65.492-36.809,64.728-74.944c-0.765-38.135-30.984-66.413-67.497-63.157c-1.909,0.17-3.783,0.472-5.647,0.803
				c-3.813-18.899-9.04-37.359-15.633-55.227c1.68-0.981,3.351-1.998,4.984-3.143c31.238-21.885,69.885-74.768,47.847-104.059
				c-41.83-55.594-85.12-31.53-116.358-9.645c-1.601,1.122-3.107,2.333-4.595,3.561c-12.34-13.64-25.871-26.279-40.513-37.816
				c1.029-1.688,2.037-3.397,2.949-5.191c9.576-18.86,10.421-39.654,4.096-57.332c-30.173,53.106-59.94,106.436-89.173,160.054
				c92.699,67.928,122.211,201.792,64.269,315.917c-49.101,96.71-146.706,151.014-242.01,144.209
				c-4.251,11.025-8.425,22.111-12.978,33.029c-12.354,29.632-26.388,58.653-40.441,87.636c8.838,1.666,17.715,2.977,26.616,3.909
				c-0.114,1.927-0.203,3.858-0.165,5.812c0.765,38.135,23.918,70.536,90.092,67.026c36.607-1.941,42.898-40.677,42.133-78.812
				c-0.04-1.992-0.206-3.941-0.404-5.877c18.316-5.22,36.303-11.896,53.811-19.969c0.832,1.701,1.696,3.391,2.685,5.031
				c18.918,31.4,84.549,44.741,115.789,22.854s16.255-70.71-2.663-102.11c-0.969-1.609-2.031-3.112-3.109-4.597
				c13.833-13.835,26.79-28.858,38.761-44.973c1.549,0.972,3.118,1.921,4.776,2.76c32.004,16.251,72.211,1.329,89.806-33.324
				c17.594-34.652,5.913-75.918-26.091-92.166c-1.659-0.842-3.351-1.549-5.048-2.226c5.946-19.175,10.429-38.501,13.435-57.832
				C3088.825,2854.98,3090.666,2854.95,3092.537,2854.784z"/>
			
				<linearGradient id="SVGID_00000160882211925757845680000014271588022122180542_" gradientUnits="userSpaceOnUse" x1="2761.8018" y1="2481.0244" x2="2777.4292" y2="3742.9502">
				<stop  offset="0" style="stop-color:#FF9085"/>
				<stop  offset="1" style="stop-color:#FB6FBB"/>
			</linearGradient>
			<path style="fill:url(#SVGID_00000160882211925757845680000014271588022122180542_);" d="M3049.31,3044.45
				c32.004,16.249,72.211,1.329,89.805-33.325c17.595-34.653,5.913-75.917-26.091-92.167c-1.658-0.842-3.35-1.549-5.047-2.226
				c5.946-19.175,10.429-38.5,13.436-57.833c1.834-0.005,3.675-0.035,5.546-0.202c36.513-3.255,65.492-36.807,64.728-74.943
				c-0.764-38.136-30.984-66.413-67.497-63.158c-1.908,0.171-3.782,0.472-5.647,0.803c-3.814-18.899-9.04-37.36-15.633-55.228
				c1.68-0.983,3.351-1.998,4.984-3.142c31.238-21.885,41.226-65.082,22.307-96.481c-18.919-31.398-59.58-39.109-90.819-17.224
				c-1.601,1.122-3.107,2.333-4.595,3.562c-12.338-13.64-25.871-26.279-40.512-37.816c1.029-1.688,2.037-3.398,2.948-5.193
				c17.594-34.653,5.913-75.918-26.09-92.167c-32.004-16.25-72.211-1.329-89.805,33.324c-0.911,1.795-1.697,3.618-2.453,5.445
				c-17.953-5.013-36.143-8.479-54.436-10.391c0.114-1.927,0.202-3.857,0.165-5.812c-0.766-38.135-30.985-66.411-67.499-63.156
				c-36.513,3.254-65.493,36.808-64.728,74.942c0.04,1.994,0.206,3.942,0.404,5.878c-18.315,5.221-36.303,11.896-53.812,19.969
				c-0.832-1.701-1.695-3.391-2.684-5.034c-18.919-31.398-59.58-39.11-90.819-17.222c-31.24,21.887-41.226,65.082-22.308,96.481
				c0.969,1.608,2.031,3.113,3.109,4.597c-13.833,13.835-26.79,28.858-38.761,44.974c-1.548-0.971-3.118-1.92-4.776-2.761
				c-32.004-16.25-72.21-1.329-89.805,33.324c-17.595,34.653-5.913,75.918,26.09,92.167c1.658,0.843,3.351,1.549,5.048,2.227
				c-5.946,19.175-10.43,38.5-13.435,57.832c-1.835,0.005-3.676,0.036-5.545,0.201c-36.514,3.257-65.493,36.808-64.729,74.945
				c0.764,38.135,30.985,66.41,67.498,63.156c1.907-0.17,3.782-0.47,5.646-0.802c3.814,18.899,9.04,37.36,15.632,55.228
				c-1.679,0.982-3.351,1.998-4.982,3.142c-31.239,21.885-41.227,65.082-22.308,96.48c18.918,31.399,59.58,39.11,90.818,17.225
				c1.601-1.123,3.107-2.333,4.595-3.563c12.339,13.64,25.872,26.281,40.512,37.816c-1.028,1.688-2.037,3.398-2.948,5.193
				c-17.594,34.653-5.913,75.917,26.091,92.167c32.004,16.249,72.211,1.329,89.805-33.325c0.911-1.794,1.697-3.617,2.452-5.444
				c17.954,5.012,36.144,8.478,54.437,10.39c-0.114,1.927-0.203,3.858-0.165,5.813c0.766,38.134,30.985,66.411,67.498,63.156
				c36.513-3.255,65.493-36.809,64.728-74.943c-0.039-1.993-0.206-3.942-0.404-5.877c18.316-5.221,36.303-11.896,53.812-19.969
				c0.833,1.7,1.696,3.392,2.685,5.031c18.919,31.399,59.579,39.112,90.818,17.225c31.239-21.887,41.226-65.082,22.309-96.482
				c-0.97-1.607-2.032-3.111-3.11-4.596c13.834-13.835,26.79-28.858,38.762-44.974
				C3046.082,3042.659,3047.652,3043.608,3049.31,3044.45z M2650.354,3049.512c-116.198-58.996-158.61-208.817-94.729-334.637
				c63.882-125.818,209.864-179.988,326.062-120.992s158.609,208.818,94.729,334.637
				C2912.535,3054.339,2766.552,3108.508,2650.354,3049.512z"/>
		</g>
		<g>
			<g>
				
					<linearGradient id="SVGID_00000153706532114720839260000011700952718481328014_" gradientUnits="userSpaceOnUse" x1="-3412.5303" y1="-1057.0513" x2="-2990.8293" y2="-619.4371" gradientTransform="matrix(0.6508 -0.7592 0.7592 0.6508 3488.3733 -1145.7214)">
					<stop  offset="0" style="stop-color:#444B8C"/>
					<stop  offset="0.9964" style="stop-color:#26264F"/>
				</linearGradient>
				<path style="fill:url(#SVGID_00000153706532114720839260000011700952718481328014_);" d="M694.868,508.06
					c-78.37-16.811-175.34,37.819-221.041,105.342c-83.094,122.772-28.386,335.011,112.548,387.662
					c90.919,33.967,208.937-1.769,260.641-72.485c47.03-64.325,12.793-121.485,71.395-179.739
					c49.089-48.797,90.395-30.399,131.49-83.536c30.257-39.125,52.316-107.428,21.628-155.146
					c-25.867-40.219-81.426-53.716-122.452-49.888c-74.56,6.957-91.068,70.195-165.454,71.973
					C742.956,533.216,736.501,516.991,694.868,508.06z"/>
				
					<linearGradient id="SVGID_00000066474822531338973000000004412171589563563686_" gradientUnits="userSpaceOnUse" x1="1066.4316" y1="431.9886" x2="1236.9583" y2="994.3618">
					<stop  offset="0" style="stop-color:#FFC444"/>
					<stop  offset="0.0564" style="stop-color:#FDB647"/>
					<stop  offset="0.1813" style="stop-color:#F99C4C"/>
					<stop  offset="0.3198" style="stop-color:#F78851"/>
					<stop  offset="0.4772" style="stop-color:#F57A54"/>
					<stop  offset="0.6695" style="stop-color:#F37155"/>
					<stop  offset="0.9964" style="stop-color:#F36F56"/>
				</linearGradient>
				<path style="fill:url(#SVGID_00000066474822531338973000000004412171589563563686_);" d="M1020.685,645.672
					c22.831-17.32,94.736,26.56,140.157,80.271c53.362,63.101,44.614,109.552,89.249,185.982
					c22.188,37.996,61.42,89.995,134.832,139.082c-6.706,13.182-13.411,26.369-20.115,39.549
					c-37.542-1.133-110.726-9.094-175.065-59.982c-44.693-35.351-65.41-78.704-105.021-163.968
					C1044.97,781.033,992.146,667.325,1020.685,645.672z"/>
				
					<linearGradient id="SVGID_00000059293002189135855750000008976205885282280354_" gradientUnits="userSpaceOnUse" x1="1503.6871" y1="1395.6826" x2="1462.8701" y2="1765.7598">
					<stop  offset="0" style="stop-color:#444B8C"/>
					<stop  offset="0.9964" style="stop-color:#26264F"/>
				</linearGradient>
				<path style="fill:url(#SVGID_00000059293002189135855750000008976205885282280354_);" d="M1499.724,1819.676l-25.141-53.416
					c-3.571-7.588-9.14-14.062-16.11-18.727l-12.448-8.332c0,0-29.758-0.79-34.389,17.915
					c-0.996,23.753,45.164,76.827,74.356,97.903c4.847,3.498,11.757,8.161,15.957,5.761
					C1509.059,1856.716,1504.071,1834.867,1499.724,1819.676z"/>
				
					<linearGradient id="SVGID_00000115495618865701258290000000499052493555433600_" gradientUnits="userSpaceOnUse" x1="1613.3843" y1="1489.9857" x2="1432.4269" y2="1796.1168">
					<stop  offset="0" style="stop-color:#311944"/>
					<stop  offset="1" style="stop-color:#A03976"/>
				</linearGradient>
				<path style="fill:url(#SVGID_00000115495618865701258290000000499052493555433600_);" d="M1452.48,1710.158
					c-3.959,22.91,1.049,34.855,6.448,41.547c3.799,4.709,34.631,55.547,21.967,63.755c-5.715,3.704-44.885-44.936-48.684-52.389
					c-3.44-6.749-5.677-5.157-5.877-23.544c-0.131-12.107-2.593-21.85-4.529-27.946
					C1432.031,1711.106,1442.254,1710.633,1452.48,1710.158z"/>
				
					<linearGradient id="SVGID_00000039828820257377086250000002718581662388237749_" gradientUnits="userSpaceOnUse" x1="1500.9557" y1="1395.3813" x2="1460.1387" y2="1765.4589">
					<stop  offset="0" style="stop-color:#444B8C"/>
					<stop  offset="0.9964" style="stop-color:#26264F"/>
				</linearGradient>
				<path style="fill:url(#SVGID_00000039828820257377086250000002718581662388237749_);" d="M1497.003,1528.582
					c0,0,27.827,33.203,23.299,69.604c-4.528,36.397-53.261-16.818-60.053-34.803c-6.796-17.984-14.733-43.607-14.733-43.607
					S1479.689,1498.517,1497.003,1528.582z"/>
				
					<linearGradient id="SVGID_00000074407251758595197600000000574616944421920648_" gradientUnits="userSpaceOnUse" x1="1485.0201" y1="1527.2625" x2="1543.5251" y2="1679.6477">
					<stop  offset="0" style="stop-color:#311944"/>
					<stop  offset="1" style="stop-color:#A03976"/>
				</linearGradient>
				<path style="fill:url(#SVGID_00000074407251758595197600000000574616944421920648_);" d="M1486.389,1476.631
					c0,0-7.549,38.682,6.849,59.098c7.171,10.168,16.843,18.793,13.999,27.07c-1.906,5.547-9.144,9.532-15.275,8.902
					c-11.739-1.206-18.245-19.201-22.836-31.894c-6.778-18.747-10.557-58.864-10.557-58.864L1486.389,1476.631z"/>
				
					<linearGradient id="SVGID_00000151530499851384190950000000642907329662156194_" gradientUnits="userSpaceOnUse" x1="-7133.9399" y1="14903.2207" x2="-6652.8301" y2="14411.8311" gradientTransform="matrix(-1 0 0 1 7587.4121 0)">
					<stop  offset="0" style="stop-color:#311944"/>
					<stop  offset="1" style="stop-color:#A03976"/>
				</linearGradient>
				<path style="fill:url(#SVGID_00000151530499851384190950000000642907329662156194_);" d="M1464.21,1509.24
					c8.559-3.116,17.115-6.234,25.673-9.352c13.35-30.493,29.644-80.577,24.201-141.453
					c-13.996-156.554-158.791-239.513-174.876-248.392c-39.451,19.794-79.409,47.717-80.857,82.919
					c-1.815,44.189,58.383,67.548,114.972,132.164C1407.292,1363.911,1443.586,1421.703,1464.21,1509.24z"/>
				
					<linearGradient id="SVGID_00000008842214257677914290000012682509288588549772_" gradientUnits="userSpaceOnUse" x1="6303.9424" y1="1775.177" x2="6434.3154" y2="1362.567" gradientTransform="matrix(-1 0 0 1 7587.4121 0)">
					<stop  offset="0" style="stop-color:#311944"/>
					<stop  offset="1" style="stop-color:#A03976"/>
				</linearGradient>
				<path style="fill:url(#SVGID_00000008842214257677914290000012682509288588549772_);" d="M1454.986,1728.065
					c28.275-110.453,21.051-200.585,12.895-252.508c-12.329-78.479-37.404-238.113-143.985-297.638
					c-23.274-12.999-56.545-24.639-97.097-60.778c-33.864-30.179-55.388-61.919-68.375-84.28
					c-142.538-41.813-274.009-24.868-332.023,51.576c-6.703,8.833-23.486,27.993-26.732,56.244
					c-7.326,63.743,55.307,140.483,125.586,156.509c89.32,20.367,141.138-71.346,220.273-40.832
					c22.136,8.536,40.904,29.687,78.439,71.991c47.75,53.816,74.592,103.474,84.748,123.344
					c30.239,59.169,53.17,102.848,56.514,159.455c0.778,13.187,1.244,39.83,16.69,68.564c11.857,22.058,27.928,36.764,39.885,45.85
					C1432.866,1726.396,1443.926,1727.232,1454.986,1728.065z"/>
				
					<linearGradient id="SVGID_00000144313059551677441360000004448393046284751778_" gradientUnits="userSpaceOnUse" x1="6303.9536" y1="1775.1819" x2="6434.3271" y2="1362.5715" gradientTransform="matrix(-1 0 0 1 7587.4121 0)">
					<stop  offset="0" style="stop-color:#AA80F9"/>
					<stop  offset="0.9964" style="stop-color:#6165D7"/>
				</linearGradient>
				<path style="opacity:0.3;fill:url(#SVGID_00000144313059551677441360000004448393046284751778_);" d="M799.67,1140.681
					c3.246-28.251,20.029-47.411,26.732-56.244c58.014-76.445,189.485-93.39,332.023-51.576
					c12.987,22.361,34.511,54.101,68.375,84.28c40.552,36.139,73.824,47.779,97.098,60.778
					c65.082,36.349,99.743,110.017,119.699,179.75c-29.609-45.907-54.953-58.113-74.568-58.331
					c-28.075-0.311-40.619,23.692-74.142,20.415c-35.83-3.501-44.022-33.128-73.066-36.532c-8.693-1.019-19.39,0.323-32.237,7.161
					c-17.145-17.951-29.923-28.578-44.054-34.024c-79.135-30.514-130.954,61.199-220.273,40.832
					C854.976,1281.164,792.344,1204.424,799.67,1140.681z"/>
				
					<linearGradient id="SVGID_00000069383523384089683870000000315880860719894929_" gradientUnits="userSpaceOnUse" x1="-7017.5396" y1="15017.2148" x2="-6536.4282" y2="14525.8232" gradientTransform="matrix(-1 0 0 1 7587.4121 0)">
					<stop  offset="0" style="stop-color:#311944"/>
					<stop  offset="1" style="stop-color:#A03976"/>
				</linearGradient>
				<path style="fill:url(#SVGID_00000069383523384089683870000000315880860719894929_);" d="M1381.134,1227.32
					c-16.133-0.857-40.977-1.353-70.945,1.607c-142.223,14.055-181.43,84.405-298.973,101.57
					c-27.805,4.062-151.609,22.143-205.231-49.427c-38.496-51.383-32.671-139.92,9.436-174.744
					c17.819-14.738,35.464-14.328,149.591-13.296c42.98,0.389,85.962,0.528,128.941,1.076
					c181.933,2.318,216.725-10.282,249.828,19.81C1359.224,1127.956,1381.805,1158.107,1381.134,1227.32z"/>
				<g>
					<g>
						
							<linearGradient id="SVGID_00000004540045589764505480000001658620415385340350_" gradientUnits="userSpaceOnUse" x1="2415.1365" y1="1161.4238" x2="1965.6112" y2="592.7057" gradientTransform="matrix(-1 0 0 1 3173.0376 0)">
							<stop  offset="0" style="stop-color:#FFC444"/>
							<stop  offset="0.9964" style="stop-color:#F36F56"/>
						</linearGradient>
						<path style="fill:url(#SVGID_00000004540045589764505480000001658620415385340350_);" d="M997.055,643.591
							c0,0-143.605-41.879-206.851,29.715c-11.612,13.144-20.792,30.43-27.472,63.794
							c-34.043,170.028,94.719,272.152,43.989,361.851c-20.145,35.62-55.627,46.352-80.84,110.368
							c-4.269,10.837-19.709,50.037-5.542,62.388c12.478,10.879,32.997-12.088,69.448-7.652c38.6,4.696,47.619,34.349,73.59,30.032
							c16.934-2.816,24.233-17.273,49.18-53.316c36.115-52.181,54.172-78.271,67.116-87.42
							c51.073-36.094,90.547,10.976,148.789-24.765c21.085-12.942,99.21-113.527,76.226-85.896l0,0
							c-54.708-68.249-67.42-124.556-68.727-163.707c-1.434-42.921,10.938-62.428,0-113.167c0,0-12.205-56.612-56.238-105.226
							C1073.402,653.612,1065.866,646.345,997.055,643.591z"/>
					</g>
				</g>
				<g>
					
						<linearGradient id="SVGID_00000070108134908669740990000002240525804357618346_" gradientUnits="userSpaceOnUse" x1="944.6979" y1="485.4467" x2="991.0992" y2="731.5743">
						<stop  offset="0" style="stop-color:#311944"/>
						<stop  offset="1" style="stop-color:#A03976"/>
					</linearGradient>
					<path style="fill:url(#SVGID_00000070108134908669740990000002240525804357618346_);" d="M950.947,550.445
						c1.944,9.086,11.845,57.843-8.104,70.387c-4.323,2.721-12.631,4.278-29.251,7.393c-10.88,2.039-20.008,3.289-26.447,4.059
						c29.125,39.355,74.302,59.693,116.355,51.574c29.59-5.713,49.021-23.851,57.599-33.108
						c-8.583-6.654-21.232-14.887-37.944-20.962c-10.939-3.976-20.946-6.057-29.189-7.157c-1.466-9.418-2.937-18.836-4.402-28.256
						C976.689,579.731,963.819,565.089,950.947,550.445z"/>
					
						<linearGradient id="SVGID_00000124119777347150574340000004108426084430309002_" gradientUnits="userSpaceOnUse" x1="2315.3486" y1="341.0051" x2="2145.074" y2="620.2558" gradientTransform="matrix(-1 0 0 1 3173.0376 0)">
						<stop  offset="0" style="stop-color:#311944"/>
						<stop  offset="1" style="stop-color:#A03976"/>
					</linearGradient>
					<path style="fill:url(#SVGID_00000124119777347150574340000004108426084430309002_);" d="M950.013,574.744
						c0,0,3.605,35.73,38.338,42.027c31.098,5.638,54.509-69.512,38.593-88.951c-5.308-6.483-18.414-12.653-29.777-12.326
						c-7.991,0.232-34.981,10.51-38.748,37.516c-5.375-5.663-12.073-7.29-15.376-4.919c-4.189,3.008-1.946,11.755-1.435,13.736
						C943.371,568.694,947.854,572.95,950.013,574.744z"/>
				</g>
				
					<linearGradient id="SVGID_00000068672536517073174270000014652942708485586068_" gradientUnits="userSpaceOnUse" x1="1964.1609" y1="1076.4254" x2="2458.5559" y2="1076.4254" gradientTransform="matrix(-1 0 0 1 3173.0376 0)">
					<stop  offset="0" style="stop-color:#FFC444"/>
					<stop  offset="0.9964" style="stop-color:#F36F56"/>
				</linearGradient>
				<path style="opacity:0.3;fill:url(#SVGID_00000068672536517073174270000014652942708485586068_);" d="M1204.688,1042.691
					c-6.582-8.212-12.525-16.241-17.945-24.098c-30.171-10.11-56.275-13.871-77.332-14.893
					c-47.497-2.303-73.505,8.872-105.836-10.583c-36.699-22.084-30.203-52.74-65.618-69.852
					c-37.274-18.008-63.628,2.343-99.486-4.232c-21.655-3.971-48.032-18.452-74.95-60.697
					c20.613,101.71,80.563,174.553,43.2,240.617c-20.145,35.62-55.627,46.352-80.84,110.368
					c-4.269,10.837-19.709,50.037-5.542,62.388c12.478,10.879,32.997-12.088,69.448-7.652c38.6,4.696,47.62,34.349,73.59,30.032
					c16.934-2.816,24.233-17.273,49.18-53.316c36.115-52.181,54.172-78.271,67.116-87.42
					c51.073-36.094,90.548,10.976,148.789-24.765C1149.548,1115.645,1227.672,1015.06,1204.688,1042.691z"/>
			</g>
			<g>
				
					<linearGradient id="SVGID_00000170968818806311010800000017078274034723146676_" gradientUnits="userSpaceOnUse" x1="7840.7466" y1="1086.5376" x2="8195.9004" y2="1086.5376" gradientTransform="matrix(-1 0 0 1 9097.4053 0)">
					<stop  offset="0" style="stop-color:#40447E"/>
					<stop  offset="0.9964" style="stop-color:#3C3B6B"/>
				</linearGradient>
				<path style="fill:url(#SVGID_00000170968818806311010800000017078274034723146676_);" d="M1247.96,1060.142l-324.932,15.812
					c-4.471,0.218-8.552,2.614-10.918,6.414l-8.991,14.432c-4.475,7.183,0.902,16.448,9.36,16.126l344.18-13.112L1247.96,1060.142z"
					/>
				
					<linearGradient id="SVGID_00000103943851011849725250000006561857404086085537_" gradientUnits="userSpaceOnUse" x1="7613.6255" y1="862.5046" x2="7846.4741" y2="1093.4905" gradientTransform="matrix(-1 0 0 1 9097.4053 0)">
					<stop  offset="0" style="stop-color:#40447E"/>
					<stop  offset="0.9964" style="stop-color:#3C3B6B"/>
				</linearGradient>
				<path style="fill:url(#SVGID_00000103943851011849725250000006561857404086085537_);" d="M1585.916,879.198l-335.691,6.505
					c-9.933,0.192-19.028,5.603-23.936,14.239l-116.246,204.522l354.53-14.124c9.731-0.388,18.61-5.657,23.613-14.014
					l107.701-179.93C1600.473,888.739,1594.842,879.024,1585.916,879.198z"/>
				
					<linearGradient id="SVGID_00000121963562423331199550000011417184413587761039_" gradientUnits="userSpaceOnUse" x1="7613.626" y1="862.5046" x2="7846.4751" y2="1093.4907" gradientTransform="matrix(-1 0 0 1 9097.4053 0)">
					<stop  offset="0" style="stop-color:#40447E"/>
					<stop  offset="0.9964" style="stop-color:#3C3B6B"/>
				</linearGradient>
				<path style="opacity:0.3;fill:url(#SVGID_00000121963562423331199550000011417184413587761039_);" d="M1226.288,899.943
					c4.909-8.637,14.004-14.048,23.937-14.24l7.357-0.142c1.096,10.836,4.421,20.748,11.053,28.751
					c20.698,24.985,55.089,9.574,80.721,36.015c28.157,29.045,2.145,63.622,27.32,90.655c26.498,28.452,69.347,5.287,118.602,23.495
					l-7.093,11.849c-5.001,8.357-13.881,13.626-23.611,14.014l-354.53,14.124L1226.288,899.943z"/>
			</g>
			<g>
				
					<linearGradient id="SVGID_00000045618065502582609300000005729415674049650574_" gradientUnits="userSpaceOnUse" x1="2499.9236" y1="1095.2412" x2="2034.6338" y2="506.5786" gradientTransform="matrix(-1 0 0 1 3173.0376 0)">
					<stop  offset="0" style="stop-color:#FFC444"/>
					<stop  offset="0.9964" style="stop-color:#F36F56"/>
				</linearGradient>
				<path style="fill:url(#SVGID_00000045618065502582609300000005729415674049650574_);" d="M949.507,1049.284
					c4.229-11.169,8.459-22.335,12.688-33.505c-46.742-12.817-111.389-31.75-177.696-55.444
					c-10.385-3.712-22.723-8.308-26.764-19.236c-11.338-30.653,60.742-62.418,88.763-129.35
					c25.916-61.903,27.436-154.591-2.64-164.74c-62.585-21.118-300.304,261.919-221.038,378.374
					C667.626,1091.215,805.764,1101.696,949.507,1049.284z"/>
			</g>
			
				<linearGradient id="SVGID_00000065055168908020943400000010798355313785030832_" gradientUnits="userSpaceOnUse" x1="-6322.8818" y1="1016.5051" x2="-6440.9419" y2="1127.7615" gradientTransform="matrix(1 0 0 1 7357.1265 0)">
				<stop  offset="0" style="stop-color:#311944"/>
				<stop  offset="1" style="stop-color:#A03976"/>
			</linearGradient>
			<path style="fill:url(#SVGID_00000065055168908020943400000010798355313785030832_);" d="M962.195,1015.779
				c29.345-15.588,64.47,0.391,66.734,1.46c6.448,3.043,15.832,8.465,25.313,18.151c1.072,1.462,13.801,19.101,9.164,24.752
				c-3.717,4.528-18.112,0.775-35.412-9.985c-7.252-1.017-18.048-1.951-30.981-0.76c-23.75,2.191-34.63,9.694-43.252,3.218
				c-6.313-4.741-8.465-14.765-6.192-22.218C950.008,1022.389,957.227,1018.419,962.195,1015.779z"/>
		</g>
		<g>
			<defs>
				<path id="SVGID_00000181780923847180713830000007675213204577591681_" d="M1323.06,2613.805l739.718-25.562
					c0,0,885.809-329.435,906.05-336.385c20.241-6.951,57.022-954.477,57.022-954.477l-409.643-448.183l-638.6,76.884
					L791.438,1759.717l56.956,657.972L1323.06,2613.805z"/>
			</defs>
			<clipPath id="SVGID_00000115514384895770350520000000112545195614866597_">
				<use xlink:href="#SVGID_00000181780923847180713830000007675213204577591681_"  style="overflow:visible;"/>
			</clipPath>
			<g style="clip-path:url(#SVGID_00000115514384895770350520000000112545195614866597_);">
				
					<linearGradient id="SVGID_00000173861294290724463440000015443279481377818264_" gradientUnits="userSpaceOnUse" x1="-1585.359" y1="2191.3652" x2="-983.2255" y2="2191.3652" gradientTransform="matrix(0.9139 -0.4059 0.4059 0.9139 1799.1742 -84.3062)">
					<stop  offset="0" style="stop-color:#FFC444"/>
					<stop  offset="0.9964" style="stop-color:#F36F56"/>
				</linearGradient>
				<path style="fill:url(#SVGID_00000173861294290724463440000015443279481377818264_);" d="M1842.613,2839.012
					c-49.838,18.418-109.236,8.039-149.924-30.503l-573.734-543.514c-52.24-49.491-54.244-130.871-4.3-182.227
					c50.298-51.713,158.528-65.178,211.705-15.334l584.134,547.554c55.071,51.626,55.656,134.563,1.509,184.787
					C1898.667,2812.145,1859.054,2832.936,1842.613,2839.012z"/>
				
					<linearGradient id="SVGID_00000131334690839642776330000003259602183016211365_" gradientUnits="userSpaceOnUse" x1="-1585.359" y1="2071.0659" x2="-1020.6312" y2="2071.0659" gradientTransform="matrix(0.9139 -0.4059 0.4059 0.9139 1799.1742 -84.3062)">
					<stop  offset="0" style="stop-color:#FFC444"/>
					<stop  offset="0.9964" style="stop-color:#F36F56"/>
				</linearGradient>
				<path style="opacity:0.3;fill:url(#SVGID_00000131334690839642776330000003259602183016211365_);" d="M1114.656,2082.77
					c50.298-51.713,158.528-65.179,211.705-15.334l534.098,500.652c-48.552,8.156-99.697,32.075-168.503,10.645
					c-114.544-35.675-115.129-146.327-217.118-199.825c-46.621-24.456-119.524-39.62-237.331-1.604l-118.551-112.307
					C1066.715,2215.504,1064.711,2134.124,1114.656,2082.77z"/>
				
					<linearGradient id="SVGID_00000118369418393109362720000015811962294548297150_" gradientUnits="userSpaceOnUse" x1="-1804.6333" y1="1800.5139" x2="-1492.5656" y2="1800.5139" gradientTransform="matrix(0.9139 -0.4059 0.4059 0.9139 1799.1742 -84.3062)">
					<stop  offset="0" style="stop-color:#FFC444"/>
					<stop  offset="0.9964" style="stop-color:#F36F56"/>
				</linearGradient>
				<path style="fill:url(#SVGID_00000118369418393109362720000015811962294548297150_);" d="M888.771,2024.667
					c2.387-1.06,4.833-1.93,7.324-2.65l170.767-78.094l198.156,446.192l-166.714,71.321c-3.781,2.973-7.865,5.468-12.266,7.422
					c-58.813,26.119-150.651-52.142-205.125-174.802C826.44,2171.396,829.958,2050.787,888.771,2024.667z"/>
				
					<linearGradient id="SVGID_00000027585723863517703620000009349147013127184797_" gradientUnits="userSpaceOnUse" x1="-3645.478" y1="1062.5172" x2="-3266.5542" y2="3158.4331" gradientTransform="matrix(0.9139 -0.4059 0.4059 0.9139 4317.0845 -1202.5248)">
					<stop  offset="0" style="stop-color:#AA80F9"/>
					<stop  offset="0.9964" style="stop-color:#6165D7"/>
				</linearGradient>
				<path style="fill:url(#SVGID_00000027585723863517703620000009349147013127184797_);" d="M1066.863,1943.923
					c0.983,177.443,66.731,325.489,198.156,446.192l1458.755-156.49L2180.793,975.448L1066.863,1943.923z"/>
				
					<linearGradient id="SVGID_00000126294493190552924440000002690720226770237828_" gradientUnits="userSpaceOnUse" x1="-3775.1565" y1="1066.2874" x2="-3391.4983" y2="3188.3882" gradientTransform="matrix(0.9139 -0.4059 0.4059 0.9139 4317.0845 -1202.5248)">
					<stop  offset="0" style="stop-color:#AA80F9"/>
					<stop  offset="0.9964" style="stop-color:#6165D7"/>
				</linearGradient>
				<path style="opacity:0.3;fill:url(#SVGID_00000126294493190552924440000002690720226770237828_);" d="M2215.706,2018.549
					c-141.788,7.919-257.698-151.41-401.238-94.758c-112.629,44.452-98.262,166.598-211.736,203.13
					c-116.159,37.396-187.878-73.895-330.784-60.884c-64.974,5.917-122.472,35.691-172.613,77.351
					c31.704,92.151,86.796,174.275,165.683,246.726l1458.755-156.49l-264.35-391.666
					C2366.168,1971.272,2284.445,2014.709,2215.706,2018.549z"/>
				
					<linearGradient id="SVGID_00000165940081839656769900000012426652993511424645_" gradientUnits="userSpaceOnUse" x1="2505.0581" y1="1357.6643" x2="1750.2539" y2="2247.8406" gradientTransform="matrix(-0.9139 0.4059 0.4059 0.9139 3718.1179 -936.1181)">
					<stop  offset="0.0036" style="stop-color:#E38DDD"/>
					<stop  offset="1" style="stop-color:#9571F6"/>
				</linearGradient>
				<path style="fill:url(#SVGID_00000165940081839656769900000012426652993511424645_);" d="M2194.883,1712.931
					c158.835,357.65,426.614,585.843,598.102,509.684c171.488-76.159,181.746-427.83,22.912-785.48
					s-426.613-585.843-598.102-509.684C2046.307,1003.61,2036.049,1355.281,2194.883,1712.931z"/>
				
					<linearGradient id="SVGID_00000020381138757708089040000013964346643667293368_" gradientUnits="userSpaceOnUse" x1="-314.6812" y1="1803.181" x2="287.5995" y2="1803.181" gradientTransform="matrix(0.9139 -0.4059 0.4059 0.9139 1799.1742 -84.3062)">
					<stop  offset="0" style="stop-color:#D8DEE8"/>
					<stop  offset="1" style="stop-color:#FFFFFF"/>
				</linearGradient>
				<path style="fill:url(#SVGID_00000020381138757708089040000013964346643667293368_);" d="M2783.228,2200.643
					c36.407-16.168,65.399-47.329,86.168-92.617c21.138-46.091,32.876-104.395,34.886-173.293
					c4.224-144.835-34.967-318.086-110.356-487.841c-75.388-169.753-177.644-314.998-287.927-408.979
					c-52.462-44.707-103.588-75.092-151.956-90.316c-47.525-14.957-90.082-14.343-126.489,1.826
					c-36.407,16.169-65.399,47.33-86.168,92.616c-21.138,46.092-32.876,104.396-34.886,173.294
					c-1.767,60.559,4.057,126.086,16.944,194.249c17.934,94.856,116.155,158.572,160.022,257.347
					c46.645,105.032,36.964,236.925,99.718,316.854c38.67,49.254,79.551,92.538,121.598,128.37
					c52.463,44.707,103.588,75.092,151.956,90.315C2704.263,2217.427,2746.821,2216.812,2783.228,2200.643z"/>
				<g>
					<defs>
						<path id="SVGID_00000083074801315512109100000011613877833284316048_" d="M2783.228,2200.643
							c36.407-16.168,65.399-47.329,86.168-92.617c21.138-46.091,32.876-104.395,34.886-173.293
							c4.224-144.835-34.967-318.086-110.356-487.841c-75.388-169.753-177.644-314.998-287.927-408.979
							c-52.462-44.707-103.588-75.092-151.956-90.316c-47.525-14.957-90.082-14.343-126.489,1.826
							c-36.407,16.169-65.399,47.33-86.168,92.616c-21.138,46.092-32.876,104.396-34.886,173.294
							c-4.225,144.834,34.967,318.086,110.356,487.839c75.389,169.755,177.643,315,287.927,408.981
							c52.463,44.707,103.588,75.092,151.956,90.315C2704.263,2217.427,2746.821,2216.812,2783.228,2200.643z"/>
					</defs>
					<clipPath id="SVGID_00000182517504243036748450000003825210402543377336_">
						<use xlink:href="#SVGID_00000083074801315512109100000011613877833284316048_"  style="overflow:visible;"/>
					</clipPath>
					
						<linearGradient id="SVGID_00000096056917412644569810000007284582962064455323_" gradientUnits="userSpaceOnUse" x1="-3138.2288" y1="1128.7272" x2="-2890.8218" y2="2497.1931" gradientTransform="matrix(0.9139 -0.4059 0.4059 0.9139 4317.0845 -1202.5248)">
						<stop  offset="0" style="stop-color:#FFC444"/>
						<stop  offset="0.9964" style="stop-color:#F36F56"/>
					</linearGradient>
					
						<path style="clip-path:url(#SVGID_00000182517504243036748450000003825210402543377336_);fill:url(#SVGID_00000096056917412644569810000007284582962064455323_);" d="
						M2534.719,1572.18c72.863,164.067,22.078,342.585-111.52,397.939c-131.531,54.497-294.098-31.241-364.933-190.741
						c-70.835-159.501-24.724-335.988,104.795-395.015C2294.615,1324.408,2461.855,1408.113,2534.719,1572.18z"/>
					
						<linearGradient id="SVGID_00000147934707841127710630000000894026140483143329_" gradientUnits="userSpaceOnUse" x1="-2995.5647" y1="1305.0223" x2="-2813.0164" y2="2314.7385" gradientTransform="matrix(0.9139 -0.4059 0.4059 0.9139 4317.0845 -1202.5248)">
						<stop  offset="0" style="stop-color:#FFC444"/>
						<stop  offset="0.9964" style="stop-color:#F36F56"/>
					</linearGradient>
					
						<path style="opacity:0.3;clip-path:url(#SVGID_00000182517504243036748450000003825210402543377336_);fill:url(#SVGID_00000147934707841127710630000000894026140483143329_);" d="
						M2512.659,1578.781c54.106,121.832,44.133,242.076-21.338,268.198c-64.458,25.718-158.627-49.739-211.227-168.18
						c-52.6-118.441-44.908-237.705,18.056-266.787C2362.104,1382.473,2458.553,1456.949,2512.659,1578.781z"/>
				</g>
			</g>
		</g>
		<g>
			
				<linearGradient id="SVGID_00000060005436305138917970000007289278974143751040_" gradientUnits="userSpaceOnUse" x1="807.1994" y1="286.8646" x2="1071.7148" y2="777.4623" gradientTransform="matrix(0.8165 -0.5774 0.5774 0.8165 1605.2179 1233.484)">
				<stop  offset="0" style="stop-color:#FFC444"/>
				<stop  offset="0.9964" style="stop-color:#F36F56"/>
			</linearGradient>
			<path style="fill:url(#SVGID_00000060005436305138917970000007289278974143751040_);" d="M2728.102,953.303
				c50.719,71.723,18.796,181.516-71.302,245.229c-90.098,63.714-204.254,57.22-254.973-14.503
				c-50.719-71.723-18.796-181.516,71.302-245.229C2563.227,875.087,2677.382,881.58,2728.102,953.303z"/>
			<path style="fill:#FFFFFF;" d="M2557.64,1166.498l-87.356-123.531c-5.608-7.93-2.646-17.852,5.525-18.506l147.755-11.832
				c9.345-0.748,17.583,10.902,13.764,19.464l-60.399,135.364C2573.589,1174.942,2563.247,1174.428,2557.64,1166.498z"/>
			<g style="opacity:0.3;">
				
					<linearGradient id="SVGID_00000113330423642367676160000003848810663834292119_" gradientUnits="userSpaceOnUse" x1="730.7103" y1="316.677" x2="990.0995" y2="837.2088" gradientTransform="matrix(0.8165 -0.5774 0.5774 0.8165 1605.2179 1233.484)">
					<stop  offset="0" style="stop-color:#FFC444"/>
					<stop  offset="0.9964" style="stop-color:#F36F56"/>
				</linearGradient>
				<path style="fill:url(#SVGID_00000113330423642367676160000003848810663834292119_);" d="M2673.016,1137.444
					c-46.8-24.435-52.257-74.355-96.393-80.324c-44.838-6.064-63.413,42.185-115.716,48.417
					c-20.221,2.41-47.196-1.264-81.353-23.943c-5.527,36.687,1.322,72.809,22.272,102.435
					c50.719,71.723,164.875,78.217,254.973,14.503c20.64-14.596,38.225-31.611,52.465-50.032
					C2694.528,1146.674,2682.661,1142.479,2673.016,1137.444z"/>
			</g>
		</g>
		<g>
			
				<linearGradient id="SVGID_00000010279894423683054130000000524074064591932576_" gradientUnits="userSpaceOnUse" x1="1088.3329" y1="1054.0172" x2="1414.3854" y2="1658.7479" gradientTransform="matrix(0.894 -0.4481 0.4481 0.894 1319.7939 740.6423)">
				<stop  offset="0" style="stop-color:#AA80F9"/>
				<stop  offset="0.9964" style="stop-color:#6165D7"/>
			</linearGradient>
			<path style="fill:url(#SVGID_00000010279894423683054130000000524074064591932576_);" d="M3137.374,1191.588
				c48.525,96.799-10.713,224.684-132.312,285.641c-121.598,60.956-259.51,31.901-308.034-64.898
				c-48.525-96.799,10.713-224.684,132.312-285.641C2950.937,1065.734,3088.849,1094.79,3137.374,1191.588z"/>
			<path style="fill:#FFFFFF;" d="M2859.718,1187.29c-43.493,21.803-61.077,74.735-39.273,118.229
				c14.129,28.185,80.067,77.172,124.734,108.165c18.568,12.883,44.013,0.128,44.801-22.458
				c1.893-54.333,2.096-136.478-12.032-164.662C2956.144,1183.07,2903.211,1165.487,2859.718,1187.29z M2920.391,1308.324
				c-23.352,11.707-51.772,2.266-63.479-21.086c-11.706-23.352-2.265-51.772,21.087-63.479
				c23.352-11.706,51.773-2.265,63.479,21.087C2953.184,1268.197,2943.743,1296.618,2920.391,1308.324z"/>
			<g style="opacity:0.3;">
				
					<linearGradient id="SVGID_00000072966286619516781300000015586389801292017331_" gradientUnits="userSpaceOnUse" x1="994.0499" y1="1090.7703" x2="1313.7819" y2="1732.3953" gradientTransform="matrix(0.894 -0.4481 0.4481 0.894 1319.7939 740.6423)">
					<stop  offset="0" style="stop-color:#AA80F9"/>
					<stop  offset="0.9964" style="stop-color:#6165D7"/>
				</linearGradient>
				<path style="fill:url(#SVGID_00000072966286619516781300000015586389801292017331_);" d="M3036.139,1405.787
					c-52.507-38.444-49.911-100.291-102.592-115.739c-53.519-15.694-85.09,39.663-149.983,37.572
					c-25.088-0.808-57.281-10.282-94.706-44.246c-13.53,43.684-11.875,88.973,8.169,128.957
					c48.524,96.798,186.436,125.854,308.034,64.898c27.857-13.964,52.438-31.443,73.203-51.254
					C3060.644,1421.02,3046.96,1413.71,3036.139,1405.787z"/>
			</g>
		</g>
		<g>
			
				<linearGradient id="SVGID_00000017485664512017984560000018426048454322470568_" gradientUnits="userSpaceOnUse" x1="1661.8042" y1="2375.1599" x2="1923.0177" y2="2859.6335" gradientTransform="matrix(0.9998 -0.022 0.022 0.9998 1146.9091 -724.6161)">
				<stop  offset="0" style="stop-color:#FF9085"/>
				<stop  offset="1" style="stop-color:#FB6FBB"/>
			</linearGradient>
			<path style="fill:url(#SVGID_00000017485664512017984560000018426048454322470568_);" d="M3125.513,1740.665
				c1.888,85.923-80.227,157.623-184.959,160.184c-106.483,2.604-195.697-67.031-197.642-155.572
				c-1.946-88.542,84.161-160.289,190.702-160.253C3038.403,1585.059,3123.625,1654.742,3125.513,1740.665z"/>
			
				<linearGradient id="SVGID_00000002368770515773408340000007360983193242194586_" gradientUnits="userSpaceOnUse" x1="1661.8042" y1="2375.1599" x2="1923.0177" y2="2859.6335" gradientTransform="matrix(0.9998 -0.022 0.022 0.9998 1146.9091 -724.6161)">
				<stop  offset="0" style="stop-color:#FF9085"/>
				<stop  offset="1" style="stop-color:#FB6FBB"/>
			</linearGradient>
			<path style="fill:url(#SVGID_00000002368770515773408340000007360983193242194586_);" d="M3125.513,1740.665
				c1.888,85.923-80.227,157.623-184.959,160.184c-106.483,2.604-195.697-67.031-197.642-155.572
				c-1.946-88.542,84.161-160.289,190.702-160.253C3038.403,1585.059,3123.625,1654.742,3125.513,1740.665z"/>
			<g>
				<path style="fill:#FFFFFF;" d="M3042.892,1699.47L3042.892,1699.47c-8.482-21.972-28.722-37.465-52.079-37.331
					c-30.591,0.176-54.91,27.071-54.185,60.071c-0.725-33-26.318-59.609-57.299-59.431c-23.857,0.137-43.972,16.107-51.741,38.568
					h-0.001c-29.7,80.585,111.936,152.609,111.936,152.609S3074.892,1777.791,3042.892,1699.47z"/>
			</g>
			<g style="opacity:0.3;">
				
					<linearGradient id="SVGID_00000168097101779717727120000012237530155845342628_" gradientUnits="userSpaceOnUse" x1="1589.4352" y1="2402.78" x2="1846.4348" y2="2918.5164" gradientTransform="matrix(0.9998 -0.022 0.022 0.9998 1146.9091 -724.6161)">
					<stop  offset="0" style="stop-color:#FF9085"/>
					<stop  offset="1" style="stop-color:#FB6FBB"/>
				</linearGradient>
				<path style="fill:url(#SVGID_00000168097101779717727120000012237530155845342628_);" d="M2985.928,1859.641
					c-23.965-46.06-1.724-89.904-33.428-119.564c-32.368-30.281-73.163-1.298-118.596-25.904
					c-17.65-9.559-37.503-28.028-52.838-66.34c-24.654,27.058-38.958,60.87-38.154,97.444
					c1.946,88.542,91.16,158.176,197.642,155.572c24.146-0.59,47.076-4.852,68.04-12.095
					C2997.975,1879.117,2990.856,1869.112,2985.928,1859.641z"/>
			</g>
		</g>
	</g>
</g>
</svg>
