<?xml version="1.0" encoding="utf-8"?>
<!-- Generator: Adobe Illustrator 27.5.0, SVG Export Plug-In . SVG Version: 6.00 Build 0)  -->
<svg version="1.1" xmlns="http://www.w3.org/2000/svg" xmlns:xlink="http://www.w3.org/1999/xlink" x="0px" y="0px"
	 viewBox="0 0 750 500" style="enable-background:new 0 0 750 500;" xml:space="preserve">
<g id="BACKGROUND">
	<rect x="0.5" style="fill:#FFFFFF;" width="750" height="500"/>
</g>
<g id="OBJECTS">
	<g>
		<g>
			<path style="fill:#E7E9EE;" d="M106.582,239.648c14.697,9.774,32.374,16.322,48.783,24.263
				c15.786,7.64,32.268,20.161,27.895,34.25c-3.307,10.657-17.062,16.78-27.705,23.937c-23.903,16.075-34.304,42.955-27.526,66.855
				c23.011-0.466,46.025-0.775,69.053-0.387c45.9,0.773,91.765,2.813,137.646,4.246c46.339,1.447,92.694,1.742,139.053,1.863
				c4.392,0.011,8.785,0.012,13.179,0.008c-0.283-0.917-0.451-1.877-0.448-2.89c0.043-13.881,25.277-24.877,35.485-29.493
				c15.086-6.82,31.238-11.018,47.521-13.662c26.846-4.359,55.413-1.293,81.168-11.309c14.552-5.66,27.812-18.77,27.575-34.521
				c-0.229-15.132-12.316-27.099-22.733-36.512c-3.546-3.204-7.1-6.196-10.329-8.963c-16.962-14.535-33.161-32.447-39.526-54.48
				c-7.173-24.832-5.158-51.619-11.481-76.705c-16.032-63.599-83.09-96.612-143.242-101.629
				c-34.604-2.886-69.929,4.475-100.469,21.198c-14.979,8.202-28.323,18.441-39.993,30.958
				c-12.081,12.959-23.411,26.831-38.678,36.156c-31.737,19.385-74.549,19.178-111.474,28.5
				c-31.864,8.044-76.848,29.435-79.307,58.608c-0.021,0.299-0.043,0.598-0.064,0.896
				C80.165,215.892,91.886,229.874,106.582,239.648z"/>
		</g>
	</g>
	<g>
		<g>
			<path style="fill:#2F36AC;" d="M576.686,421.249H159.158c-5.45,0-9.868-4.418-9.868-9.868v-287.63
				c0-5.45,4.418-9.868,9.868-9.868h417.528c5.45,0,9.868,4.418,9.868,9.868v287.63
				C586.554,416.831,582.136,421.249,576.686,421.249z"/>
			<path style="fill:#010089;" d="M597.619,438.903H138.225c-8.379,0-15.172-6.793-15.172-15.172v-14.262h489.739v14.262
				C612.792,432.111,605.999,438.903,597.619,438.903z"/>
			<rect x="165.368" y="135.887" style="fill:#FFFFFF;" width="405.107" height="263.358"/>
		</g>
		<g>
			<g>
				<g>
					<g>
						<path style="fill:#010089;" d="M413.127,220.456c-8.031-9.82-18.896-17.486-31.305-20.552
							c-12.591-3.111-27.811-1.82-39.331,4.286c-24.319,12.89-39.443,42.913-29.363,69.548c2.309,6.101,5.661,11.763,9.67,16.898
							c3.828,4.903,8.41,9.045,12.732,13.49c4.405,4.531,8.528,9.608,10.088,15.865c1.232,4.94-1.124,12.009,4.255,15.034
							c2.688,1.512,6.95,0.718,9.942,0.682c4.206-0.052,8.412-0.099,12.618-0.141c3.107-0.031,6.245,0.145,9.348-0.026
							c2.059-0.113,4.696-0.348,6.273-1.849c1.698-1.616,1.918-4.289,1.955-6.479c0.058-3.491,0.163-6.678,1.45-9.985
							c2.613-6.716,7.718-12.116,12.923-16.94c10.003-9.271,17.823-19.959,20.558-33.578c2.597-12.931,0.308-26.427-6.136-37.907
							C417.151,225.858,415.227,223.094,413.127,220.456c-0.412-0.518-1.136,0.215-0.727,0.727
							c8.415,10.564,13.166,23.715,12.529,37.285c-0.629,13.387-6.395,25.747-15.487,35.475
							c-7.815,8.362-18.665,15.781-20.316,28.057c-0.365,2.715,0.211,5.546-0.432,8.226c-0.962,4.014-4.855,4.275-8.304,4.326
							c-6.713,0.098-13.434,0.042-20.149,0.119c-3.439,0.039-8.821,1.067-11.381-1.71c-2.355-2.555-1.487-6.506-1.674-9.654
							c-0.296-4.991-2.613-9.72-5.537-13.686c-3.116-4.225-6.98-7.807-10.695-11.49c-4.359-4.322-8.327-8.953-11.586-14.172
							c-7.345-11.76-10.335-25.491-7.208-39.117c3.005-13.094,10.805-24.778,21.135-33.263
							c12.157-9.985,28.163-13.895,43.703-11.586c14.07,2.09,26.502,10.306,35.403,21.189
							C412.819,221.696,413.543,220.965,413.127,220.456z"/>
					</g>
				</g>
				<g>
					<path style="fill:#010089;" d="M384.856,337.98h-34.189v-3.087h34.189V337.98z M351.515,337.132h32.492v-1.391h-32.492V337.132
						z"/>
				</g>
				<g>
					<path style="fill:#010089;" d="M383.865,354.558h-31.998c-1.058,0-2.082-0.442-2.885-1.246l-0.138-0.138
						c-0.827-0.827-0.885-2.294-0.126-3.202l0.264-0.316c0.41-0.492,0.392-1.33-0.041-1.792l-0.206-0.221
						c-0.771-0.824-0.821-2.221-0.111-3.115l0.337-0.424c0.409-0.516,0.36-1.382-0.103-1.816c-0.844-0.794-0.95-2.212-0.238-3.16
						l0.893-1.19c0.419-0.561,1.089-0.896,1.79-0.896h33.13c0.701,0,1.371,0.335,1.791,0.896l0.892,1.19
						c0.712,0.948,0.604,2.365-0.239,3.16c-0.463,0.435-0.512,1.301-0.102,1.817l0.336,0.423c0.709,0.895,0.659,2.291-0.11,3.115
						l-0.208,0.221c-0.433,0.462-0.451,1.3-0.04,1.792l0.264,0.315c0.758,0.91,0.7,2.376-0.125,3.203l-0.139,0.138
						C385.948,354.116,384.922,354.558,383.865,354.558z M351.301,338.07c-0.379,0-0.74,0.181-0.967,0.483l-0.893,1.19
						c-0.394,0.524-0.337,1.362,0.121,1.793c0.853,0.802,0.946,2.271,0.204,3.206l-0.338,0.425
						c-0.392,0.493-0.365,1.321,0.058,1.771l0.206,0.221c0.79,0.845,0.826,2.26,0.08,3.154l-0.265,0.316
						c-0.417,0.499-0.387,1.365,0.064,1.816l0.137,0.138c0.609,0.608,1.376,0.943,2.158,0.943h31.998
						c0.783,0,1.55-0.335,2.159-0.943l0.138-0.138c0.449-0.451,0.48-1.317,0.063-1.817l-0.263-0.314
						c-0.748-0.896-0.712-2.312,0.079-3.155l0.207-0.221c0.421-0.45,0.447-1.279,0.056-1.772l-0.336-0.423
						c-0.743-0.936-0.65-2.404,0.202-3.207c0.458-0.431,0.516-1.268,0.122-1.793l-0.893-1.19c-0.228-0.303-0.589-0.483-0.968-0.483
						H351.301z"/>
				</g>
				<g>
					<g>
						<path style="fill:#010089;" d="M364.659,335.559c-0.234-14.139-0.592-28.58-2.367-42.615c-0.6-4.743-1.67-10.023-4.406-14.041
							c-1.323-1.942-3.429-3.875-5.97-3.45c-2.479,0.415-4.045,2.799-3.595,5.238c0.665,3.609,4.393,6.217,7.84,6.684
							c9.12,1.234,15.663-5.667,15.953-14.507c0.091-2.765-0.744-5.598-3.889-6.146c-2.555-0.445-4.213,1.774-4.474,4.097
							c-0.575,5.133,2.149,14.177,7.969,15.35c4.247,0.856,8.925-1.579,11.803-4.537c2.048-2.104,5.349-6.383,3.103-9.393
							c-2.871-3.846-7.493,0.293-9.312,2.851c-3.428,4.821-4.854,10.708-5.26,16.533c-1.013,14.515-1.122,29.144-1.388,43.687
							c-0.006,0.342,0.515,0.34,0.53,0c0.42-9.347,0.634-18.7,0.962-28.051c0.314-8.943-0.331-18.867,3.306-27.238
							c0.843-1.94,1.896-3.773,3.221-5.425c1.805-2.252,6.779-5.245,7.787-0.477c0.801,3.789-4.379,8.282-7.275,9.815
							c-3.472,1.838-7.87,2.518-10.727-0.628c-1.972-2.172-3.046-5.2-3.618-8.033c-0.473-2.344-1.128-6.999,2.093-7.793
							c4.624-1.139,4.64,5.185,4.133,7.917c-0.721,3.888-2.766,7.907-6.346,9.866c-3.379,1.849-8.534,2.209-11.887,0.176
							c-2.88-1.747-6.296-7.436-1.365-9.119c2.99-1.02,5.381,2.078,6.6,4.343c3.477,6.459,3.773,14.258,4.314,21.42
							c0.842,11.148,1.26,22.318,1.91,33.476C364.318,335.784,364.662,335.788,364.659,335.559L364.659,335.559z"/>
					</g>
				</g>
				<g>
					<path style="fill:#010089;" d="M382.642,343.32h-32.938c-0.284,0-0.515-0.23-0.515-0.515c0-0.284,0.23-0.515,0.515-0.515
						h32.938c0.284,0,0.515,0.23,0.515,0.515C383.157,343.09,382.926,343.32,382.642,343.32z"/>
				</g>
				<g>
					<path style="fill:#010089;" d="M386.019,348.763h-26.357c-0.284,0-0.515-0.23-0.515-0.515c0-0.284,0.23-0.515,0.515-0.515
						h26.357c0.284,0,0.515,0.23,0.515,0.515C386.534,348.533,386.303,348.763,386.019,348.763z"/>
				</g>
			</g>
			<g>
				<g>
					<g>
						<polyline style="fill:none;stroke:#1C1C1C;stroke-width:0.9264;stroke-miterlimit:10;" points="455.847,362.076 
							455.847,364.392 453.531,364.392 						"/>
						
							<line style="fill:none;stroke:#1C1C1C;stroke-width:0.9264;stroke-miterlimit:10;stroke-dasharray:4.6275,4.6275;" x1="448.904" y1="364.392" x2="284.627" y2="364.392"/>
						<polyline style="fill:none;stroke:#1C1C1C;stroke-width:0.9264;stroke-miterlimit:10;" points="282.313,364.392 
							279.997,364.392 279.997,362.076 						"/>
						
							<line style="fill:none;stroke:#1C1C1C;stroke-width:0.9264;stroke-miterlimit:10;stroke-dasharray:4.6275,4.6275;" x1="279.997" y1="357.448" x2="279.997" y2="193.171"/>
						<polyline style="fill:none;stroke:#1C1C1C;stroke-width:0.9264;stroke-miterlimit:10;" points="279.997,190.858 
							279.997,188.542 282.313,188.542 						"/>
						
							<line style="fill:none;stroke:#1C1C1C;stroke-width:0.9264;stroke-miterlimit:10;stroke-dasharray:4.6275,4.6275;" x1="286.94" y1="188.542" x2="451.217" y2="188.542"/>
						<polyline style="fill:none;stroke:#1C1C1C;stroke-width:0.9264;stroke-miterlimit:10;" points="453.531,188.542 
							455.847,188.542 455.847,190.858 						"/>
						
							<line style="fill:none;stroke:#1C1C1C;stroke-width:0.9264;stroke-miterlimit:10;stroke-dasharray:4.6275,4.6275;" x1="455.847" y1="195.485" x2="455.847" y2="359.762"/>
					</g>
				</g>
				<g>
					<rect x="364.564" y="184.637" style="fill:#1C1C1C;" width="6.716" height="6.716"/>
					<rect x="276.638" y="184.637" style="fill:#1C1C1C;" width="6.717" height="6.716"/>
					<rect x="276.638" y="285.541" style="fill:#1C1C1C;" width="6.717" height="6.716"/>
					<rect x="452.489" y="184.637" style="fill:#1C1C1C;" width="6.716" height="6.716"/>
					<rect x="452.489" y="285.541" style="fill:#1C1C1C;" width="6.716" height="6.716"/>
				</g>
				<g>
					<rect x="364.564" y="360.619" style="fill:#1C1C1C;" width="6.716" height="6.717"/>
					<rect x="276.638" y="360.619" style="fill:#1C1C1C;" width="6.717" height="6.717"/>
					<rect x="452.489" y="360.619" style="fill:#1C1C1C;" width="6.716" height="6.717"/>
				</g>
			</g>
		</g>
		<g>
			
				<rect x="238.08" y="124.819" transform="matrix(0.983 -0.1836 0.1836 0.983 -22.8866 50.6716)" style="fill:#6674FF;" width="48.211" height="48.211"/>
			<polygon style="opacity:0.2;fill:#FAFAFF;" points="269.959,119.957 267.799,122.4 270.416,122.403 270.424,122.45 
				268.322,123.85 270.992,125.487 271.009,125.58 268.631,126.852 271.262,126.937 271.267,126.96 246.432,131.598 
				248.933,130.532 246.17,130.196 248.137,127.621 245.583,127.054 248.101,126.079 245.113,124.538 269.948,119.899 			"/>
			<g>
				<g>
					<g>
						<g>
							<path style="fill:#FAFAFF;" d="M247.428,142.3c1.295-0.235,2.57-0.466,3.865-0.701c-0.235-1.295-0.466-2.57-0.7-3.864
								c1.283-0.233,2.546-0.461,3.838-0.696c1.004,5.537,2.007,11.072,3.025,16.686c2.426-3.564,4.809-7.064,7.151-10.504
								c-2.328,0.422-4.792,0.868-7.271,1.318c-0.238-1.31-0.469-2.585-0.707-3.9c0.102-0.019,0.207-0.038,0.312-0.057
								c3.579-0.649,7.158-1.3,10.738-1.941c0.22-0.039,0.356-0.134,0.481-0.316c0.997-1.454,2.005-2.9,3.008-4.35
								c0.058-0.084,0.098-0.179,0.14-0.257c0.657,0.442,1.276,0.859,1.967,1.323c-0.086,0.083-0.175,0.144-0.232,0.227
								c-1.007,1.447-2.009,2.898-3.019,4.343c-0.11,0.158-0.136,0.3-0.102,0.488c0.656,3.587,1.305,7.176,1.956,10.764
								c0.019,0.108,0.039,0.215,0.061,0.339c-1.297,0.235-2.571,0.466-3.884,0.704c-0.449-2.475-0.898-4.958-1.335-7.365
								c-2.436,3.452-4.888,6.926-7.34,10.4c0.018,0.021,0.036,0.041,0.054,0.062c5.525-1.001,11.051-2.003,16.593-3.007
								c0.234,1.291,0.463,2.554,0.696,3.838c-1.265,0.229-2.521,0.457-3.808,0.69c0.239,1.32,0.475,2.62,0.713,3.936
								c-1.312,0.238-2.593,0.47-3.895,0.706c-0.236-1.302-0.47-2.595-0.71-3.919c-4.808,0.872-9.595,1.739-14.412,2.613
								c-0.87-4.8-1.734-9.569-2.603-14.359c-1.304,0.236-2.579,0.468-3.873,0.702C247.9,144.902,247.668,143.621,247.428,142.3z"/>
						</g>
					</g>
				</g>
			</g>
		</g>
		<g>
			<rect x="169.9" y="124.367" style="fill:#FFC746;" width="48.211" height="48.21"/>
			<polygon style="opacity:0.2;fill:#FAFAFF;" points="206.964,121.424 204.393,123.43 206.964,123.913 206.964,123.96 
				204.641,124.951 206.964,127.05 206.964,127.145 204.393,127.959 206.964,128.525 206.964,128.548 181.7,128.548 
				184.354,127.959 181.7,127.121 184.107,124.951 181.7,123.925 184.354,123.43 181.7,121.366 206.964,121.366 			"/>
			<g>
				<g>
					<g>
						
							<rect x="175.365" y="149.661" transform="matrix(0.7071 -0.7071 0.7071 0.7071 -51.4662 179.4116)" style="fill:#FAFAFF;" width="30.943" height="4.339"/>
					</g>
				</g>
				<g>
					<g>
						<path style="fill:#FAFAFF;" d="M191.791,139.16c-2.519,1.201-2.443,1.124-3.643,3.643c-1.201-2.519-1.124-2.443-3.643-3.643
							c2.519-1.201,2.443-1.124,3.643-3.643C189.348,138.035,189.272,137.959,191.791,139.16z"/>
					</g>
				</g>
				<g>
					<g>
						<path style="fill:#FAFAFF;" d="M209.648,152.329c-2.856,1.361-2.77,1.275-4.131,4.131c-1.361-2.856-1.275-2.77-4.131-4.131
							c2.856-1.361,2.77-1.275,4.131-4.131C206.878,151.054,206.792,150.968,209.648,152.329z"/>
					</g>
				</g>
				<g>
					<g>
						<path style="fill:#FAFAFF;" d="M200.628,135.114c-1.711,0.815-1.659,0.764-2.474,2.475c-0.815-1.711-0.764-1.659-2.475-2.475
							c1.711-0.815,1.659-0.764,2.475-2.474C198.969,134.351,198.917,134.299,200.628,135.114z"/>
					</g>
				</g>
			</g>
		</g>
		<g>
			<rect x="474.067" y="152.422" style="fill:#E2E2ED;" width="83.5" height="91.968"/>
			<rect x="474.067" y="152.422" style="fill:#C7C7D3;" width="83.5" height="14.77"/>
			<g>
				
					<line style="fill:none;stroke:#1C1C1C;stroke-linecap:round;stroke-linejoin:round;stroke-miterlimit:10;" x1="547.623" y1="158.161" x2="550.915" y2="161.453"/>
				
					<line style="fill:none;stroke:#1C1C1C;stroke-linecap:round;stroke-linejoin:round;stroke-miterlimit:10;" x1="547.623" y1="161.453" x2="550.915" y2="158.161"/>
			</g>
			<g>
				<g>
					<rect x="482.077" y="174.311" style="fill:#C7C7D3;" width="6.75" height="6.75"/>
					<g>
						<line style="fill:none;stroke:#C7C7D3;stroke-miterlimit:10;" x1="494.952" y1="179.811" x2="546.827" y2="179.811"/>
						<line style="fill:none;stroke:#C7C7D3;stroke-miterlimit:10;" x1="494.952" y1="175.561" x2="546.827" y2="175.561"/>
					</g>
				</g>
				<g>
					<rect x="482.077" y="188.18" style="fill:#C7C7D3;" width="6.75" height="6.75"/>
					<g>
						<line style="fill:none;stroke:#C7C7D3;stroke-miterlimit:10;" x1="494.952" y1="193.68" x2="546.827" y2="193.68"/>
						<line style="fill:none;stroke:#C7C7D3;stroke-miterlimit:10;" x1="494.952" y1="189.43" x2="546.827" y2="189.43"/>
					</g>
				</g>
				<g>
					<rect x="482.077" y="202.049" style="fill:#C7C7D3;" width="6.75" height="6.75"/>
					<g>
						<line style="fill:none;stroke:#C7C7D3;stroke-miterlimit:10;" x1="494.952" y1="207.549" x2="546.827" y2="207.549"/>
						<line style="fill:none;stroke:#C7C7D3;stroke-miterlimit:10;" x1="494.952" y1="203.299" x2="546.827" y2="203.299"/>
					</g>
				</g>
				<g>
					<rect x="482.077" y="215.918" style="fill:#C7C7D3;" width="6.75" height="6.75"/>
					<g>
						<line style="fill:none;stroke:#C7C7D3;stroke-miterlimit:10;" x1="494.952" y1="221.418" x2="546.827" y2="221.418"/>
						<line style="fill:none;stroke:#C7C7D3;stroke-miterlimit:10;" x1="494.952" y1="217.168" x2="546.827" y2="217.168"/>
					</g>
				</g>
				<g>
					<rect x="482.077" y="229.787" style="fill:#C7C7D3;" width="6.75" height="6.75"/>
					<g>
						<line style="fill:none;stroke:#C7C7D3;stroke-miterlimit:10;" x1="494.952" y1="235.287" x2="546.827" y2="235.287"/>
						<line style="fill:none;stroke:#C7C7D3;stroke-miterlimit:10;" x1="494.952" y1="231.037" x2="546.827" y2="231.037"/>
					</g>
				</g>
			</g>
		</g>
		<g>
			<rect x="179.26" y="183.149" style="fill:#E2E2ED;" width="48.099" height="154.831"/>
			<rect x="179.26" y="183.149" style="fill:#C7C7D3;" width="48.099" height="9.233"/>
			<g>
				<polygon style="fill:#1C1C1C;" points="184.276,189.975 182.066,187.766 184.276,185.556 183.672,187.766 				"/>
				<polygon style="fill:#1C1C1C;" points="186.943,189.975 184.733,187.766 186.943,185.556 186.339,187.766 				"/>
			</g>
			<rect x="185.005" y="197.398" style="fill:#C7C7D3;" width="15.859" height="15.859"/>
			<rect x="205.755" y="197.398" style="fill:#C7C7D3;" width="15.859" height="15.859"/>
			<rect x="185.005" y="218.273" style="fill:#C7C7D3;" width="15.859" height="15.859"/>
			<rect x="205.755" y="218.273" style="fill:#C7C7D3;" width="15.859" height="15.859"/>
			<rect x="185.005" y="239.148" style="fill:#C7C7D3;" width="15.859" height="15.859"/>
			<rect x="205.755" y="239.148" style="fill:#C7C7D3;" width="15.859" height="15.859"/>
			<rect x="185.005" y="260.023" style="fill:#C7C7D3;" width="15.859" height="15.859"/>
			<rect x="205.755" y="260.023" style="fill:#C7C7D3;" width="15.859" height="15.859"/>
			<g>
				<rect x="185.005" y="280.898" style="fill:#C7C7D3;" width="15.859" height="15.859"/>
				<rect x="205.755" y="280.898" style="fill:#C7C7D3;" width="15.859" height="15.859"/>
			</g>
			<g>
				<rect x="185.005" y="301.773" style="fill:#C7C7D3;" width="15.859" height="15.859"/>
				<rect x="205.755" y="301.773" style="fill:#C7C7D3;" width="15.859" height="15.859"/>
			</g>
			<g>
				<polygon style="fill:#1C1C1C;" points="190.836,200.131 190.836,210.523 193.487,207.236 198.153,207.13 				"/>
			</g>
			<g>
				<polygon style="fill:#FFFFFF;" points="210.026,200.131 210.026,210.523 212.678,207.236 217.343,207.13 				"/>
			</g>
			<polygon style="fill:#1C1C1C;" points="188.69,222.394 188.69,224.581 189.326,224.581 189.326,223.031 192.617,223.031 
				192.617,230.089 191.155,230.089 191.155,230.725 194.834,230.725 194.834,230.089 193.253,230.089 193.253,223.031 
				196.544,223.031 196.544,224.581 197.18,224.581 197.18,222.394 			"/>
			<g>
				
					<rect x="207.388" y="225.884" transform="matrix(0.7072 -0.707 0.707 0.7072 -97.3613 217.3166)" style="fill:#1C1C1C;" width="12.593" height="0.636"/>
			</g>
			<path style="fill:#1C1C1C;" d="M198.368,251.69h-10.866v-9.226h10.866V251.69z M188.138,251.054h9.594v-7.953h-9.594V251.054z"/>
			<path style="fill:#1C1C1C;" d="M219.363,241.787h-8.774v4.53h-2.582v6.051h6.481v-2.389h4.875V241.787z M214.018,251.898h-5.541
				v-5.111h2.112v3.192h3.43V251.898z M214.018,249.343h-2.793v-2.556h2.793V249.343z M218.727,249.343h-4.239v-3.026h-3.263v-3.893
				h7.502V249.343z"/>
			<g>
				<g>
					<g>
						
							<rect x="187.547" y="268.296" transform="matrix(0.7071 -0.7071 0.7071 0.7071 -133.9163 214.5437)" style="fill:#1C1C1C;" width="8.944" height="1.254"/>
					</g>
				</g>
				<g>
					<g>
						<path style="fill:#1C1C1C;" d="M192.295,265.26c-0.728,0.347-0.706,0.325-1.053,1.053c-0.347-0.728-0.325-0.706-1.053-1.053
							c0.728-0.347,0.706-0.325,1.053-1.053C191.589,264.935,191.567,264.913,192.295,265.26z"/>
					</g>
				</g>
				<g>
					<g>
						<path style="fill:#1C1C1C;" d="M197.456,269.067c-0.826,0.393-0.801,0.368-1.194,1.194c-0.394-0.826-0.369-0.801-1.194-1.194
							c0.826-0.394,0.801-0.369,1.194-1.194C196.656,268.699,196.631,268.674,197.456,269.067z"/>
					</g>
				</g>
				<g>
					<g>
						<path style="fill:#1C1C1C;" d="M194.849,264.091c-0.495,0.236-0.48,0.221-0.715,0.715c-0.236-0.495-0.221-0.48-0.715-0.715
							c0.495-0.236,0.48-0.221,0.715-0.715C194.37,263.87,194.355,263.855,194.849,264.091z"/>
					</g>
				</g>
			</g>
			<g>
				<g>
					<g>
						<path style="fill:#1C1C1C;" d="M209.223,264.949c0.437-0.008,0.868-0.016,1.305-0.023c-0.008-0.437-0.016-0.868-0.023-1.305
							c0.433-0.008,0.86-0.015,1.296-0.023c0.034,1.87,0.067,3.739,0.101,5.634c0.986-1.04,1.954-2.06,2.906-3.063
							c-0.786,0.014-1.618,0.029-2.455,0.044c-0.008-0.442-0.016-0.873-0.024-1.317c0.034-0.001,0.07-0.001,0.105-0.002
							c1.209-0.022,2.417-0.044,3.626-0.064c0.074-0.001,0.124-0.025,0.175-0.078c0.405-0.423,0.813-0.844,1.219-1.266
							c0.023-0.024,0.042-0.053,0.06-0.077c0.192,0.18,0.373,0.35,0.575,0.539c-0.033,0.023-0.065,0.038-0.088,0.062
							c-0.408,0.421-0.813,0.843-1.222,1.263c-0.045,0.046-0.061,0.091-0.059,0.155c0.024,1.212,0.045,2.423,0.067,3.635
							c0.001,0.036,0.001,0.073,0.002,0.114c-0.438,0.008-0.868,0.016-1.312,0.024c-0.015-0.836-0.03-1.674-0.045-2.487
							c-0.983,1.002-1.973,2.011-2.962,3.019c0.005,0.008,0.009,0.016,0.014,0.023c1.866-0.034,3.731-0.067,5.603-0.101
							c0.008,0.436,0.015,0.862,0.023,1.296c-0.427,0.008-0.851,0.015-1.286,0.023c0.008,0.446,0.016,0.885,0.024,1.329
							c-0.443,0.008-0.875,0.016-1.315,0.024c-0.008-0.44-0.016-0.876-0.024-1.323c-1.624,0.029-3.24,0.058-4.867,0.087
							c-0.029-1.621-0.058-3.231-0.087-4.848c-0.44,0.008-0.871,0.016-1.308,0.023C209.238,265.828,209.231,265.395,209.223,264.949
							z"/>
					</g>
				</g>
			</g>
			<g>
				
					<line style="fill:none;stroke:#1C1C1C;stroke-width:0.6974;stroke-miterlimit:10;" x1="210.776" y1="282.765" x2="210.776" y2="285.424"/>
				
					<line style="fill:none;stroke:#1C1C1C;stroke-width:0.6974;stroke-miterlimit:10;" x1="207.158" y1="286.121" x2="209.817" y2="286.121"/>
				<path style="fill:#1C1C1C;" d="M210.427,285.773v8.021h8.718l0.037-4.852l-1.767-1.583l-1.769-1.585H210.427z M219.182,288.941
					l-3.536-3.169l1.769,1.585L219.182,288.941z M211.124,293.096v-6.626h4.635v2.412h2.688v4.214H211.124z"/>
			</g>
			<path style="fill:none;stroke:#1C1C1C;stroke-miterlimit:10;" d="M198.013,288.885c0,2.813-2.281,5.094-5.094,5.094
				s-5.094-2.281-5.094-5.094c0-2.813,2.281-5.094,5.094-5.094S198.013,286.072,198.013,288.885z"/>
		</g>
	</g>
	<g>
		<g>
			<g>
				<g>
					<path style="fill:#6674FF;" d="M280.325,462.368h-19.53c-5.541,0-3.888-3.997-3.67-7.957h0.018
						c0-0.273,0.018-0.527,0.018-0.799c0-4.197-1.054-5.069-1.054-5.069l11.663-3.488c0,0,0.4,4.487,3.924,7.085
						c1.49,1.108,3.688,1.744,6.031,2.289l0.018,0.018c3.179,0.727,6.686,1.363,9.284,2.925
						C291.571,460.097,287.138,462.368,280.325,462.368z"/>
					<path style="fill:#A3D5FA;" d="M268.064,402.522c0,6.397-0.747,12.221-2.166,17.51c-3.273,12.171-10.13,21.53-19.701,28.512
						c-16.838,12.308-42.077,17.261-71.087,17.261c-84.179,0.61-118.963-41.865-96.898-108.098
						c11.325-33.975,34.685-48.698,53.402-55.082c0.709-0.249,1.406-0.473,2.103-0.697c5.687-1.792,10.877-2.813,15.046-3.398
						c6.297-0.884,10.292-0.772,10.292-0.772C244.742,296.24,268.064,355.591,268.064,402.522z"/>
					<path style="fill:#6674FF;" d="M197.818,341.502l6.892,19.038c0,0,22.851,4.148,27.029,4.294
						c0.956,2.538-1.151,5.195-1.151,5.195s-21.133-0.434-25.486-0.83c-3.422-0.311-12.161-2.333-12.161-2.333l-4.667-25.364
						H197.818z"/>
					<path style="opacity:0.3;fill:#A3D5FA;" d="M265.899,420.032c-3.273,12.171-10.13,21.53-19.701,28.512
						c-16.838,12.308-42.077,17.261-71.087,17.261c-84.179,0.61-118.963-41.865-96.898-108.098
						c5.206-15.618,14.121-29.941,26.9-40.459c12.962-10.669,27.495-14.339,43.383-18.84
						c-27.442,19.013-37.584,54.855-25.648,85.791c10.47,27.137,37.145,45.74,64.455,53.287c23.203,6.411,50.165,5.64,70.034-9.355
						C260.48,425.758,263.356,423.038,265.899,420.032z"/>
					<g>
						<path style="fill:#6674FF;" d="M308.309,459.639l-18.982-0.771c-5.541,0-4.436-3.226-4.218-7.186h0.018
							c0-0.272,0.125-0.549,0.018-0.799c-1.831-4.307-8.49-8.118-8.49-8.118l12.827-4.224c0,0,6.672,8.272,10.196,10.87
							c1.49,1.108,3.688,1.744,6.031,2.289l0.018,0.018c3.179,0.727,6.686,1.363,9.284,2.925
							C319.554,457.368,315.121,459.639,308.309,459.639z"/>
						<path style="fill:#FF9400;" d="M239.591,383.937c0,0,6.586-0.709,13.966,9.623c7.38,10.333,40.711,49.528,40.711,49.528
							s-6.647,5.201-11.189,5.768c-3.066-2.952-29.068-23.845-29.068-23.845l-12.717-35.123l-3.406-2.12l-11.103-3.863
							L239.591,383.937z"/>
					</g>
					<path style="fill:#010089;" d="M180.519,319.296c0,0,9.302,12.624,9.467,13.084c1.833,5.078,13.481,40.709,15.116,50.354
						c-9.084,4.41-17.581,1.624-37.565,1.927c-5.602,0-7.267,0-7.267,0s-6.319-29.647-8.327-36.789
						c-6.293-22.385,13.474-30.165,13.474-30.165L180.519,319.296z"/>
					<path style="fill:#FF9400;" d="M204.224,378.678l30.31,1.009c8.9,0,16.708,5.934,19.092,14.508l15.223,53.772
						c0,0-4.657,4.039-12.122,3.36c-1.009-3.306-4.864-12.922-8.346-19.129c-3.482-6.207-14.988-27.705-15.745-31.944
						c-6.813,3.331-31.187,9.084-31.187,9.084l-21.347-7.57l-7.872-12.868c0,0-6.434-6.013-4.542-6.056
						C186.356,382.423,204.224,378.678,204.224,378.678z"/>
					<g>
						<path style="fill:#FF6700;" d="M234.534,379.687c1.701,0.001,3.402,0.198,5.061,0.6c1.659,0.407,3.25,1.063,4.753,1.877
							c1.505,0.817,2.879,1.865,4.107,3.057c1.226,1.192,2.332,2.523,3.2,4.004c0.873,1.473,1.601,3.042,2.076,4.693l1.419,4.903
							l2.82,9.807l5.479,19.659l2.737,9.83l2.662,9.852l-2.897-9.785l-2.822-9.806l-5.639-19.614l-2.739-9.83
							c-0.965-3.257-1.587-6.653-3.379-9.538C247.94,383.572,241.365,379.733,234.534,379.687z"/>
					</g>
					<path style="fill:#6674FF;" d="M170.955,348.613c0,0,4.95,14.79,5.858,16.153c7.494,1.93,27.51,6.565,31.477,7.039
						l-1.074,5.095c-30.723-1.123-36.316-0.839-39.269-4.019c-2.952-3.179-10.554-18.954-10.554-18.954"/>
					<path style="fill:#010089;" d="M165.417,317.706c0,0-5.299,3.974-9.084,7.305c-3.785,3.331-8.402,11.209,0.049,32.697
						c3.818,0.237,11.5-0.234,20.431-6.657c-2.161-7.267-4.886-14.231-4.886-14.231"/>
					<g>
						<path style="fill:#020242;" d="M152.679,345.979c1.001,3.982,2.378,7.85,3.907,11.648l-0.198-0.138
							c1.822,0.003,3.645-0.063,5.448-0.301c1.803-0.236,3.585-0.619,5.316-1.164c1.729-0.549,3.418-1.231,5.008-2.107
							c1.593-0.867,3.095-1.897,4.495-3.054l-0.076,0.257c-0.826-2.794-1.793-5.552-2.842-8.279
							c-1.052-2.726-2.128-5.445-3.299-8.126c1.265,2.637,2.479,5.302,3.594,8.009c1.104,2.711,2.158,5.447,3.018,8.256l0.047,0.153
							l-0.123,0.104c-2.825,2.378-6.106,4.254-9.655,5.32c-3.54,1.083-7.261,1.498-10.94,1.368l-0.148-0.005l-0.051-0.133
							C154.714,353.947,153.476,350.009,152.679,345.979z"/>
					</g>
					<path style="fill:#010089;" d="M179.709,318.385c0,0,6.324,3.033,8.077,4.09c4.958,2.99,10.521,19.355,10.521,19.355
						s-1.4,1.261-7.001,2.219"/>
					<g>
						<path style="fill:#6674FF;" d="M177.8,323.719c-5.003,1.257-9.433-2.377-12.383-6.011c1.506-1.805,2.103-4.368,2.315-6.434
							c0.199-1.991,0.062-3.522,0.062-3.522s8.948,0.896,9.744,4.766c-0.149,0.348-0.211,0.734-0.187,1.133v0.012
							c0.012,0.61,0.212,1.257,0.498,1.879c0.896,1.979,2.663,3.758,2.663,3.758S181.197,322.586,177.8,323.719z"/>
						<path style="fill:#0A1828;" d="M185.65,298.983c0,0,5.397-0.297,4.829-7.798c-0.568-7.502-7.739-6.645-7.739-6.645
							c0.583-2.612-6.413-6.207-10.618-2.456c-2.346-1.512-6.294,0.988-6.067,3.034c-2.411-1.556-12.056,2.722-8.207,11.925
							c-2.994,0.571-3.231,10.28,4.693,9.459c8.037-0.935,14.971-3.663,14.971-3.663L185.65,298.983z"/>
						<path style="fill:#6674FF;" d="M185.808,300.112c0,0,2.454,14.054-12.307,13.876c-0.276-0.003-0.567-0.026-0.838-0.075
							c-4.712-0.85-6.878-4.869-7.541-6.862c-1.023,0.563-5.229-0.687-2.955-4.779c1.25-2.046,3.637,0,4.66,3.069
							c0.341-2.501-0.341-4.433,0.682-5.91c1.137,0.682,4.603,1.932,6.223-0.909c2.529,0.909,6.735,2.16,8.326-2.501
							c1.705,1.137,3.069,1.137,3.069,1.137S185.663,298.408,185.808,300.112z"/>
					</g>
					<g>
						<path style="fill:#020242;" d="M189.986,332.38c0.447,0.97,0.834,1.959,1.212,2.951c0.384,0.99,0.726,1.994,1.068,2.998
							c0.329,1.008,0.656,2.017,0.942,3.04c0.291,1.021,0.574,2.045,0.796,3.091c-0.447-0.968-0.834-1.957-1.213-2.949
							c-0.384-0.99-0.726-1.995-1.067-2.999c-0.328-1.009-0.656-2.018-0.942-3.042C190.492,334.448,190.209,333.423,189.986,332.38z
							"/>
					</g>
					<path style="fill:#A3D5FA;" d="M149.334,376.485c0,0,27.589-5.45,58.474,28.462c19.378,0,24.829,0,24.829,0l-46.024,28.765
						l-30.689-22.776L149.334,376.485z"/>
					<path style="fill:#6674FF;" d="M207.216,376.9c2.578-0.259,5.224,0.329,6.06,0.489c5.084,0.972,10.235,0.564,8.665-0.839
						c-0.208-0.186-2.952-0.961-3.419-1.517c-0.467-0.556,0.898-0.39,1.883,0.039c0.985,0.429,3.532,1.309,4.569,1.517
						s2.382,0.196,1.553-0.702c-0.83-0.897-5.686-4.308-6.686-4.725c-1.347-0.291-4.901-0.446-9.637,0.915"/>
					<path style="fill:#A3D5FA;" d="M142.263,327.769c0,0,19.239,13.732,23.154,58.698c-23.086,9.749-33.25-20.949-33.25-20.949"/>
					<path style="fill:#6674FF;" d="M230.873,364.922c0,0,3.422-0.311,4.926-0.726c1.504-0.415,6.487,0.363,6.487,0.363l-2.08,7.519
						c0,0-4.434-1.167-6.456-1.53c-2.022-0.363-3.163-0.519-3.163-0.519L230.873,364.922z"/>
					<g>
						<rect x="201.359" y="378.184" style="fill:#1C1C1C;" width="38.154" height="1.503"/>
						<g>
							
								<rect x="224.226" y="360.633" transform="matrix(0.2177 -0.976 0.976 0.2177 -162.6257 519.7436)" style="fill:#1C1C1C;" width="37.335" height="1.362"/>
						</g>
					</g>
					<path style="fill:#6674FF;" d="M208.29,371.805c0,0,1.471,0.216,3.624-0.168c0,0-0.124,4.096-0.124,4.225l0.124,0.856
						l-4.698,0.181l-1-1.944L208.29,371.805z"/>
					<g>
						<path style="fill:#485BE5;" d="M235.358,368.076c0.827-0.013,1.57-0.199,2.253-0.532c0.338-0.172,0.662-0.373,0.975-0.608
							c0.318-0.23,0.602-0.505,0.927-0.77c-0.079,0.192-0.18,0.373-0.281,0.559c-0.127,0.164-0.24,0.344-0.387,0.496
							c-0.276,0.324-0.636,0.569-1.014,0.772c-0.389,0.184-0.812,0.305-1.241,0.318
							C236.165,368.329,235.732,368.272,235.358,368.076z"/>
					</g>
					<path style="fill:#485BE5;" d="M177.849,315.543c-2.103,0.485-4.418-0.336-6.148-1.867c-0.162-0.137-0.336-0.286-0.485-0.448
						c2.887,0.709,5.078,0.56,5.837,0.473c0.075,0,0.137-0.012,0.187-0.025c0.075,0,0.112-0.013,0.112-0.013
						C177.364,314.273,177.563,314.92,177.849,315.543z"/>
				</g>
				<path style="fill:#0A1828;" d="M257.148,452.852c0.002,1.352-0.177,2.692-0.551,3.992c-0.549,1.913-0.974,5.474,3.467,5.495
					c6.074,0.029,30.386,0,30.386,0s-0.037-6.987-10.706-7.445c-2.322-0.538-8.049-2.755-8.049-2.755s-5.797,3.921-14.548,0.673
					C257.148,452.826,257.148,452.839,257.148,452.852z"/>
				<path style="fill:#0A1828;" d="M284.773,449.802c0.002,1.352-0.177,2.692-0.551,3.992c-0.549,1.913-0.974,5.474,3.467,5.495
					c6.074,0.029,30.386,0,30.386,0s-0.037-6.987-10.706-7.445c-2.322-0.538-8.049-2.755-8.049-2.755s-2.808,3.893-14.552,1.033
					C284.769,450.136,284.773,449.79,284.773,449.802z"/>
				<g>
					<path style="fill:none;stroke:#FFFFFF;stroke-linecap:round;stroke-linejoin:round;stroke-miterlimit:10;" d="M274.183,453.073
						c0,0-1.014,0.499-1.373,1.764"/>
					<path style="fill:none;stroke:#FFFFFF;stroke-linecap:round;stroke-linejoin:round;stroke-miterlimit:10;" d="M276.957,453.947
						c0,0-1.008,0.511-1.352,1.78"/>
					<path style="fill:none;stroke:#FFFFFF;stroke-linecap:round;stroke-linejoin:round;stroke-miterlimit:10;" d="M279.688,454.759
						c0,0-0.936,0.634-1.118,1.936"/>
				</g>
				<g>
					<path style="fill:none;stroke:#FFFFFF;stroke-linecap:round;stroke-linejoin:round;stroke-miterlimit:10;" d="M301.994,450.329
						c0,0-1.014,0.499-1.373,1.764"/>
					<path style="fill:none;stroke:#FFFFFF;stroke-linecap:round;stroke-linejoin:round;stroke-miterlimit:10;" d="M304.768,451.203
						c0,0-1.008,0.51-1.352,1.78"/>
					<path style="fill:none;stroke:#FFFFFF;stroke-linecap:round;stroke-linejoin:round;stroke-miterlimit:10;" d="M307.499,452.015
						c0,0-0.936,0.633-1.118,1.936"/>
				</g>
			</g>
			<g>
				<path style="fill:#1530A3;" d="M513.948,215.637c0,0-10.426-0.286-12.904,9.72c-2.001,7.909-4.288,16.009-4.288,16.009
					s9.815,8.386,35.257,2.287C531.346,238.316,535.523,216.113,513.948,215.637z"/>
				<path style="fill:#6674FF;" d="M486.426,267.732l-11.675,12.305l-18.153-6.575c0,0-3.145-4.493-4.574-5.034
					c-1.429-0.541-7.79-2.899-9.577-3.256c-1.787-0.357-0.429,1.215,1.215,2.216c1.644,1.001,2.001,1.572,2.787,2.501
					c0.786,0.929,2.144,3.716,1.93,3.859c-0.214,0.143-2.644,0.643-4.074-0.286c-1.429-0.929-3.404-1.501-2.703-0.357
					c0.701,1.143,3.846,4.431,9.635,5.003c1.572,0.143,6.075,3.951,11.292,7.478c5.217,3.528,10.148,7.21,14.222,7.21
					s17.158-14.611,17.158-14.611L486.426,267.732z"/>
				<g>
					<path style="fill:#6674FF;" d="M512.943,362.135c-2.738,7.941-6.988,22.727-6.856,26.561c1.095,17.524-2.53,36.002-4.644,42.65
						c-2.125,6.637-5.071,19.025-4.732,24.501c0.142,2.169,0.438,3.516,0.745,4.534c0.471,1.544,0.964,2.344,0.964,4.162
						c0,3.012-2.87,2.672-5.192,2.672c-2.333,0,1.5,0-13.351,0c-13.768,0.197-9.036-2.804-5.268-4.797
						c1.829-0.832,3.33-1.665,4.567-2.486c0.099-0.077,0.164-0.121,0.164-0.121c3.154-2.125,5.363-3.538,6.053-5.049
						c3.56-7.733,0.3-67.502,0.716-74.829c0.405-7.327,2.322-35.87,2.322-35.87l28.203,3.012
						C516.634,347.075,515.681,354.194,512.943,362.135z"/>
					<path style="fill:#0A1828;" d="M498.419,464.543c0,3.012-2.87,2.672-5.192,2.672c-2.333,0,1.5,0-13.351,0
						c-13.768,0.197-9.036-2.804-5.268-4.797c1.829-0.832,3.33-1.665,4.567-2.486c-0.58,0.427-2.399,1.873-1.238,2.333
						c1.369,0.548,19.693,2.169,19.518-1.884C497.927,461.926,498.419,462.725,498.419,464.543z"/>
				</g>
				<g>
					<path style="fill:#6674FF;" d="M536.732,357.686c-1.522,8.261-3.515,23.516-2.813,27.286c3.7,17.164,2.875,35.976,1.778,42.865
						c-1.11,6.88-2.173,19.569-1.019,24.933c0.465,2.123,0.958,3.411,1.414,4.372c0.696,1.457,1.303,2.174,1.575,3.971
						c0.45,2.978-2.438,3.071-4.734,3.418c-2.307,0.348,1.484-0.224-13.202,1.994c-13.584,2.251-9.353-1.423-5.926-3.957
						c1.684-1.096,3.044-2.143,4.145-3.141c0.086-0.091,0.144-0.144,0.144-0.144c2.802-2.572,5.109-5.093,5.565-6.691
						c2.365-8.178-10.119-65.995-10.802-73.303c-0.694-7.306-3.061-35.815-3.061-35.815l28.337-1.234
						C538.132,342.244,538.253,349.426,536.732,357.686z"/>
					<path style="fill:#0A1828;" d="M537.666,461.115c0.45,2.978-2.438,3.071-4.734,3.418c-2.307,0.348,1.484-0.224-13.202,1.994
						c-13.584,2.251-9.353-1.423-5.926-3.957c1.684-1.096,3.044-2.143,4.145-3.141c-0.51,0.509-2.092,2.21-0.875,2.491
						c1.436,0.337,19.796-0.797,19.017-4.778C536.787,458.6,537.394,459.317,537.666,461.115z"/>
				</g>
				<g>
					<path style="fill:#4D5FE2;" d="M510.339,349.998c0.276,1.923,0.492,3.851,0.698,5.78c0.208,1.929,0.367,3.862,0.553,5.793
						l0.427,5.803c0.119,1.936,0.23,3.873,0.279,5.815c-0.276-1.923-0.492-3.851-0.699-5.78l-0.552-5.793
						c-0.14-1.935-0.307-3.867-0.426-5.803C510.5,353.878,510.39,351.941,510.339,349.998z"/>
				</g>
				<path style="fill:#010089;" d="M508.44,250.485c0,0-6.956,0.667-10.863,2.859c-3.907,2.192-13.341,14.865-13.341,14.865
					s5.241,11.53,12.102,12.388c6.67,0.381,14.484-2.668,14.484-2.668l4.002-23.441L508.44,250.485z"/>
				<path style="fill:#FF9400;" d="M493.704,304.313c-7.851,30.379-10.849,57.281-10.502,82.36
					c11.659,5.203,35.292,10.902,54.933,0.497c6.129-44.926,1.301-71.416-6.441-80.346
					C522.384,305.181,495.996,295.444,493.704,304.313z"/>
				<path style="fill:#010089;" d="M497.481,264.778c0,0-0.953,25.061-2.001,29.445c-1.048,4.383-4.098,7.623-0.858,9.72
					c2.668,1.62,31.16,5.146,38.211,1.811c1.239-8.1,3.621-30.112,3.621-30.112l-3.907-10.863l-8.957-12.93l-3.24-0.506
					l-9.338,2.478l-8.1,6.194L497.481,264.778z"/>
				<path style="fill:#6674FF;" d="M511.152,245.36c0,0,0.242,4.934-2.712,5.125c0.081,2.524,0.65,5.744,4.321,6.925
					c1.373,0.442,2.866,0.493,4.265,0.141c3.032-0.763,5.868-3.046,6.565-5.703c-1.048-0.792-4.838-4.025-3.848-8.555
					C514.144,245.114,511.152,245.36,511.152,245.36z"/>
				<path style="fill:#6674FF;" d="M505.819,234.714c0,0-0.858,11.578,8.147,11.149c3.859-0.429,7.004-2.573,8.433-7.004
					c1.572,0.143,3.002-0.858,3.383-2.43c0.381-1.572-1.286-3.859-4.288-1.715c-2.239-0.524-5.432-1.953-7.433-6.813
					C512.299,231.76,508.773,234.428,505.819,234.714z"/>
				<g>
					<path style="fill:#4D5FE2;" d="M444.972,265.911c1.201,0.623,2.344,1.336,3.466,2.094c0.592,0.36,1.01,0.979,1.363,1.532
						c0.364,0.571,0.693,1.162,0.997,1.765l-1.179-1.641c-0.41-0.547-0.757-1.088-1.346-1.423l-1.658-1.147
						C446.061,266.709,445.514,266.315,444.972,265.911z"/>
				</g>
				<g>
					<path style="fill:#4D5FE2;" d="M448.7,267.206c0.893,0.428,1.727,0.942,2.541,1.511c0.424,0.308,0.707,0.731,1.002,1.119
						c0.29,0.399,0.556,0.814,0.806,1.24c-0.334-0.363-0.661-0.732-0.978-1.104c-0.331-0.361-0.608-0.773-1-1.026
						c-0.383-0.297-0.794-0.565-1.19-0.854C449.48,267.808,449.088,267.512,448.7,267.206z"/>
				</g>
				<g>
					<path style="fill:#020242;" d="M497.436,265.911c0.087,1.231,0.102,2.462,0.098,3.693c0.002,1.231-0.049,2.46-0.112,3.69
						c-0.08,1.228-0.171,2.457-0.335,3.68c-0.169,1.219-0.343,2.453-0.75,3.624c0.174-1.22,0.234-2.441,0.312-3.664l0.202-3.672
						c0.078-1.224,0.143-2.449,0.245-3.674C497.192,268.361,497.288,267.136,497.436,265.911z"/>
				</g>
				<g>
					<g>
						<path style="fill:#E2E2E2;" d="M496.02,273.653c0,0,47,11.149,55.465,14.626c2.814,1.155,1.435,10.121-2.101,9.309
							c-8.81-2.023-46.758-12.739-54.784-14.547C498.572,277.733,496.02,273.653,496.02,273.653z"/>
						<path style="fill:#C6C6C6;" d="M493.874,282.498c0,0-0.142,0.122-0.385,0.263c-1.268,0.733-2.896-0.069-3.156-1.511
							c-0.32-1.78,0.213-4.18,1.304-5.753c1.526-2.201,2.95-2.525,4.384-1.844c0,0,1.206,0.685,1.409,2.283
							c0.204,1.598,0.651,6.412-2.335,6.824C494.24,282.67,493.874,282.498,493.874,282.498z"/>
						<g>
							<path style="fill:#AAAAAA;" d="M494.551,279.291c0.189-0.43,0.31-0.901,0.277-1.365c-0.016-0.453-0.308-0.927-0.717-1.035
								c-0.199-0.039-0.401,0.088-0.534,0.267c-0.145,0.169-0.249,0.377-0.339,0.588c-0.172,0.427-0.279,0.884-0.331,1.345
								c-0.075,0.902-0.075,1.91,0.4,2.668c0.466,0.765,1.504,1.115,2.298,0.691c0.806-0.394,1.287-1.265,1.538-2.142
								c0.26-0.889,0.376-1.829,0.376-2.758c-0.005-0.93-0.158-1.873-0.566-2.71c-0.205-0.414-0.473-0.807-0.844-1.09
								c-0.366-0.286-0.849-0.425-1.32-0.36c0.466-0.088,0.967,0.026,1.36,0.303c0.397,0.273,0.695,0.666,0.928,1.083
								c0.449,0.853,0.63,1.817,0.662,2.769c0.034,0.957-0.091,1.911-0.347,2.837c-0.255,0.911-0.742,1.861-1.664,2.326
								c-0.925,0.484-2.132,0.057-2.64-0.809c-0.278-0.424-0.38-0.922-0.43-1.396c-0.051-0.481-0.036-0.965,0.031-1.44
								c0.066-0.476,0.189-0.944,0.382-1.388c0.101-0.22,0.216-0.436,0.383-0.622c0.147-0.187,0.409-0.361,0.682-0.298
								c0.51,0.17,0.754,0.693,0.759,1.167C494.908,278.404,494.761,278.87,494.551,279.291z"/>
						</g>
					</g>
					<g>
						<path style="fill:#E2E2E2;" d="M492.206,280.804c0,0,46.999,11.149,55.465,14.626c2.813,1.155,1.435,10.121-2.101,9.309
							c-8.81-2.023-46.757-12.738-54.784-14.547C494.757,284.884,492.206,280.804,492.206,280.804z"/>
						<path style="fill:#C6C6C6;" d="M490.059,289.649c0,0-0.142,0.122-0.385,0.263c-1.268,0.733-2.896-0.069-3.156-1.511
							c-0.32-1.78,0.213-4.18,1.304-5.753c1.526-2.201,2.95-2.525,4.384-1.844c0,0,1.206,0.685,1.409,2.283
							c0.203,1.598,0.651,6.412-2.335,6.824C490.425,289.821,490.059,289.649,490.059,289.649z"/>
						<g>
							<path style="fill:#AAAAAA;" d="M490.736,286.441c0.189-0.43,0.31-0.901,0.277-1.365c-0.016-0.453-0.308-0.927-0.717-1.035
								c-0.199-0.038-0.401,0.088-0.534,0.267c-0.145,0.169-0.249,0.377-0.339,0.588c-0.172,0.427-0.279,0.884-0.331,1.345
								c-0.075,0.902-0.075,1.91,0.401,2.668c0.466,0.765,1.504,1.115,2.298,0.691c0.806-0.394,1.287-1.265,1.538-2.142
								c0.26-0.889,0.376-1.829,0.376-2.758c-0.005-0.93-0.158-1.873-0.566-2.71c-0.205-0.414-0.473-0.807-0.844-1.09
								c-0.366-0.286-0.849-0.425-1.32-0.36c0.466-0.088,0.967,0.026,1.36,0.303c0.397,0.273,0.695,0.666,0.928,1.083
								c0.449,0.853,0.63,1.817,0.662,2.769c0.034,0.957-0.091,1.911-0.346,2.837c-0.255,0.911-0.742,1.861-1.664,2.326
								c-0.925,0.484-2.132,0.057-2.64-0.808c-0.278-0.424-0.38-0.922-0.43-1.396c-0.051-0.481-0.036-0.965,0.031-1.44
								c0.066-0.475,0.189-0.944,0.383-1.388c0.101-0.22,0.216-0.436,0.383-0.622c0.146-0.187,0.409-0.361,0.682-0.298
								c0.51,0.17,0.754,0.693,0.759,1.167C491.093,285.555,490.946,286.021,490.736,286.441z"/>
						</g>
					</g>
					<g>
						<path style="fill:#EAEAEA;" d="M504.529,273.917c0,0,44.26,19.348,51.97,24.277c2.563,1.638-0.391,10.215-3.727,8.785
							c-8.308-3.561-43.738-20.869-51.314-24.079C506.312,278.387,504.529,273.917,504.529,273.917z"/>
						<path style="fill:#D3D3D3;" d="M500.84,282.237c0,0-0.162,0.095-0.426,0.19c-1.379,0.496-2.838-0.584-2.836-2.049
							c0.002-1.808,0.954-4.075,2.308-5.429c1.894-1.894,3.353-1.959,4.643-1.033c0,0,1.064,0.889,0.98,2.497
							c-0.085,1.609-0.502,6.425-3.514,6.298C501.169,282.472,500.84,282.237,500.84,282.237z"/>
						<g>
							<path style="fill:#AAAAAA;" d="M502.078,279.202c0.263-0.389,0.466-0.831,0.516-1.294c0.065-0.448-0.138-0.966-0.521-1.146
								c-0.189-0.073-0.411,0.015-0.573,0.168c-0.173,0.141-0.313,0.327-0.438,0.518c-0.246,0.39-0.432,0.82-0.565,1.264
								c-0.235,0.874-0.414,1.866-0.082,2.696c0.322,0.836,1.281,1.365,2.138,1.09c0.863-0.244,1.492-1.015,1.895-1.834
								c0.414-0.829,0.696-1.733,0.862-2.647c0.161-0.915,0.179-1.871-0.074-2.768c-0.128-0.444-0.322-0.878-0.636-1.223
								c-0.31-0.347-0.759-0.569-1.234-0.59c0.475-0.004,0.947,0.198,1.284,0.541c0.342,0.34,0.565,0.779,0.72,1.231
								c0.29,0.919,0.296,1.9,0.158,2.843c-0.137,0.948-0.43,1.865-0.847,2.73c-0.413,0.851-1.062,1.698-2.052,1.992
								c-0.997,0.311-2.108-0.324-2.454-1.266c-0.198-0.467-0.21-0.975-0.174-1.45c0.035-0.482,0.137-0.956,0.287-1.412
								c0.15-0.456,0.355-0.895,0.624-1.297c0.138-0.198,0.29-0.391,0.488-0.544c0.178-0.158,0.467-0.283,0.724-0.172
								c0.472,0.259,0.618,0.816,0.539,1.284C502.587,278.393,502.359,278.825,502.078,279.202z"/>
						</g>
					</g>
					<g>
						<path style="fill:#FFFFFF;" d="M497.687,282.144c0,0,47.542,8.543,56.187,11.548c2.873,0.999,1.991,10.026-1.585,9.41
							c-8.908-1.534-47.388-10.143-55.502-11.507C500.46,286.077,497.687,282.144,497.687,282.144z"/>
						<g>
							<path style="fill:none;" d="M555.587,298.258"/>
						</g>
						<g>
							<path style="fill:#CECECE;" d="M497.687,282.144c4.715,0.796,9.424,1.63,14.125,2.508l14.099,2.653
								c4.689,0.938,9.376,1.889,14.05,2.904c4.668,1.029,9.358,2.018,13.913,3.484c-2.285-0.707-4.614-1.249-6.947-1.769
								c-2.328-0.539-4.666-1.04-7.006-1.529c-4.679-0.983-9.371-1.901-14.065-2.81l-14.079-2.747L497.687,282.144z"/>
						</g>
						<path style="fill:#E2E2E2;" d="M496.031,291.093c0,0-0.135,0.13-0.37,0.284c-1.226,0.802-2.896,0.091-3.234-1.335
							c-0.418-1.759-0.018-4.185,0.985-5.816c1.402-2.282,2.807-2.684,4.276-2.083c0,0,1.242,0.617,1.533,2.202
							c0.291,1.584,1.003,6.366-1.956,6.942C496.406,291.245,496.031,291.093,496.031,291.093z"/>
						<g>
							<path style="fill:#CECECE;" d="M496.531,287.854c0.165-0.44,0.26-0.917,0.201-1.378c-0.041-0.451-0.359-0.908-0.773-0.994
								c-0.201-0.027-0.396,0.11-0.519,0.296c-0.135,0.177-0.228,0.39-0.306,0.606c-0.149,0.436-0.23,0.898-0.256,1.361
								c-0.026,0.905,0.03,1.911,0.547,2.642c0.507,0.738,1.563,1.031,2.333,0.564c0.783-0.438,1.216-1.334,1.417-2.224
								c0.21-0.902,0.275-1.847,0.224-2.775c-0.056-0.928-0.261-1.861-0.715-2.675c-0.227-0.402-0.517-0.78-0.903-1.042
								c-0.382-0.266-0.871-0.378-1.337-0.287c0.461-0.114,0.967-0.027,1.375,0.228c0.412,0.251,0.731,0.626,0.986,1.03
								c0.495,0.827,0.729,1.779,0.814,2.729c0.087,0.954,0.015,1.914-0.19,2.852c-0.204,0.924-0.639,1.899-1.533,2.414
								c-0.897,0.534-2.126,0.175-2.681-0.662c-0.301-0.408-0.43-0.899-0.506-1.37c-0.078-0.477-0.089-0.961-0.048-1.44
								c0.04-0.478,0.137-0.953,0.306-1.406c0.089-0.225,0.192-0.448,0.348-0.643c0.136-0.195,0.388-0.383,0.665-0.335
								c0.519,0.142,0.791,0.65,0.822,1.123C496.838,286.949,496.717,287.422,496.531,287.854z"/>
						</g>
					</g>
				</g>
				<path style="fill:#6674FF;" d="M538.176,261.368c0,0,7.189,20.999-1.721,45.771c-1.763,4.903-13.769,3.188-29.349-10.677
					c-1.715,0.715-4.074,0.715-6.718-2.573c-1.001-1.072-1.215-1.572-1.215-1.572l28.373,4.503c0,0-0.456-13.368-0.313-16.016
					C527.375,278.156,538.176,261.368,538.176,261.368z"/>
				<path style="fill:#010089;" d="M523.591,251.848c0,0,6.279,2.627,9.339,4.449c4.18,2.49,8.386,6.67,10.768,24.332
					c-3.716,0.92-10.863,3.016-19.058,1.682c0.191-7.719,0.095-13.15,0.095-13.15"/>
				<g>
					<path style="fill:#020242;" d="M524.748,270.386c0.16,1.989,0.211,3.978,0.221,5.965c0.003,1.988-0.03,3.975-0.156,5.962
						l-0.154-0.175c0.852,0.135,1.699,0.304,2.545,0.485c-0.865-0.026-1.728-0.065-2.587-0.138l-0.146-0.012l-0.007-0.163
						c-0.09-1.989-0.086-3.976-0.047-5.964C524.464,274.359,524.552,272.372,524.748,270.386z"/>
				</g>
				<path style="fill:#485BE5;" d="M511.156,245.546c0,0,2.826,1.215,6.735-0.885c-0.903,1.568-3.314,3.362-6.944,2.989
					C511.098,246.697,511.156,245.546,511.156,245.546z"/>
			</g>
		</g>
		<g>
			<g>
				<g>
					<g>
						<path style="fill:#C7C9E2;" d="M116.597,462.625c-0.19,0.64-0.4,1.26-0.55,1.79c-0.58,2.09-5,2.67-6.25,2.67
							s-5.25-1.42-5.25-1.42s-1-4.25-1-5.08c0-0.83,0.17-3.17,0.42-3.92c0.13-0.39,1.1-1.1,2.16-1.74c0.98-0.6,2.03-1.14,2.59-1.34
							c1.16-0.42,5.5,0,5.5,0l1.75,2.27c0,0-2.92,1.31-0.34,2.15C117.557,458.625,117.167,460.735,116.597,462.625z"/>
						<path style="opacity:0.3;fill:#E2E2ED;" d="M116.597,462.625c-0.19,0.64-0.4,1.26-0.55,1.79c-0.58,2.09-5,2.67-6.25,2.67
							s-5.25-1.42-5.25-1.42s-1-4.25-1-5.08c0-0.83,0.17-3.17,0.42-3.92c0.13-0.39,1.1-1.1,2.16-1.74c0.15,0.15,0.23,0.25,0.23,0.25
							l-0.92,2.79c0,0-0.58,1.92,0.92,2.28c1.5,0.35,4.62,1.31,4.83,1.5c0.21,0.18,0.58,1.81,0.58,1.81l1.92,1.66
							c0,0,0.79-0.08,1.29-0.54C115.477,464.215,116.597,462.625,116.597,462.625z"/>
						<path style="opacity:0.69;fill:#E2E2ED;" d="M111.602,454.093l-2,1.917l0.703,1.542c0,0,1.506,0.125,1.881,0.375
							s1.458,1.583,1.625,2.542c0.167,0.958-0.125,1.833,0.708,1.667c0.833-0.167,2.115-1.458,2.078-1.625
							c-0.037-0.167-0.328-1.292-0.703-1.458c-0.375-0.167-2.794-2.167-2.794-2.167l1.585-1.542l-1.333-0.875L111.602,454.093z"/>
					</g>
					<g>
						<path style="fill:#C7C9E2;" d="M140.077,461.519c-0.218,0.736-0.46,1.449-0.633,2.059c-0.667,2.404-5.751,3.071-7.189,3.071
							s-6.039-1.633-6.039-1.633s-1.15-4.888-1.15-5.843c0-0.955,0.196-3.646,0.483-4.509c0.15-0.449,1.265-1.265,2.485-2.001
							c1.127-0.69,2.335-1.311,2.979-1.541c1.334-0.483,6.326,0,6.326,0l2.013,2.611c0,0-3.359,1.507-0.391,2.473
							C141.181,456.918,140.733,459.345,140.077,461.519z"/>
						<path style="opacity:0.3;fill:#E2E2ED;" d="M140.077,461.519c-0.218,0.736-0.46,1.449-0.633,2.059
							c-0.667,2.404-5.751,3.071-7.189,3.071s-6.039-1.633-6.039-1.633s-1.15-4.888-1.15-5.843c0-0.955,0.196-3.646,0.483-4.509
							c0.15-0.449,1.265-1.265,2.485-2.001c0.172,0.173,0.265,0.288,0.265,0.288l-1.058,3.209c0,0-0.667,2.208,1.058,2.622
							c1.725,0.402,5.314,1.507,5.556,1.725c0.242,0.207,0.667,2.082,0.667,2.082l2.208,1.909c0,0,0.909-0.092,1.484-0.621
							C138.789,463.348,140.077,461.519,140.077,461.519z"/>
						<path style="opacity:0.69;fill:#E2E2ED;" d="M134.332,451.706l-2.3,2.205l0.808,1.773c0,0,1.732,0.144,2.163,0.431
							c0.431,0.288,1.677,1.821,1.869,2.923c0.192,1.102-0.144,2.109,0.815,1.917c0.959-0.192,2.433-1.677,2.391-1.869
							c-0.042-0.192-0.378-1.486-0.809-1.677c-0.431-0.192-3.214-2.492-3.214-2.492l1.824-1.773l-1.534-1.006L134.332,451.706z"/>
					</g>
					<g>
						<path style="fill:#C7C9E2;" d="M117.863,464.129c0.119,0.401,0.251,0.79,0.345,1.123c0.364,1.311,3.136,1.675,3.92,1.675
							c0.784,0,3.293-0.891,3.293-0.891s0.627-2.666,0.627-3.186c0-0.521-0.107-1.988-0.263-2.459
							c-0.082-0.245-0.69-0.69-1.355-1.091c-0.615-0.376-1.273-0.715-1.625-0.84c-0.728-0.263-3.45,0-3.45,0l-1.098,1.424
							c0,0,1.832,0.822,0.213,1.349C117.261,461.62,117.506,462.944,117.863,464.129z"/>
						<path style="opacity:0.3;fill:#E2E2ED;" d="M117.863,464.129c0.119,0.401,0.251,0.79,0.345,1.123
							c0.364,1.311,3.136,1.675,3.92,1.675c0.784,0,3.293-0.891,3.293-0.891s0.627-2.666,0.627-3.186
							c0-0.521-0.107-1.988-0.263-2.459c-0.082-0.245-0.69-0.69-1.355-1.091c-0.094,0.094-0.144,0.157-0.144,0.157l0.577,1.75
							c0,0,0.364,1.204-0.577,1.43c-0.941,0.22-2.898,0.822-3.03,0.941c-0.132,0.113-0.364,1.135-0.364,1.135l-1.204,1.041
							c0,0-0.496-0.05-0.809-0.339C118.566,465.126,117.863,464.129,117.863,464.129z"/>
						<path style="opacity:0.69;fill:#E2E2ED;" d="M120.996,458.778l1.255,1.202l-0.441,0.967c0,0-0.944,0.078-1.18,0.235
							c-0.235,0.157-0.915,0.993-1.019,1.594c-0.105,0.601,0.078,1.15-0.444,1.045c-0.523-0.105-1.327-0.915-1.304-1.019
							c0.023-0.104,0.206-0.81,0.441-0.915c0.235-0.104,1.752-1.359,1.752-1.359l-0.994-0.967l0.836-0.549L120.996,458.778z"/>
					</g>
					<g>
						<path style="fill:#C7C9E2;" d="M128.084,448.22c0.119,0.401,0.251,0.79,0.345,1.123c0.364,1.311,3.136,1.675,3.92,1.675
							s3.293-0.891,3.293-0.891s0.627-2.666,0.627-3.186c0-0.521-0.107-1.988-0.264-2.459c-0.081-0.245-0.69-0.69-1.355-1.092
							c-0.615-0.376-1.273-0.715-1.625-0.84c-0.728-0.263-3.45,0-3.45,0l-1.098,1.424c0,0,1.832,0.822,0.213,1.349
							C127.482,445.711,127.727,447.035,128.084,448.22z"/>
						<path style="opacity:0.3;fill:#E2E2ED;" d="M128.084,448.22c0.119,0.401,0.251,0.79,0.345,1.123
							c0.364,1.311,3.136,1.675,3.92,1.675s3.293-0.891,3.293-0.891s0.627-2.666,0.627-3.186c0-0.521-0.107-1.988-0.264-2.459
							c-0.081-0.245-0.69-0.69-1.355-1.092c-0.094,0.094-0.144,0.157-0.144,0.157l0.577,1.75c0,0,0.364,1.204-0.577,1.43
							c-0.941,0.22-2.898,0.822-3.03,0.941c-0.132,0.113-0.364,1.135-0.364,1.135l-1.204,1.041c0,0-0.496-0.05-0.809-0.339
							C128.787,449.218,128.084,448.22,128.084,448.22z"/>
						<path style="opacity:0.69;fill:#E2E2ED;" d="M131.218,442.869l1.255,1.202l-0.441,0.967c0,0-0.944,0.078-1.18,0.235
							c-0.235,0.157-0.915,0.993-1.019,1.594c-0.105,0.601,0.078,1.15-0.444,1.045s-1.327-0.915-1.304-1.019
							c0.023-0.104,0.206-0.81,0.441-0.915c0.235-0.104,1.752-1.359,1.752-1.359l-0.994-0.967l0.836-0.549L131.218,442.869z"/>
					</g>
					<g>
						<path style="fill:#C7C9E2;" d="M118.574,449.005c-0.338,0.247-0.66,0.502-0.941,0.703c-1.112,0.784-0.522,3.517-0.258,4.255
							c0.264,0.738,1.947,2.801,1.947,2.801s2.721-0.306,3.212-0.482c0.49-0.175,1.837-0.77,2.227-1.076
							c0.203-0.159,0.418-0.882,0.572-1.643c0.148-0.706,0.245-1.44,0.245-1.813c0.003-0.774-1.161-3.249-1.161-3.249l-1.71-0.555
							c0,0-0.157,2.001-1.198,0.655C120.734,447.593,119.57,448.269,118.574,449.005z"/>
						<path style="opacity:0.3;fill:#E2E2ED;" d="M118.574,449.005c-0.338,0.247-0.66,0.502-0.941,0.703
							c-1.112,0.784-0.522,3.517-0.258,4.255c0.264,0.738,1.947,2.801,1.947,2.801s2.721-0.306,3.212-0.482
							c0.49-0.175,1.837-0.77,2.227-1.076c0.203-0.159,0.418-0.882,0.572-1.643c-0.12-0.057-0.196-0.083-0.196-0.083l-1.454,1.132
							c0,0-1.012,0.748-1.541-0.062c-0.523-0.812-1.749-2.452-1.905-2.536c-0.151-0.086-1.192,0.039-1.192,0.039l-1.386-0.784
							c0,0-0.12-0.483,0.047-0.876C117.871,450.002,118.574,449.005,118.574,449.005z"/>
						<path style="opacity:0.69;fill:#E2E2ED;" d="M124.668,450.154l-0.71,1.586l-1.059-0.09c0,0-0.392-0.863-0.618-1.032
							s-1.243-0.527-1.844-0.423c-0.601,0.104-1.057,0.461-1.134-0.067c-0.077-0.527,0.415-1.557,0.521-1.571
							c0.106-0.013,0.832-0.079,1.01,0.108c0.178,0.186,1.869,1.193,1.869,1.193l0.576-1.262l0.798,0.603L124.668,450.154z"/>
					</g>
					<g>
						<g>
							<path style="fill:#7F83B2;" d="M140.145,467.503h-36.67l-5.334-57.97h47.338l-0.046,0.492L140.145,467.503z M104.395,466.595
								h34.83l5.166-56.155H99.229L104.395,466.595z"/>
						</g>
						<g>
							<rect x="95.935" y="408.057" style="fill:#7F83B2;" width="51.75" height="3.857"/>
						</g>
						<g>
							<rect x="121.31" y="410.78" style="fill:#7F83B2;" width="1" height="56.269"/>
						</g>
						<g>
							<polygon style="fill:#7F83B2;" points="112.061,467.075 108.464,410.807 109.462,410.754 113.059,467.022 							"/>
						</g>
						<g>
							<polygon style="fill:#7F83B2;" points="130.82,467.075 129.822,467.022 133.418,410.754 134.416,410.807 							"/>
						</g>
						<g>
							<rect x="99.834" y="422.028" style="fill:#7F83B2;" width="43.87" height="0.908"/>
						</g>
						<g>
							<rect x="100.971" y="434.377" style="fill:#7F83B2;" width="41.506" height="0.908"/>
						</g>
						<g>
							<rect x="102.107" y="446.725" style="fill:#7F83B2;" width="39.406" height="0.908"/>
						</g>
						<g>
							<rect x="102.977" y="459.073" style="fill:#7F83B2;" width="37.4" height="0.908"/>
						</g>
					</g>
				</g>
				<g>
					<path style="fill:#C7C9E2;" d="M144.154,471.787c0.215,0.36,0.439,0.704,0.612,1.003c0.677,1.18,3.453,0.846,4.213,0.652
						c0.76-0.194,2.97-1.678,2.97-1.678s-0.052-2.738-0.181-3.243c-0.129-0.504-0.595-1.9-0.864-2.317
						c-0.14-0.217-0.839-0.498-1.583-0.722c-0.689-0.212-1.411-0.378-1.782-0.412c-0.77-0.075-3.343,0.854-3.343,0.854l-0.711,1.651
						c0,0,1.978,0.343,0.54,1.254C142.949,469.505,143.514,470.727,144.154,471.787z"/>
					<path style="opacity:0.3;fill:#E2E2ED;" d="M144.154,471.787c0.215,0.36,0.439,0.704,0.612,1.003
						c0.677,1.18,3.453,0.846,4.213,0.652c0.76-0.194,2.97-1.678,2.97-1.678s-0.052-2.738-0.181-3.243
						c-0.129-0.504-0.595-1.9-0.864-2.317c-0.14-0.217-0.839-0.498-1.583-0.722c-0.068,0.115-0.101,0.188-0.101,0.188l0.992,1.553
						c0,0,0.651,1.077-0.205,1.528c-0.857,0.446-2.604,1.513-2.703,1.662c-0.1,0.142-0.072,1.19-0.072,1.19l-0.909,1.307
						c0,0-0.493,0.074-0.868-0.128C145.081,472.579,144.154,471.787,144.154,471.787z"/>
					<path style="opacity:0.69;fill:#E2E2ED;" d="M145.865,465.827l1.513,0.854l-0.188,1.046c0,0-0.896,0.31-1.085,0.52
						c-0.189,0.21-0.64,1.189-0.593,1.797c0.047,0.608,0.361,1.095-0.172,1.123s-1.512-0.558-1.515-0.665
						c-0.004-0.107-0.001-0.836,0.201-0.996c0.202-0.159,1.361-1.75,1.361-1.75l-1.203-0.691l0.674-0.739L145.865,465.827z"/>
				</g>
				<g>
					<path style="fill:#C7C9E2;" d="M94.041,473.564c0.094,0.318,0.201,0.628,0.274,0.891c0.281,1.036,3.066,1.561,3.861,1.63
						c0.795,0.069,3.397-0.391,3.397-0.391s0.814-1.987,0.849-2.385c0.035-0.399,0.025-1.533-0.102-1.907
						c-0.066-0.195-0.653-0.59-1.3-0.956c-0.598-0.343-1.243-0.661-1.59-0.788c-0.72-0.266-3.496-0.305-3.496-0.305l-1.208,0.994
						c0,0,1.801,0.792,0.126,1.052C93.599,471.588,93.758,472.624,94.041,473.564z"/>
					<path style="opacity:0.3;fill:#E2E2ED;" d="M94.041,473.564c0.094,0.318,0.201,0.628,0.274,0.891
						c0.281,1.036,3.066,1.561,3.861,1.63c0.795,0.069,3.397-0.391,3.397-0.391s0.814-1.987,0.849-2.385
						c0.035-0.399,0.025-1.533-0.102-1.907c-0.066-0.195-0.653-0.59-1.3-0.956c-0.102,0.064-0.157,0.107-0.157,0.107l0.468,1.392
						c0,0,0.288,0.955-0.68,1.045c-0.968,0.085-2.992,0.373-3.133,0.452c-0.141,0.075-0.445,0.838-0.445,0.838l-1.29,0.691
						c0,0-0.499-0.082-0.797-0.331C94.686,474.39,94.041,473.564,94.041,473.564z"/>
					<path style="opacity:0.69;fill:#E2E2ED;" d="M97.574,469.741l1.191,1.032l-0.511,0.702c0,0-0.962-0.023-1.211,0.076
						c-0.249,0.099-0.993,0.68-1.14,1.131c-0.146,0.451,0.003,0.888-0.52,0.762c-0.523-0.126-1.283-0.818-1.253-0.896
						c0.03-0.078,0.263-0.603,0.508-0.662c0.245-0.059,1.867-0.886,1.867-0.886l-0.943-0.829l0.884-0.346L97.574,469.741z"/>
				</g>
			</g>
			<g>
				<path style="fill:#A3D5FA;" d="M602.949,400.062l4.251,32.207c0.461,3.488,3.107,6.106,6.286,6.204
					c2.888,0.089,7.142,0.164,13.277,0.164c6.356,0,10.784-0.081,13.78-0.174c3.181-0.099,5.835-2.714,6.295-6.204l4.25-32.197
					H602.949z"/>
				<path style="fill:#A3D5FA;" d="M627.019,420.807c8.861,0,16.735-1.238,21.748-3.156l2.248-17.03h-47.992l2.248,17.03
					C610.283,419.569,618.158,420.807,627.019,420.807z"/>
				<path style="fill:#78C0F3;" d="M654.439,408.845c0,4.456-12.276,8.067-27.42,8.067c-15.144,0-27.42-3.612-27.42-8.067
					l-1.318-12.119h57.476L654.439,408.845z"/>
				<path style="fill:#A3D5FA;" d="M655.757,396.726c0,4.67-12.867,8.455-28.738,8.455c-15.872,0-28.738-3.785-28.738-8.455
					c0-4.67,12.867-8.456,28.738-8.456C642.89,388.271,655.757,392.056,655.757,396.726z"/>
				<path style="fill:#2F36AC;" d="M652.716,396.568c0,3.52-11.505,6.374-25.697,6.374c-14.192,0-25.697-2.854-25.697-6.374
					c0-3.52,11.505-6.374,25.697-6.374C641.211,390.194,652.716,393.047,652.716,396.568z"/>
				<path style="opacity:0.5;fill:#2F36AC;" d="M602.498,398.479c3.273-2.587,13.012-4.463,24.52-4.463
					c11.508,0,21.247,1.877,24.521,4.463c0.763-0.603,1.176-1.245,1.176-1.911c0-3.52-11.505-6.374-25.697-6.374
					c-14.192,0-25.697,2.854-25.697,6.374C601.322,397.233,601.735,397.875,602.498,398.479z"/>
				<g>
					<path style="fill:#FFBB47;" d="M647.26,350.098c1.856-6.674-0.399-11.944-2.85-17.899c-2.451-5.954-2.861-12.273-1.923-18.535
						c1.257-8.499,4.077-16.708,0.821-24.946c-3.049-7.78-5.995-18.031-14.41-21.309c-8.18-3.494-14.37,4.573-14.232,12.006
						c0.138,7.432,4.358,14.136,2.25,21.474c-1.602,6.009-3.701,13.123-0.567,18.881c3.752,7.134,10.743,12.153,8.129,20.821
						c-1.03,3.108-2.716,5.737-3.073,8.873c-0.423,4.708,1.958,5.865,4.097,9.624c9.006,15.828-7.492,22.21-1.018,39.596
						c0.181,0.487,0.653,0.805,1.172,0.778l0,0c0.569-0.029,1.046-0.463,1.107-1.03c2.06-19.443,15.919-12.739,16.064-28.49
						c0.027-2.932-0.878-5.888-0.531-8.799C642.709,356.658,646.183,354.328,647.26,350.098z"/>
					<path style="fill:#FFBB47;" d="M639.229,369.388c-0.211,0-0.383,0.171-0.383,0.382c-0.001,0.395-0.15,9.441-9.273,10.844
						c0.714-1.27,1.472-2.476,2.227-3.669c1.704-2.693,3.312-5.236,4.25-8.354c2.547-8.479,2.219-15.702,0.689-22.467
						c6.431-3.172,4.659-14.003,4.579-14.47c-0.037-0.207-0.234-0.34-0.442-0.312c-0.208,0.036-0.348,0.234-0.312,0.442
						c0.019,0.108,1.742,10.554-4,13.59c-0.834-3.471-1.966-6.831-3.182-10.182c-2.61-7.184-1.319-16.578-0.464-22.794
						c0.037-0.272,0.072-0.528,0.107-0.786c8.057-1.789,8.555-12.094,8.559-12.2c0.008-0.211-0.157-0.388-0.367-0.396
						c-0.005,0-0.011,0-0.015,0c-0.204,0-0.374,0.162-0.382,0.367c-0.003,0.098-0.476,9.565-7.684,11.407
						c0.121-0.914,0.222-1.741,0.281-2.445c0.295-4.083,0.358-7.802,0.203-11.175c0-0.025,0.001-0.05-0.004-0.074
						c-0.433-9.225-2.545-15.777-6.328-19.519c-0.15-0.148-0.391-0.148-0.541,0.003c-0.148,0.15-0.147,0.392,0.003,0.541
						c3.576,3.538,5.603,9.74,6.077,18.475c-5.374-2.094-6.152-11.519-6.159-11.617c-0.015-0.21-0.174-0.368-0.409-0.353
						c-0.211,0.015-0.368,0.199-0.353,0.409c0.032,0.43,0.848,10.379,6.965,12.397c0.138,3.277,0.07,6.89-0.217,10.852
						c-0.09,1.073-0.277,2.434-0.493,4.009c-0.485,3.532-1.11,8.078-1.091,12.688c-7.488-2.826-8.033-11.993-8.037-12.088
						c-0.01-0.204-0.179-0.364-0.382-0.364c-0.005,0-0.012,0-0.018,0.001c-0.211,0.01-0.374,0.188-0.364,0.399
						c0.005,0.102,0.576,10.009,8.819,12.881c0.071,3.329,0.494,6.662,1.577,9.644c3.353,9.233,6.101,18.516,3.391,30.126
						c-5.995-1.15-6.804-9.539-6.812-9.624c-0.018-0.21-0.19-0.349-0.415-0.348c-0.209,0.018-0.365,0.204-0.348,0.415
						c0.009,0.091,0.866,9.015,7.396,10.299c-0.17,0.677-0.349,1.357-0.557,2.05c-0.908,3.018-2.489,5.518-4.163,8.165
						c-0.887,1.402-1.803,2.859-2.65,4.451c-0.002,0.006-0.007,0.011-0.009,0.017c-2.319,4.366-4.097,9.786-3.202,18.138
						c0.022,0.195,0.187,0.341,0.38,0.341c0.013,0,0.027-0.001,0.041-0.002c0.21-0.023,0.362-0.211,0.339-0.421
						c-0.872-8.137,0.776-13.302,3.056-17.598c10.368-1.188,10.501-11.586,10.501-11.692
						C639.611,369.559,639.441,369.388,639.229,369.388z"/>
					<path style="opacity:0.2;" d="M642.807,369.056c0.014,0.295,0.023,0.591,0.02,0.886c-0.095,10.339-6.099,11.003-10.797,15.738
						c0.55-2.759,0.681-6.173,2.524-8.426c2.024-2.249,4.722-2.698,6.746-5.397C642.033,370.845,642.516,369.92,642.807,369.056z
						 M644.411,332.199c-2.451-5.954-2.861-12.273-1.923-18.535c0.091-0.616,0.191-1.231,0.296-1.844
						c-3.216,1.24-5.753,3.605-7.281,6.848c-4.552,9.656-0.966,16.209,2.95,23.513c3.196,5.962,1.124,11.468,1.799,17.763
						c0.282,2.632,1.428,4.675,2.322,6.638c-0.227-1.82-0.492-3.639-0.277-5.44c0.413-4.484,3.887-6.814,4.964-11.044
						C649.116,343.424,646.862,338.153,644.411,332.199z M627.419,382.782c-0.636-1.366-1.397-2.845-1.529-4.34
						c-2.055,5.385-4.341,10.961-1.888,18.824c0.006,0.021,0.014,0.042,0.02,0.063c0.14,0.445,0.292,0.895,0.463,1.355
						c0.034,0.09,0.08,0.172,0.132,0.25c0.009,0.013,0.017,0.027,0.027,0.039c0.055,0.076,0.117,0.144,0.187,0.204
						c0.004,0.004,0.009,0.007,0.013,0.01c0.223,0.186,0.509,0.291,0.813,0.275l0,0c0.228-0.012,0.439-0.091,0.617-0.215
						c0.353-0.259,0.437-0.552,0.475-0.744c0.004-0.024,0.012-0.047,0.015-0.071c0.307-2.895,0.876-5.206,1.622-7.102
						c-0.427,0.277-0.863,0.535-1.296,0.806C628.479,388.985,629.439,387.121,627.419,382.782z"/>
				</g>
				<g>
					<path style="fill:#6774FF;" d="M668.442,346.639c-4.048-7.42-4.037-12.328-3.598-20.237c0.45-8.095-2.024-18.888-11.917-20.686
						c-7.42-1.349-13.456,1.66-16.216,7.516c-4.552,9.656-0.966,16.208,2.95,23.513c3.196,5.962,1.124,11.468,1.799,17.763
						c0.674,6.296,6.296,9.219,1.574,15.74c-2.024,2.698-4.722,3.148-6.746,5.397c-2.024,2.473-1.981,6.35-2.698,9.219
						c-1.813,7.248-8.909,6.22-9.206,13.565c-0.022,0.548,0.422,1.094,0.808,1.076c0.386-0.018,0.692,0.054,0.966-0.432
						c1.664-2.957,4.413-2.502,7.492-3.866c2.287-1.013,2.989-3.834,8.485-4.497c7.175-0.866,13.716,3.823,17.314-5.846
						c1.349-3.373,0.899-6.296,1.574-9.669c0.674-4.497,3.598-7.195,6.521-10.343C672.714,359.006,672.039,353.16,668.442,346.639z"
						/>
					<g>
						<g>
							<path style="fill:#6774FF;" d="M654.206,332.856c-0.011,0-0.022,0-0.032-0.001c-6.725-0.576-11.418-8.762-11.614-9.11
								c-0.104-0.184-0.039-0.417,0.145-0.521s0.417-0.039,0.521,0.145c0.046,0.082,4.694,8.183,11.014,8.723
								c0.211,0.018,0.366,0.203,0.349,0.414C654.57,332.706,654.403,332.856,654.206,332.856z"/>
						</g>
						<g>
							<path style="fill:#6774FF;" d="M652.283,368.065c-0.073,0-0.147-0.02-0.212-0.064c-4.923-3.272-4.624-17.935-4.608-18.558
								c0.005-0.211,0.168-0.379,0.392-0.373c0.211,0.005,0.378,0.18,0.373,0.392c-0.003,0.148-0.307,14.863,4.267,17.902
								c0.176,0.117,0.224,0.354,0.107,0.53C652.528,368.005,652.406,368.065,652.283,368.065z"/>
						</g>
						<g>
							<path style="fill:#6774FF;" d="M654.801,354.954c-0.167,0-0.321-0.11-0.368-0.279c-0.057-0.204,0.062-0.415,0.265-0.472
								c7.749-2.172,8.369-14.72,8.374-14.846c0.009-0.211,0.184-0.37,0.399-0.366c0.211,0.01,0.375,0.188,0.366,0.399
								c-0.024,0.539-0.655,13.23-8.932,15.551C654.87,354.949,654.835,354.954,654.801,354.954z"/>
						</g>
						<g>
							<path style="fill:#6774FF;" d="M643.439,387.415c-0.812,0-1.665-0.07-2.562-0.224c-0.207-0.036-0.348-0.233-0.312-0.442
								c0.037-0.206,0.22-0.342,0.442-0.312c11.324,1.941,15.436-10.045,15.476-10.167c0.066-0.2,0.283-0.308,0.484-0.242
								c0.2,0.067,0.309,0.283,0.242,0.484C657.169,376.631,653.461,387.415,643.439,387.415z"/>
						</g>
						<g>
							<path style="fill:#6774FF;" d="M653.449,326.89c-0.104,0-0.206-0.042-0.282-0.124c-0.143-0.156-0.132-0.398,0.024-0.54
								c4.847-4.437,1.629-13.979,1.596-14.074c-0.068-0.2,0.038-0.418,0.236-0.487c0.205-0.066,0.418,0.039,0.487,0.237
								c0.142,0.411,3.416,10.113-1.803,14.889C653.634,326.856,653.541,326.89,653.449,326.89z"/>
						</g>
						<g>
							<path style="fill:#6774FF;" d="M625.269,399.187c-0.033,0-0.067-0.004-0.1-0.013c-0.204-0.056-0.324-0.266-0.269-0.47
								c0.884-3.248,4.648-4.905,7.14-6.001c0.755-0.333,1.408-0.619,1.792-0.87c20.24-13.16,25.764-38.172,16.884-76.464
								c-0.047-0.205,0.081-0.412,0.286-0.459c0.208-0.047,0.412,0.082,0.459,0.286c8.961,38.643,3.331,63.921-17.212,77.279
								c-0.438,0.284-1.115,0.582-1.9,0.928c-2.358,1.037-5.922,2.606-6.71,5.502C625.592,399.075,625.438,399.187,625.269,399.187z
								"/>
						</g>
					</g>
					<path style="opacity:0.75;fill:#15CBBD;" d="M624.383,398.429c-0.022,0.548,0.422,1.094,0.808,1.076
						c0.02-0.001,0.039-0.001,0.058-0.002c1.207-0.91-0.318-2.209,1.513-6.505C625.469,394.246,624.49,395.8,624.383,398.429z"/>
				</g>
				<g>
					<path style="fill:#FF9322;" d="M625.738,380.633c-2.231-4.792-0.127-10.955-2.321-14.451
						c-2.687-4.373-7.175-1.047-12.388-7.058c-4.375-5.045-1.225-12.036-11.184-17.246c-3.041-1.591-6.567-0.81-7.753,2.624
						c-1.421,3.22,0.827,7.839,1.877,10.94c1.023,2.638,2.235,4.598,1.723,7.525c-0.006,0.03-0.012,0.063-0.02,0.093
						c-0.575,2.249-2.067,3.449-1.269,6.094c1.661,6.449,10.796,5.869,15.406,9.889c3.251,2.835,0.318,6.22,3.503,10.511
						c3.155,4.25,4.769-0.372,10.448,9.688c0.204,0.361,0.664,0.489,1.025,0.284l0,0c0.252-0.143,0.399-0.421,0.377-0.709
						C624.34,387.931,629.021,387.685,625.738,380.633z"/>
					<path style="fill:#FF9322;" d="M621.357,388.491c-0.69-1.103-1.319-2.118-1.693-3.303c3.524-2.918,1.563-9.871,1.475-10.173
						c-0.059-0.203-0.272-0.315-0.474-0.26c-0.202,0.059-0.319,0.271-0.26,0.474c0.019,0.067,1.799,6.371-0.955,9.126
						c-0.104-0.537-0.155-1.114-0.136-1.754c0.039-1.313,0.04-2.584-0.081-3.807c0.001-0.014,0.007-0.027,0.006-0.042
						c-0.002-0.025-0.012-0.047-0.018-0.071c-0.233-2.204-0.887-4.248-2.498-6.081c2.353-2.994-0.947-8.562-1.094-8.805
						c-0.108-0.181-0.347-0.24-0.525-0.13c-0.18,0.109-0.239,0.344-0.13,0.525c0.032,0.054,3.1,5.229,1.219,7.845
						c-0.715-0.704-1.585-1.375-2.647-2.01c-3.584-2.143-6.366-4.336-8.542-6.888c2.345-3.061-0.467-10.135-0.592-10.445
						c-0.079-0.195-0.299-0.292-0.498-0.211c-0.195,0.079-0.29,0.302-0.211,0.498c0.029,0.07,2.685,6.737,0.81,9.54
						c-3.302-4.139-5.133-9.236-6.251-16.536c-0.031-0.207-0.205-0.354-0.437-0.32c-0.208,0.032-0.351,0.227-0.32,0.436
						c0.55,3.591,1.276,6.65,2.249,9.342c-3.723-1.697-4.218-5.735-4.238-5.916c-0.023-0.21-0.216-0.354-0.422-0.338
						c-0.21,0.024-0.361,0.212-0.338,0.421c0.005,0.052,0.618,5.116,5.355,6.793c1.056,2.656,2.394,4.936,4.101,6.987
						c0.012,0.017,0.008,0.039,0.023,0.054c0.008,0.008,0.02,0.005,0.029,0.012c0.981,1.171,2.093,2.267,3.337,3.318
						c-5.259,1.477-9.502-3.3-9.547-3.351c-0.137-0.16-0.378-0.176-0.539-0.038c-0.159,0.138-0.176,0.379-0.039,0.539
						c0.041,0.046,3.455,3.915,8.085,3.915c0.875,0,1.795-0.146,2.743-0.475c1.434,1.144,3.041,2.238,4.849,3.319
						c3.636,2.173,4.892,4.739,5.273,7.721c-7.089,0.251-9.617-3.809-9.723-3.986c-0.108-0.181-0.344-0.239-0.524-0.133
						c-0.18,0.108-0.241,0.341-0.134,0.523c0.111,0.188,2.679,4.384,9.726,4.384c0.237,0,0.487-0.012,0.735-0.022
						c0.087,1.084,0.079,2.22,0.044,3.41c-0.081,2.734,0.957,4.396,2.16,6.319c0.171,0.274,0.346,0.553,0.52,0.84
						c-6.447-1.226-7.206-5.133-7.236-5.305c-0.035-0.207-0.227-0.361-0.44-0.313c-0.207,0.035-0.349,0.229-0.314,0.438
						c0.032,0.2,0.886,4.875,8.495,6.047c1.106,1.984,2.097,4.483,2.224,8.602c0.006,0.207,0.176,0.371,0.382,0.371
						c0.003,0,0.008,0,0.012,0c0.211-0.007,0.377-0.183,0.37-0.394C624.55,393.599,622.779,390.767,621.357,388.491z"/>
				</g>
			</g>
		</g>
	</g>
</g>
<g id="DESIGNED_BY_FREEPIK">
	<g>
		<g id="XMLID_319_">
			<g id="XMLID_338_">
				<path id="XMLID_346_" style="fill:#9BADBC;" d="M385.104,476.753c-0.432,0.443-0.803,0.931-1.108,1.453l-0.465-0.241
					c-0.067-0.298-0.349-0.503-0.659-0.466c-0.331,0.039-0.567,0.339-0.529,0.67c0.039,0.331,0.339,0.568,0.67,0.529
					c0.066-0.008,0.127-0.026,0.184-0.052l0.451,0.234c-0.251,0.554-0.433,1.139-0.539,1.744l0.747,0.132
					c0.23-1.306,0.85-2.507,1.792-3.473L385.104,476.753z"/>
				<path id="XMLID_345_" style="fill:#9BADBC;" d="M390.592,474.451c-0.171,0-0.341,0.006-0.51,0.017l-0.074-0.626
					c0.188-0.149,0.296-0.389,0.266-0.645c-0.046-0.393-0.402-0.674-0.795-0.628c-0.393,0.046-0.674,0.402-0.628,0.795
					c0.03,0.254,0.189,0.461,0.404,0.564l0.074,0.624c-0.714,0.116-1.403,0.332-2.06,0.646l0.327,0.684
					c0.934-0.447,1.942-0.673,2.995-0.673c0.496,0,0.993,0.053,1.475,0.158l0.161-0.741
					C391.692,474.51,391.142,474.451,390.592,474.451z"/>
				<path id="XMLID_344_" style="fill:#9BADBC;" d="M397.194,476.998c0.331-0.04,0.566-0.341,0.526-0.672
					c-0.04-0.331-0.341-0.566-0.672-0.526c-0.309,0.038-0.535,0.304-0.53,0.609l-0.416,0.363c-0.418-0.43-0.889-0.813-1.408-1.139
					l-0.404,0.641c1.134,0.715,2.021,1.726,2.563,2.925l0.69-0.313c-0.251-0.554-0.567-1.072-0.942-1.545l0.402-0.351
					C397.065,477.003,397.129,477.006,397.194,476.998z"/>
				<path id="XMLID_343_" style="fill:#9BADBC;" d="M390.044,484.659c-0.386,0.023-0.775,0.035-1.157,0.035
					c-0.88,0-1.733-0.061-2.478-0.179c-0.39-0.062-0.846-0.155-1.27-0.292c1.046,1.861,3.069,3.125,5.388,3.125
					c2.855,0,5.262-1.916,5.95-4.504c-0.682,0.449-1.505,0.825-2.459,1.123C392.839,484.335,391.463,484.574,390.044,484.659z"/>
				<path id="XMLID_339_" style="fill:#9BADBC;" d="M390.592,475.967c-3.352,0-6.08,2.666-6.08,5.944
					c0,0.426,0.046,0.849,0.137,1.261c0.673,0.483,2.706,0.89,5.348,0.731c2.879-0.173,5.297-0.957,6.672-2.159
					c-0.006-0.195-0.021-0.39-0.045-0.582C396.244,478.201,393.65,475.967,390.592,475.967z M388.432,482.482
					c-1.02,0-1.85-0.83-1.85-1.85c0-1.02,0.83-1.85,1.85-1.85c1.02,0,1.85,0.83,1.85,1.85
					C390.282,481.652,389.452,482.482,388.432,482.482z M393.17,481.574c-0.75,0-1.36-0.61-1.36-1.36c0-0.75,0.61-1.361,1.36-1.361
					c0.75,0,1.361,0.61,1.361,1.361C394.53,480.964,393.92,481.574,393.17,481.574z"/>
			</g>
			<path id="XMLID_336_" style="fill:#9BADBC;" d="M406.595,477.834c-0.295-0.116-0.805-0.309-1.382-0.237
				c-0.551,0.068-0.844,0.34-0.844,1.007v0.866h2.228v1.717h-2.228v5.455h-1.932v-5.455h-1.34v-1.717h1.34v-0.888
				c0-1.68,0.896-2.783,2.568-2.783c0.643,0,1.157,0.122,1.59,0.308L406.595,477.834z"/>
			<path id="XMLID_334_" style="fill:#9BADBC;" d="M411.298,481.166c-0.177-0.03-0.358-0.046-0.526-0.046
				c-0.896,0-1.51,0.548-1.51,1.613v3.908h-1.932v-7.172h1.873v0.785c0.451-0.674,1.14-0.977,2.021-0.977
				c0.414,0,0.848,0.128,1.094,0.337L411.298,481.166z"/>
			<path id="XMLID_331_" style="fill:#9BADBC;" d="M418.965,483.044c0,0.222-0.015,0.489-0.037,0.651h-5.085
				c0.207,1.036,0.933,1.488,1.843,1.488c0.622,0,1.295-0.252,1.813-0.688l1.133,1.243c-0.814,0.748-1.85,1.088-3.057,1.088
				c-2.198,0-3.723-1.495-3.723-3.753c0-2.257,1.48-3.797,3.627-3.797C417.544,479.277,418.958,480.809,418.965,483.044z
				 M413.851,482.378h3.175c-0.177-0.918-0.733-1.436-1.562-1.436C414.554,480.943,414.021,481.49,413.851,482.378z"/>
			<path id="XMLID_328_" style="fill:#9BADBC;" d="M426.618,483.044c0,0.222-0.015,0.489-0.037,0.651h-5.085
				c0.207,1.036,0.933,1.488,1.843,1.488c0.622,0,1.295-0.252,1.814-0.688l1.132,1.243c-0.814,0.748-1.85,1.088-3.057,1.088
				c-2.198,0-3.723-1.495-3.723-3.753c0-2.257,1.48-3.797,3.627-3.797C425.197,479.277,426.611,480.809,426.618,483.044z
				 M421.504,482.378h3.175c-0.178-0.918-0.733-1.436-1.562-1.436C422.207,480.943,421.674,481.49,421.504,482.378z"/>
			<path id="XMLID_325_" style="fill:#9BADBC;" d="M434.964,483.052c0,2.154-1.495,3.775-3.471,3.775
				c-0.962,0-1.643-0.378-2.109-0.933v3.708h-1.924V479.47h1.887v0.792c0.466-0.585,1.155-0.984,2.139-0.984
				C433.469,479.277,434.964,480.898,434.964,483.052z M429.287,483.052c0,1.132,0.748,1.976,1.843,1.976
				c1.14,0,1.85-0.881,1.85-1.976c0-1.095-0.71-1.976-1.85-1.976C430.035,481.076,429.287,481.919,429.287,483.052z"/>
			<path id="XMLID_322_" style="fill:#9BADBC;" d="M438.068,477.123c0,0.696-0.54,1.229-1.236,1.229
				c-0.696,0-1.229-0.533-1.229-1.229c0-0.696,0.533-1.243,1.229-1.243C437.527,475.88,438.068,476.428,438.068,477.123z
				 M437.809,486.642h-1.932v-7.172h1.932V486.642z"/>
			<path id="XMLID_320_" style="fill:#9BADBC;" d="M441.032,482.023l2.701-2.554h2.368l-3.479,3.375l3.501,3.797h-2.376
				l-2.716-2.901v2.901H439.1v-10.658h1.932V482.023z"/>
		</g>
		<g>
			<path style="fill:#9BADBC;" d="M309.412,486.577v-1.055c-0.527,0.718-1.391,1.23-2.387,1.23c-1.846,0-3.149-1.406-3.149-3.706
				c0-2.256,1.289-3.721,3.149-3.721c0.952,0,1.816,0.469,2.387,1.245v-3.765h1.099v9.77H309.412z M309.412,484.658v-3.208
				c-0.395-0.615-1.245-1.143-2.124-1.143c-1.421,0-2.27,1.172-2.27,2.739c0,1.567,0.85,2.724,2.27,2.724
				C308.168,485.771,309.017,485.273,309.412,484.658z"/>
			<path style="fill:#9BADBC;" d="M311.932,483.032c0-2.051,1.465-3.706,3.486-3.706c2.139,0,3.398,1.67,3.398,3.794v0.279h-5.727
				c0.088,1.333,1.025,2.446,2.549,2.446c0.805,0,1.626-0.322,2.182-0.893l0.527,0.718c-0.703,0.703-1.655,1.084-2.812,1.084
				C313.44,486.752,311.932,485.244,311.932,483.032z M315.404,480.234c-1.509,0-2.256,1.274-2.314,2.358h4.643
				C317.718,481.538,317.015,480.234,315.404,480.234z"/>
			<path style="fill:#9BADBC;" d="M319.607,485.639l0.571-0.791c0.469,0.542,1.362,1.011,2.329,1.011c1.084,0,1.67-0.513,1.67-1.216
				c0-1.714-4.38-0.659-4.38-3.281c0-1.098,0.952-2.036,2.636-2.036c1.201,0,2.051,0.454,2.622,1.026l-0.513,0.762
				c-0.424-0.513-1.201-0.894-2.109-0.894c-0.967,0-1.567,0.483-1.567,1.113c0,1.553,4.38,0.527,4.38,3.281
				c0,1.187-0.952,2.139-2.783,2.139C321.306,486.752,320.325,486.401,319.607,485.639z"/>
			<path style="fill:#9BADBC;" d="M326.477,477.759c0-0.41,0.337-0.747,0.732-0.747c0.41,0,0.747,0.337,0.747,0.747
				c0,0.41-0.337,0.732-0.747,0.732C326.814,478.491,326.477,478.169,326.477,477.759z M326.667,486.577v-7.075h1.099v7.075H326.667
				z"/>
			<path style="fill:#9BADBC;" d="M329.582,488.393l0.556-0.82c0.586,0.703,1.289,0.967,2.3,0.967c1.172,0,2.27-0.571,2.27-2.124
				v-1.011c-0.513,0.718-1.377,1.26-2.373,1.26c-1.845,0-3.149-1.377-3.149-3.662c0-2.27,1.289-3.677,3.149-3.677
				c0.952,0,1.802,0.469,2.373,1.245v-1.069h1.098v6.87c0,2.344-1.641,3.076-3.369,3.076
				C331.237,489.448,330.417,489.213,329.582,488.393z M334.709,484.541v-3.091c-0.381-0.615-1.231-1.143-2.109-1.143
				c-1.421,0-2.27,1.128-2.27,2.695c0,1.553,0.849,2.695,2.27,2.695C333.478,485.698,334.328,485.156,334.709,484.541z"/>
			<path style="fill:#9BADBC;" d="M342.413,486.577v-4.629c0-1.245-0.63-1.641-1.582-1.641c-0.865,0-1.685,0.527-2.095,1.099v5.17
				h-1.099v-7.075h1.099v1.025c0.498-0.586,1.465-1.201,2.519-1.201c1.48,0,2.256,0.747,2.256,2.285v4.966H342.413z"/>
			<path style="fill:#9BADBC;" d="M344.932,483.032c0-2.051,1.465-3.706,3.486-3.706c2.138,0,3.398,1.67,3.398,3.794v0.279h-5.727
				c0.088,1.333,1.025,2.446,2.549,2.446c0.806,0,1.626-0.322,2.183-0.893l0.527,0.718c-0.703,0.703-1.655,1.084-2.812,1.084
				C346.441,486.752,344.932,485.244,344.932,483.032z M348.404,480.234c-1.509,0-2.256,1.274-2.314,2.358h4.643
				C350.718,481.538,350.015,480.234,348.404,480.234z"/>
			<path style="fill:#9BADBC;" d="M358.35,486.577v-1.055c-0.527,0.718-1.392,1.23-2.388,1.23c-1.845,0-3.149-1.406-3.149-3.706
				c0-2.256,1.289-3.721,3.149-3.721c0.952,0,1.817,0.469,2.388,1.245v-3.765h1.098v9.77H358.35z M358.35,484.658v-3.208
				c-0.396-0.615-1.245-1.143-2.124-1.143c-1.421,0-2.27,1.172-2.27,2.739c0,1.567,0.849,2.724,2.27,2.724
				C357.105,485.771,357.954,485.273,358.35,484.658z"/>
			<path style="fill:#9BADBC;" d="M364.692,486.577v-9.77h1.098v3.765c0.572-0.776,1.421-1.245,2.388-1.245
				c1.845,0,3.149,1.465,3.149,3.721c0,2.299-1.304,3.706-3.149,3.706c-0.996,0-1.86-0.513-2.388-1.23v1.055H364.692z
				 M367.9,485.771c1.436,0,2.286-1.157,2.286-2.724c0-1.568-0.85-2.739-2.286-2.739c-0.864,0-1.728,0.527-2.109,1.143v3.208
				C366.172,485.273,367.036,485.771,367.9,485.771z"/>
			<path style="fill:#9BADBC;" d="M372.529,488.349c0.161,0.073,0.425,0.117,0.601,0.117c0.483,0,0.806-0.161,1.055-0.747
				l0.469-1.069l-2.959-7.148h1.187l2.358,5.801l2.344-5.801h1.201l-3.545,8.51c-0.425,1.025-1.143,1.421-2.08,1.435
				c-0.234,0-0.601-0.044-0.806-0.103L372.529,488.349z"/>
		</g>
	</g>
</g>
</svg>
